<?xml version="1.0" encoding="utf-8" standalone="no"?>
<!DOCTYPE svg PUBLIC "-//W3C//DTD SVG 1.1//EN"
  "http://www.w3.org/Graphics/SVG/1.1/DTD/svg11.dtd">
<svg xmlns:xlink="http://www.w3.org/1999/xlink" width="288pt" height="216pt" viewBox="0 0 288 216" xmlns="http://www.w3.org/2000/svg" version="1.1">
 <metadata>
  <rdf:RDF xmlns:dc="http://purl.org/dc/elements/1.1/" xmlns:cc="http://creativecommons.org/ns#" xmlns:rdf="http://www.w3.org/1999/02/22-rdf-syntax-ns#">
   <cc:Work>
    <dc:type rdf:resource="http://purl.org/dc/dcmitype/StillImage"/>
    <dc:date>2024-09-12T09:51:01.615675</dc:date>
    <dc:format>image/svg+xml</dc:format>
    <dc:creator>
     <cc:Agent>
      <dc:title>Matplotlib v3.9.2, https://matplotlib.org/</dc:title>
     </cc:Agent>
    </dc:creator>
   </cc:Work>
  </rdf:RDF>
 </metadata>
 <defs>
  <style type="text/css">*{stroke-linejoin: round; stroke-linecap: butt}</style>
 </defs>
 <g id="figure_1">
  <g id="patch_1">
   <path d="M 0 216 
L 288 216 
L 288 0 
L 0 0 
z
" style="fill: #ffffff"/>
  </g>
  <g id="axes_1">
   <g id="patch_2">
    <path d="M 47.81 174.04 
L 269.01 174.04 
L 269.01 10.8 
L 47.81 10.8 
z
" style="fill: #ffffff"/>
   </g>
   <g id="PathCollection_1">
    <defs>
     <path id="mb3ee0463e1" d="M 0 3 
C 0.795609 3 1.55874 2.683901 2.12132 2.12132 
C 2.683901 1.55874 3 0.795609 3 0 
C 3 -0.795609 2.683901 -1.55874 2.12132 -2.12132 
C 1.55874 -2.683901 0.795609 -3 0 -3 
C -0.795609 -3 -1.55874 -2.683901 -2.12132 -2.12132 
C -2.683901 -1.55874 -3 -0.795609 -3 0 
C -3 0.795609 -2.683901 1.55874 -2.12132 2.12132 
C -1.55874 2.683901 -0.795609 3 0 3 
z
" style="stroke: #6e74af"/>
    </defs>
    <g clip-path="url(#p249b7fd42f)">
     <use xlink:href="#mb3ee0463e1" x="164.548762" y="121.391033" style="fill: #6e74af; stroke: #6e74af"/>
     <use xlink:href="#mb3ee0463e1" x="167.655786" y="103.257676" style="fill: #6e74af; stroke: #6e74af"/>
     <use xlink:href="#mb3ee0463e1" x="160.907405" y="135.710084" style="fill: #6e74af; stroke: #6e74af"/>
     <use xlink:href="#mb3ee0463e1" x="155.289758" y="139.610895" style="fill: #6e74af; stroke: #6e74af"/>
     <use xlink:href="#mb3ee0463e1" x="166.85724" y="123.825355" style="fill: #6e74af; stroke: #6e74af"/>
     <use xlink:href="#mb3ee0463e1" x="161.043677" y="135.602084" style="fill: #6e74af; stroke: #6e74af"/>
     <use xlink:href="#mb3ee0463e1" x="160.65117" y="135.124019" style="fill: #6e74af; stroke: #6e74af"/>
     <use xlink:href="#mb3ee0463e1" x="154.509786" y="128.241026" style="fill: #6e74af; stroke: #6e74af"/>
     <use xlink:href="#mb3ee0463e1" x="164.112864" y="119.786304" style="fill: #6e74af; stroke: #6e74af"/>
     <use xlink:href="#mb3ee0463e1" x="150.983125" y="99.606961" style="fill: #6e74af; stroke: #6e74af"/>
     <use xlink:href="#mb3ee0463e1" x="147.46864" y="100.062918" style="fill: #6e74af; stroke: #6e74af"/>
     <use xlink:href="#mb3ee0463e1" x="151.088252" y="126.470915" style="fill: #6e74af; stroke: #6e74af"/>
     <use xlink:href="#mb3ee0463e1" x="147.750199" y="99.578338" style="fill: #6e74af; stroke: #6e74af"/>
     <use xlink:href="#mb3ee0463e1" x="157.041508" y="154.348791" style="fill: #6e74af; stroke: #6e74af"/>
     <use xlink:href="#mb3ee0463e1" x="138.074113" y="56.991192" style="fill: #6e74af; stroke: #6e74af"/>
     <use xlink:href="#mb3ee0463e1" x="125.283438" y="48.410558" style="fill: #6e74af; stroke: #6e74af"/>
     <use xlink:href="#mb3ee0463e1" x="149.32784" y="86.166375" style="fill: #6e74af; stroke: #6e74af"/>
     <use xlink:href="#mb3ee0463e1" x="152.927278" y="114.216777" style="fill: #6e74af; stroke: #6e74af"/>
     <use xlink:href="#mb3ee0463e1" x="149.964971" y="90.78153" style="fill: #6e74af; stroke: #6e74af"/>
    </g>
   </g>
   <g id="matplotlib.axis_1">
    <g id="xtick_1">
     <g id="line2d_1">
      <defs>
       <path id="m9ce99706dc" d="M 0 0 
L 0 3.5 
" style="stroke: #000000; stroke-width: 0.8"/>
      </defs>
      <g>
       <use xlink:href="#m9ce99706dc" x="47.81" y="174.04" style="stroke: #000000; stroke-width: 0.8"/>
      </g>
     </g>
     <g id="text_1">
      <!-- -4 Å -->
      <g transform="translate(37.815469 188.638438) scale(0.1 -0.1)">
       <defs>
        <path id="DejaVuSans-2d" d="M 313 2009 
L 1997 2009 
L 1997 1497 
L 313 1497 
L 313 2009 
z
" transform="scale(0.015625)"/>
        <path id="DejaVuSans-34" d="M 2419 4116 
L 825 1625 
L 2419 1625 
L 2419 4116 
z
M 2253 4666 
L 3047 4666 
L 3047 1625 
L 3713 1625 
L 3713 1100 
L 3047 1100 
L 3047 0 
L 2419 0 
L 2419 1100 
L 313 1100 
L 313 1709 
L 2253 4666 
z
" transform="scale(0.015625)"/>
        <path id="DejaVuSans-20" transform="scale(0.015625)"/>
        <path id="DejaVuSans-c5" d="M 2663 5081 
Q 2663 5278 2523 5417 
Q 2384 5556 2188 5556 
Q 1988 5556 1852 5420 
Q 1716 5284 1716 5081 
Q 1716 4884 1853 4746 
Q 1991 4609 2188 4609 
Q 2384 4609 2523 4746 
Q 2663 4884 2663 5081 
z
M 2188 4044 
L 1338 1722 
L 3041 1722 
L 2188 4044 
z
M 1716 4366 
Q 1525 4494 1428 4673 
Q 1331 4853 1331 5081 
Q 1331 5441 1579 5691 
Q 1828 5941 2188 5941 
Q 2544 5941 2795 5689 
Q 3047 5438 3047 5081 
Q 3047 4863 2948 4678 
Q 2850 4494 2663 4366 
L 4325 0 
L 3669 0 
L 3244 1197 
L 1141 1197 
L 716 0 
L 50 0 
L 1716 4366 
z
" transform="scale(0.015625)"/>
       </defs>
       <use xlink:href="#DejaVuSans-2d"/>
       <use xlink:href="#DejaVuSans-34" x="36.083984"/>
       <use xlink:href="#DejaVuSans-20" x="99.707031"/>
       <use xlink:href="#DejaVuSans-c5" x="131.494141"/>
      </g>
     </g>
    </g>
    <g id="xtick_2">
     <g id="line2d_2">
      <g>
       <use xlink:href="#m9ce99706dc" x="103.11" y="174.04" style="stroke: #000000; stroke-width: 0.8"/>
      </g>
     </g>
     <g id="text_2">
      <!-- -2 Å -->
      <g transform="translate(93.115469 188.638438) scale(0.1 -0.1)">
       <defs>
        <path id="DejaVuSans-32" d="M 1228 531 
L 3431 531 
L 3431 0 
L 469 0 
L 469 531 
Q 828 903 1448 1529 
Q 2069 2156 2228 2338 
Q 2531 2678 2651 2914 
Q 2772 3150 2772 3378 
Q 2772 3750 2511 3984 
Q 2250 4219 1831 4219 
Q 1534 4219 1204 4116 
Q 875 4013 500 3803 
L 500 4441 
Q 881 4594 1212 4672 
Q 1544 4750 1819 4750 
Q 2544 4750 2975 4387 
Q 3406 4025 3406 3419 
Q 3406 3131 3298 2873 
Q 3191 2616 2906 2266 
Q 2828 2175 2409 1742 
Q 1991 1309 1228 531 
z
" transform="scale(0.015625)"/>
       </defs>
       <use xlink:href="#DejaVuSans-2d"/>
       <use xlink:href="#DejaVuSans-32" x="36.083984"/>
       <use xlink:href="#DejaVuSans-20" x="99.707031"/>
       <use xlink:href="#DejaVuSans-c5" x="131.494141"/>
      </g>
     </g>
    </g>
    <g id="xtick_3">
     <g id="line2d_3">
      <g>
       <use xlink:href="#m9ce99706dc" x="158.41" y="174.04" style="stroke: #000000; stroke-width: 0.8"/>
      </g>
     </g>
     <g id="text_3">
      <!-- 0 Å -->
      <g transform="translate(150.219375 188.638438) scale(0.1 -0.1)">
       <defs>
        <path id="DejaVuSans-30" d="M 2034 4250 
Q 1547 4250 1301 3770 
Q 1056 3291 1056 2328 
Q 1056 1369 1301 889 
Q 1547 409 2034 409 
Q 2525 409 2770 889 
Q 3016 1369 3016 2328 
Q 3016 3291 2770 3770 
Q 2525 4250 2034 4250 
z
M 2034 4750 
Q 2819 4750 3233 4129 
Q 3647 3509 3647 2328 
Q 3647 1150 3233 529 
Q 2819 -91 2034 -91 
Q 1250 -91 836 529 
Q 422 1150 422 2328 
Q 422 3509 836 4129 
Q 1250 4750 2034 4750 
z
" transform="scale(0.015625)"/>
       </defs>
       <use xlink:href="#DejaVuSans-30"/>
       <use xlink:href="#DejaVuSans-20" x="63.623047"/>
       <use xlink:href="#DejaVuSans-c5" x="95.410156"/>
      </g>
     </g>
    </g>
    <g id="xtick_4">
     <g id="line2d_4">
      <g>
       <use xlink:href="#m9ce99706dc" x="213.71" y="174.04" style="stroke: #000000; stroke-width: 0.8"/>
      </g>
     </g>
     <g id="text_4">
      <!-- 2 Å -->
      <g transform="translate(205.519375 188.638438) scale(0.1 -0.1)">
       <use xlink:href="#DejaVuSans-32"/>
       <use xlink:href="#DejaVuSans-20" x="63.623047"/>
       <use xlink:href="#DejaVuSans-c5" x="95.410156"/>
      </g>
     </g>
    </g>
    <g id="xtick_5">
     <g id="line2d_5">
      <g>
       <use xlink:href="#m9ce99706dc" x="269.01" y="174.04" style="stroke: #000000; stroke-width: 0.8"/>
      </g>
     </g>
     <g id="text_5">
      <!-- 4 Å -->
      <g transform="translate(260.819375 188.638438) scale(0.1 -0.1)">
       <use xlink:href="#DejaVuSans-34"/>
       <use xlink:href="#DejaVuSans-20" x="63.623047"/>
       <use xlink:href="#DejaVuSans-c5" x="95.410156"/>
      </g>
     </g>
    </g>
    <g id="text_6">
     <!-- mean(MM) - mean(ML) -->
     <g transform="translate(101.537344 202.316563) scale(0.1 -0.1)">
      <defs>
       <path id="DejaVuSans-6d" d="M 3328 2828 
Q 3544 3216 3844 3400 
Q 4144 3584 4550 3584 
Q 5097 3584 5394 3201 
Q 5691 2819 5691 2113 
L 5691 0 
L 5113 0 
L 5113 2094 
Q 5113 2597 4934 2840 
Q 4756 3084 4391 3084 
Q 3944 3084 3684 2787 
Q 3425 2491 3425 1978 
L 3425 0 
L 2847 0 
L 2847 2094 
Q 2847 2600 2669 2842 
Q 2491 3084 2119 3084 
Q 1678 3084 1418 2786 
Q 1159 2488 1159 1978 
L 1159 0 
L 581 0 
L 581 3500 
L 1159 3500 
L 1159 2956 
Q 1356 3278 1631 3431 
Q 1906 3584 2284 3584 
Q 2666 3584 2933 3390 
Q 3200 3197 3328 2828 
z
" transform="scale(0.015625)"/>
       <path id="DejaVuSans-65" d="M 3597 1894 
L 3597 1613 
L 953 1613 
Q 991 1019 1311 708 
Q 1631 397 2203 397 
Q 2534 397 2845 478 
Q 3156 559 3463 722 
L 3463 178 
Q 3153 47 2828 -22 
Q 2503 -91 2169 -91 
Q 1331 -91 842 396 
Q 353 884 353 1716 
Q 353 2575 817 3079 
Q 1281 3584 2069 3584 
Q 2775 3584 3186 3129 
Q 3597 2675 3597 1894 
z
M 3022 2063 
Q 3016 2534 2758 2815 
Q 2500 3097 2075 3097 
Q 1594 3097 1305 2825 
Q 1016 2553 972 2059 
L 3022 2063 
z
" transform="scale(0.015625)"/>
       <path id="DejaVuSans-61" d="M 2194 1759 
Q 1497 1759 1228 1600 
Q 959 1441 959 1056 
Q 959 750 1161 570 
Q 1363 391 1709 391 
Q 2188 391 2477 730 
Q 2766 1069 2766 1631 
L 2766 1759 
L 2194 1759 
z
M 3341 1997 
L 3341 0 
L 2766 0 
L 2766 531 
Q 2569 213 2275 61 
Q 1981 -91 1556 -91 
Q 1019 -91 701 211 
Q 384 513 384 1019 
Q 384 1609 779 1909 
Q 1175 2209 1959 2209 
L 2766 2209 
L 2766 2266 
Q 2766 2663 2505 2880 
Q 2244 3097 1772 3097 
Q 1472 3097 1187 3025 
Q 903 2953 641 2809 
L 641 3341 
Q 956 3463 1253 3523 
Q 1550 3584 1831 3584 
Q 2591 3584 2966 3190 
Q 3341 2797 3341 1997 
z
" transform="scale(0.015625)"/>
       <path id="DejaVuSans-6e" d="M 3513 2113 
L 3513 0 
L 2938 0 
L 2938 2094 
Q 2938 2591 2744 2837 
Q 2550 3084 2163 3084 
Q 1697 3084 1428 2787 
Q 1159 2491 1159 1978 
L 1159 0 
L 581 0 
L 581 3500 
L 1159 3500 
L 1159 2956 
Q 1366 3272 1645 3428 
Q 1925 3584 2291 3584 
Q 2894 3584 3203 3211 
Q 3513 2838 3513 2113 
z
" transform="scale(0.015625)"/>
       <path id="DejaVuSans-28" d="M 1984 4856 
Q 1566 4138 1362 3434 
Q 1159 2731 1159 2009 
Q 1159 1288 1364 580 
Q 1569 -128 1984 -844 
L 1484 -844 
Q 1016 -109 783 600 
Q 550 1309 550 2009 
Q 550 2706 781 3412 
Q 1013 4119 1484 4856 
L 1984 4856 
z
" transform="scale(0.015625)"/>
       <path id="DejaVuSans-4d" d="M 628 4666 
L 1569 4666 
L 2759 1491 
L 3956 4666 
L 4897 4666 
L 4897 0 
L 4281 0 
L 4281 4097 
L 3078 897 
L 2444 897 
L 1241 4097 
L 1241 0 
L 628 0 
L 628 4666 
z
" transform="scale(0.015625)"/>
       <path id="DejaVuSans-29" d="M 513 4856 
L 1013 4856 
Q 1481 4119 1714 3412 
Q 1947 2706 1947 2009 
Q 1947 1309 1714 600 
Q 1481 -109 1013 -844 
L 513 -844 
Q 928 -128 1133 580 
Q 1338 1288 1338 2009 
Q 1338 2731 1133 3434 
Q 928 4138 513 4856 
z
" transform="scale(0.015625)"/>
       <path id="DejaVuSans-4c" d="M 628 4666 
L 1259 4666 
L 1259 531 
L 3531 531 
L 3531 0 
L 628 0 
L 628 4666 
z
" transform="scale(0.015625)"/>
      </defs>
      <use xlink:href="#DejaVuSans-6d"/>
      <use xlink:href="#DejaVuSans-65" x="97.412109"/>
      <use xlink:href="#DejaVuSans-61" x="158.935547"/>
      <use xlink:href="#DejaVuSans-6e" x="220.214844"/>
      <use xlink:href="#DejaVuSans-28" x="283.59375"/>
      <use xlink:href="#DejaVuSans-4d" x="322.607422"/>
      <use xlink:href="#DejaVuSans-4d" x="408.886719"/>
      <use xlink:href="#DejaVuSans-29" x="495.166016"/>
      <use xlink:href="#DejaVuSans-20" x="534.179688"/>
      <use xlink:href="#DejaVuSans-2d" x="565.966797"/>
      <use xlink:href="#DejaVuSans-20" x="602.050781"/>
      <use xlink:href="#DejaVuSans-6d" x="633.837891"/>
      <use xlink:href="#DejaVuSans-65" x="731.25"/>
      <use xlink:href="#DejaVuSans-61" x="792.773438"/>
      <use xlink:href="#DejaVuSans-6e" x="854.052734"/>
      <use xlink:href="#DejaVuSans-28" x="917.431641"/>
      <use xlink:href="#DejaVuSans-4d" x="956.445312"/>
      <use xlink:href="#DejaVuSans-4c" x="1042.724609"/>
      <use xlink:href="#DejaVuSans-29" x="1098.4375"/>
     </g>
    </g>
   </g>
   <g id="matplotlib.axis_2">
    <g id="ytick_1">
     <g id="line2d_6">
      <defs>
       <path id="m694c167479" d="M 0 0 
L -3.5 0 
" style="stroke: #000000; stroke-width: 0.8"/>
      </defs>
      <g>
       <use xlink:href="#m694c167479" x="47.81" y="174.04" style="stroke: #000000; stroke-width: 0.8"/>
      </g>
     </g>
     <g id="text_7">
      <!-- 0.0 -->
      <g transform="translate(24.906875 177.839219) scale(0.1 -0.1)">
       <defs>
        <path id="DejaVuSans-2e" d="M 684 794 
L 1344 794 
L 1344 0 
L 684 0 
L 684 794 
z
" transform="scale(0.015625)"/>
       </defs>
       <use xlink:href="#DejaVuSans-30"/>
       <use xlink:href="#DejaVuSans-2e" x="63.623047"/>
       <use xlink:href="#DejaVuSans-30" x="95.410156"/>
      </g>
     </g>
    </g>
    <g id="ytick_2">
     <g id="line2d_7">
      <g>
       <use xlink:href="#m694c167479" x="47.81" y="134.825756" style="stroke: #000000; stroke-width: 0.8"/>
      </g>
     </g>
     <g id="text_8">
      <!-- 0.2 -->
      <g transform="translate(24.906875 138.624974) scale(0.1 -0.1)">
       <use xlink:href="#DejaVuSans-30"/>
       <use xlink:href="#DejaVuSans-2e" x="63.623047"/>
       <use xlink:href="#DejaVuSans-32" x="95.410156"/>
      </g>
     </g>
    </g>
    <g id="ytick_3">
     <g id="line2d_8">
      <g>
       <use xlink:href="#m694c167479" x="47.81" y="95.611511" style="stroke: #000000; stroke-width: 0.8"/>
      </g>
     </g>
     <g id="text_9">
      <!-- 0.4 -->
      <g transform="translate(24.906875 99.41073) scale(0.1 -0.1)">
       <use xlink:href="#DejaVuSans-30"/>
       <use xlink:href="#DejaVuSans-2e" x="63.623047"/>
       <use xlink:href="#DejaVuSans-34" x="95.410156"/>
      </g>
     </g>
    </g>
    <g id="ytick_4">
     <g id="line2d_9">
      <g>
       <use xlink:href="#m694c167479" x="47.81" y="56.397267" style="stroke: #000000; stroke-width: 0.8"/>
      </g>
     </g>
     <g id="text_10">
      <!-- 0.6 -->
      <g transform="translate(24.906875 60.196486) scale(0.1 -0.1)">
       <defs>
        <path id="DejaVuSans-36" d="M 2113 2584 
Q 1688 2584 1439 2293 
Q 1191 2003 1191 1497 
Q 1191 994 1439 701 
Q 1688 409 2113 409 
Q 2538 409 2786 701 
Q 3034 994 3034 1497 
Q 3034 2003 2786 2293 
Q 2538 2584 2113 2584 
z
M 3366 4563 
L 3366 3988 
Q 3128 4100 2886 4159 
Q 2644 4219 2406 4219 
Q 1781 4219 1451 3797 
Q 1122 3375 1075 2522 
Q 1259 2794 1537 2939 
Q 1816 3084 2150 3084 
Q 2853 3084 3261 2657 
Q 3669 2231 3669 1497 
Q 3669 778 3244 343 
Q 2819 -91 2113 -91 
Q 1303 -91 875 529 
Q 447 1150 447 2328 
Q 447 3434 972 4092 
Q 1497 4750 2381 4750 
Q 2619 4750 2861 4703 
Q 3103 4656 3366 4563 
z
" transform="scale(0.015625)"/>
       </defs>
       <use xlink:href="#DejaVuSans-30"/>
       <use xlink:href="#DejaVuSans-2e" x="63.623047"/>
       <use xlink:href="#DejaVuSans-36" x="95.410156"/>
      </g>
     </g>
    </g>
    <g id="ytick_5">
     <g id="line2d_10">
      <g>
       <use xlink:href="#m694c167479" x="47.81" y="17.183022" style="stroke: #000000; stroke-width: 0.8"/>
      </g>
     </g>
     <g id="text_11">
      <!-- 0.8 -->
      <g transform="translate(24.906875 20.982241) scale(0.1 -0.1)">
       <defs>
        <path id="DejaVuSans-38" d="M 2034 2216 
Q 1584 2216 1326 1975 
Q 1069 1734 1069 1313 
Q 1069 891 1326 650 
Q 1584 409 2034 409 
Q 2484 409 2743 651 
Q 3003 894 3003 1313 
Q 3003 1734 2745 1975 
Q 2488 2216 2034 2216 
z
M 1403 2484 
Q 997 2584 770 2862 
Q 544 3141 544 3541 
Q 544 4100 942 4425 
Q 1341 4750 2034 4750 
Q 2731 4750 3128 4425 
Q 3525 4100 3525 3541 
Q 3525 3141 3298 2862 
Q 3072 2584 2669 2484 
Q 3125 2378 3379 2068 
Q 3634 1759 3634 1313 
Q 3634 634 3220 271 
Q 2806 -91 2034 -91 
Q 1263 -91 848 271 
Q 434 634 434 1313 
Q 434 1759 690 2068 
Q 947 2378 1403 2484 
z
M 1172 3481 
Q 1172 3119 1398 2916 
Q 1625 2713 2034 2713 
Q 2441 2713 2670 2916 
Q 2900 3119 2900 3481 
Q 2900 3844 2670 4047 
Q 2441 4250 2034 4250 
Q 1625 4250 1398 4047 
Q 1172 3844 1172 3481 
z
" transform="scale(0.015625)"/>
       </defs>
       <use xlink:href="#DejaVuSans-30"/>
       <use xlink:href="#DejaVuSans-2e" x="63.623047"/>
       <use xlink:href="#DejaVuSans-38" x="95.410156"/>
      </g>
     </g>
    </g>
    <g id="text_12">
     <!-- Jensen-Shannon distance between MM and ML -->
     <g transform="translate(18.827188 208.655937) rotate(-90) scale(0.1 -0.1)">
      <defs>
       <path id="DejaVuSans-4a" d="M 628 4666 
L 1259 4666 
L 1259 325 
Q 1259 -519 939 -900 
Q 619 -1281 -91 -1281 
L -331 -1281 
L -331 -750 
L -134 -750 
Q 284 -750 456 -515 
Q 628 -281 628 325 
L 628 4666 
z
" transform="scale(0.015625)"/>
       <path id="DejaVuSans-73" d="M 2834 3397 
L 2834 2853 
Q 2591 2978 2328 3040 
Q 2066 3103 1784 3103 
Q 1356 3103 1142 2972 
Q 928 2841 928 2578 
Q 928 2378 1081 2264 
Q 1234 2150 1697 2047 
L 1894 2003 
Q 2506 1872 2764 1633 
Q 3022 1394 3022 966 
Q 3022 478 2636 193 
Q 2250 -91 1575 -91 
Q 1294 -91 989 -36 
Q 684 19 347 128 
L 347 722 
Q 666 556 975 473 
Q 1284 391 1588 391 
Q 1994 391 2212 530 
Q 2431 669 2431 922 
Q 2431 1156 2273 1281 
Q 2116 1406 1581 1522 
L 1381 1569 
Q 847 1681 609 1914 
Q 372 2147 372 2553 
Q 372 3047 722 3315 
Q 1072 3584 1716 3584 
Q 2034 3584 2315 3537 
Q 2597 3491 2834 3397 
z
" transform="scale(0.015625)"/>
       <path id="DejaVuSans-53" d="M 3425 4513 
L 3425 3897 
Q 3066 4069 2747 4153 
Q 2428 4238 2131 4238 
Q 1616 4238 1336 4038 
Q 1056 3838 1056 3469 
Q 1056 3159 1242 3001 
Q 1428 2844 1947 2747 
L 2328 2669 
Q 3034 2534 3370 2195 
Q 3706 1856 3706 1288 
Q 3706 609 3251 259 
Q 2797 -91 1919 -91 
Q 1588 -91 1214 -16 
Q 841 59 441 206 
L 441 856 
Q 825 641 1194 531 
Q 1563 422 1919 422 
Q 2459 422 2753 634 
Q 3047 847 3047 1241 
Q 3047 1584 2836 1778 
Q 2625 1972 2144 2069 
L 1759 2144 
Q 1053 2284 737 2584 
Q 422 2884 422 3419 
Q 422 4038 858 4394 
Q 1294 4750 2059 4750 
Q 2388 4750 2728 4690 
Q 3069 4631 3425 4513 
z
" transform="scale(0.015625)"/>
       <path id="DejaVuSans-68" d="M 3513 2113 
L 3513 0 
L 2938 0 
L 2938 2094 
Q 2938 2591 2744 2837 
Q 2550 3084 2163 3084 
Q 1697 3084 1428 2787 
Q 1159 2491 1159 1978 
L 1159 0 
L 581 0 
L 581 4863 
L 1159 4863 
L 1159 2956 
Q 1366 3272 1645 3428 
Q 1925 3584 2291 3584 
Q 2894 3584 3203 3211 
Q 3513 2838 3513 2113 
z
" transform="scale(0.015625)"/>
       <path id="DejaVuSans-6f" d="M 1959 3097 
Q 1497 3097 1228 2736 
Q 959 2375 959 1747 
Q 959 1119 1226 758 
Q 1494 397 1959 397 
Q 2419 397 2687 759 
Q 2956 1122 2956 1747 
Q 2956 2369 2687 2733 
Q 2419 3097 1959 3097 
z
M 1959 3584 
Q 2709 3584 3137 3096 
Q 3566 2609 3566 1747 
Q 3566 888 3137 398 
Q 2709 -91 1959 -91 
Q 1206 -91 779 398 
Q 353 888 353 1747 
Q 353 2609 779 3096 
Q 1206 3584 1959 3584 
z
" transform="scale(0.015625)"/>
       <path id="DejaVuSans-64" d="M 2906 2969 
L 2906 4863 
L 3481 4863 
L 3481 0 
L 2906 0 
L 2906 525 
Q 2725 213 2448 61 
Q 2172 -91 1784 -91 
Q 1150 -91 751 415 
Q 353 922 353 1747 
Q 353 2572 751 3078 
Q 1150 3584 1784 3584 
Q 2172 3584 2448 3432 
Q 2725 3281 2906 2969 
z
M 947 1747 
Q 947 1113 1208 752 
Q 1469 391 1925 391 
Q 2381 391 2643 752 
Q 2906 1113 2906 1747 
Q 2906 2381 2643 2742 
Q 2381 3103 1925 3103 
Q 1469 3103 1208 2742 
Q 947 2381 947 1747 
z
" transform="scale(0.015625)"/>
       <path id="DejaVuSans-69" d="M 603 3500 
L 1178 3500 
L 1178 0 
L 603 0 
L 603 3500 
z
M 603 4863 
L 1178 4863 
L 1178 4134 
L 603 4134 
L 603 4863 
z
" transform="scale(0.015625)"/>
       <path id="DejaVuSans-74" d="M 1172 4494 
L 1172 3500 
L 2356 3500 
L 2356 3053 
L 1172 3053 
L 1172 1153 
Q 1172 725 1289 603 
Q 1406 481 1766 481 
L 2356 481 
L 2356 0 
L 1766 0 
Q 1100 0 847 248 
Q 594 497 594 1153 
L 594 3053 
L 172 3053 
L 172 3500 
L 594 3500 
L 594 4494 
L 1172 4494 
z
" transform="scale(0.015625)"/>
       <path id="DejaVuSans-63" d="M 3122 3366 
L 3122 2828 
Q 2878 2963 2633 3030 
Q 2388 3097 2138 3097 
Q 1578 3097 1268 2742 
Q 959 2388 959 1747 
Q 959 1106 1268 751 
Q 1578 397 2138 397 
Q 2388 397 2633 464 
Q 2878 531 3122 666 
L 3122 134 
Q 2881 22 2623 -34 
Q 2366 -91 2075 -91 
Q 1284 -91 818 406 
Q 353 903 353 1747 
Q 353 2603 823 3093 
Q 1294 3584 2113 3584 
Q 2378 3584 2631 3529 
Q 2884 3475 3122 3366 
z
" transform="scale(0.015625)"/>
       <path id="DejaVuSans-62" d="M 3116 1747 
Q 3116 2381 2855 2742 
Q 2594 3103 2138 3103 
Q 1681 3103 1420 2742 
Q 1159 2381 1159 1747 
Q 1159 1113 1420 752 
Q 1681 391 2138 391 
Q 2594 391 2855 752 
Q 3116 1113 3116 1747 
z
M 1159 2969 
Q 1341 3281 1617 3432 
Q 1894 3584 2278 3584 
Q 2916 3584 3314 3078 
Q 3713 2572 3713 1747 
Q 3713 922 3314 415 
Q 2916 -91 2278 -91 
Q 1894 -91 1617 61 
Q 1341 213 1159 525 
L 1159 0 
L 581 0 
L 581 4863 
L 1159 4863 
L 1159 2969 
z
" transform="scale(0.015625)"/>
       <path id="DejaVuSans-77" d="M 269 3500 
L 844 3500 
L 1563 769 
L 2278 3500 
L 2956 3500 
L 3675 769 
L 4391 3500 
L 4966 3500 
L 4050 0 
L 3372 0 
L 2619 2869 
L 1863 0 
L 1184 0 
L 269 3500 
z
" transform="scale(0.015625)"/>
      </defs>
      <use xlink:href="#DejaVuSans-4a"/>
      <use xlink:href="#DejaVuSans-65" x="29.492188"/>
      <use xlink:href="#DejaVuSans-6e" x="91.015625"/>
      <use xlink:href="#DejaVuSans-73" x="154.394531"/>
      <use xlink:href="#DejaVuSans-65" x="206.494141"/>
      <use xlink:href="#DejaVuSans-6e" x="268.017578"/>
      <use xlink:href="#DejaVuSans-2d" x="331.396484"/>
      <use xlink:href="#DejaVuSans-53" x="367.480469"/>
      <use xlink:href="#DejaVuSans-68" x="430.957031"/>
      <use xlink:href="#DejaVuSans-61" x="494.335938"/>
      <use xlink:href="#DejaVuSans-6e" x="555.615234"/>
      <use xlink:href="#DejaVuSans-6e" x="618.994141"/>
      <use xlink:href="#DejaVuSans-6f" x="682.373047"/>
      <use xlink:href="#DejaVuSans-6e" x="743.554688"/>
      <use xlink:href="#DejaVuSans-20" x="806.933594"/>
      <use xlink:href="#DejaVuSans-64" x="838.720703"/>
      <use xlink:href="#DejaVuSans-69" x="902.197266"/>
      <use xlink:href="#DejaVuSans-73" x="929.980469"/>
      <use xlink:href="#DejaVuSans-74" x="982.080078"/>
      <use xlink:href="#DejaVuSans-61" x="1021.289062"/>
      <use xlink:href="#DejaVuSans-6e" x="1082.568359"/>
      <use xlink:href="#DejaVuSans-63" x="1145.947266"/>
      <use xlink:href="#DejaVuSans-65" x="1200.927734"/>
      <use xlink:href="#DejaVuSans-20" x="1262.451172"/>
      <use xlink:href="#DejaVuSans-62" x="1294.238281"/>
      <use xlink:href="#DejaVuSans-65" x="1357.714844"/>
      <use xlink:href="#DejaVuSans-74" x="1419.238281"/>
      <use xlink:href="#DejaVuSans-77" x="1458.447266"/>
      <use xlink:href="#DejaVuSans-65" x="1540.234375"/>
      <use xlink:href="#DejaVuSans-65" x="1601.757812"/>
      <use xlink:href="#DejaVuSans-6e" x="1663.28125"/>
      <use xlink:href="#DejaVuSans-20" x="1726.660156"/>
      <use xlink:href="#DejaVuSans-4d" x="1758.447266"/>
      <use xlink:href="#DejaVuSans-4d" x="1844.726562"/>
      <use xlink:href="#DejaVuSans-20" x="1931.005859"/>
      <use xlink:href="#DejaVuSans-61" x="1962.792969"/>
      <use xlink:href="#DejaVuSans-6e" x="2024.072266"/>
      <use xlink:href="#DejaVuSans-64" x="2087.451172"/>
      <use xlink:href="#DejaVuSans-20" x="2150.927734"/>
      <use xlink:href="#DejaVuSans-4d" x="2182.714844"/>
      <use xlink:href="#DejaVuSans-4c" x="2268.994141"/>
     </g>
    </g>
   </g>
   <g id="LineCollection_1">
    <path d="M 158.41 174.04 
L 158.41 10.8 
" clip-path="url(#p249b7fd42f)" style="fill: none; stroke-dasharray: 5.55,2.4; stroke-dashoffset: 0; stroke: #000000; stroke-opacity: 0.5; stroke-width: 1.5"/>
   </g>
   <g id="patch_3">
    <path d="M 47.81 174.04 
L 47.81 10.8 
" style="fill: none; stroke: #000000; stroke-width: 0.8; stroke-linejoin: miter; stroke-linecap: square"/>
   </g>
   <g id="patch_4">
    <path d="M 269.01 174.04 
L 269.01 10.8 
" style="fill: none; stroke: #000000; stroke-width: 0.8; stroke-linejoin: miter; stroke-linecap: square"/>
   </g>
   <g id="patch_5">
    <path d="M 47.81 174.04 
L 269.01 174.04 
" style="fill: none; stroke: #000000; stroke-width: 0.8; stroke-linejoin: miter; stroke-linecap: square"/>
   </g>
   <g id="patch_6">
    <path d="M 47.81 10.8 
L 269.01 10.8 
" style="fill: none; stroke: #000000; stroke-width: 0.8; stroke-linejoin: miter; stroke-linecap: square"/>
   </g>
   <g id="text_13">
    <!-- All of Leu246 -->
    <g transform="translate(164.548762 121.391033) scale(0.06 -0.06)">
     <defs>
      <path id="DejaVuSans-41" d="M 2188 4044 
L 1331 1722 
L 3047 1722 
L 2188 4044 
z
M 1831 4666 
L 2547 4666 
L 4325 0 
L 3669 0 
L 3244 1197 
L 1141 1197 
L 716 0 
L 50 0 
L 1831 4666 
z
" transform="scale(0.015625)"/>
      <path id="DejaVuSans-6c" d="M 603 4863 
L 1178 4863 
L 1178 0 
L 603 0 
L 603 4863 
z
" transform="scale(0.015625)"/>
      <path id="DejaVuSans-66" d="M 2375 4863 
L 2375 4384 
L 1825 4384 
Q 1516 4384 1395 4259 
Q 1275 4134 1275 3809 
L 1275 3500 
L 2222 3500 
L 2222 3053 
L 1275 3053 
L 1275 0 
L 697 0 
L 697 3053 
L 147 3053 
L 147 3500 
L 697 3500 
L 697 3744 
Q 697 4328 969 4595 
Q 1241 4863 1831 4863 
L 2375 4863 
z
" transform="scale(0.015625)"/>
      <path id="DejaVuSans-75" d="M 544 1381 
L 544 3500 
L 1119 3500 
L 1119 1403 
Q 1119 906 1312 657 
Q 1506 409 1894 409 
Q 2359 409 2629 706 
Q 2900 1003 2900 1516 
L 2900 3500 
L 3475 3500 
L 3475 0 
L 2900 0 
L 2900 538 
Q 2691 219 2414 64 
Q 2138 -91 1772 -91 
Q 1169 -91 856 284 
Q 544 659 544 1381 
z
M 1991 3584 
L 1991 3584 
z
" transform="scale(0.015625)"/>
     </defs>
     <use xlink:href="#DejaVuSans-41"/>
     <use xlink:href="#DejaVuSans-6c" x="68.408203"/>
     <use xlink:href="#DejaVuSans-6c" x="96.191406"/>
     <use xlink:href="#DejaVuSans-20" x="123.974609"/>
     <use xlink:href="#DejaVuSans-6f" x="155.761719"/>
     <use xlink:href="#DejaVuSans-66" x="216.943359"/>
     <use xlink:href="#DejaVuSans-20" x="252.148438"/>
     <use xlink:href="#DejaVuSans-4c" x="283.935547"/>
     <use xlink:href="#DejaVuSans-65" x="337.898438"/>
     <use xlink:href="#DejaVuSans-75" x="399.421875"/>
     <use xlink:href="#DejaVuSans-32" x="462.800781"/>
     <use xlink:href="#DejaVuSans-34" x="526.423828"/>
     <use xlink:href="#DejaVuSans-36" x="590.046875"/>
    </g>
   </g>
   <g id="text_14">
    <!-- Backbone of Leu246 -->
    <g transform="translate(167.655786 103.257676) scale(0.06 -0.06)">
     <defs>
      <path id="DejaVuSans-42" d="M 1259 2228 
L 1259 519 
L 2272 519 
Q 2781 519 3026 730 
Q 3272 941 3272 1375 
Q 3272 1813 3026 2020 
Q 2781 2228 2272 2228 
L 1259 2228 
z
M 1259 4147 
L 1259 2741 
L 2194 2741 
Q 2656 2741 2882 2914 
Q 3109 3088 3109 3444 
Q 3109 3797 2882 3972 
Q 2656 4147 2194 4147 
L 1259 4147 
z
M 628 4666 
L 2241 4666 
Q 2963 4666 3353 4366 
Q 3744 4066 3744 3513 
Q 3744 3084 3544 2831 
Q 3344 2578 2956 2516 
Q 3422 2416 3680 2098 
Q 3938 1781 3938 1306 
Q 3938 681 3513 340 
Q 3088 0 2303 0 
L 628 0 
L 628 4666 
z
" transform="scale(0.015625)"/>
      <path id="DejaVuSans-6b" d="M 581 4863 
L 1159 4863 
L 1159 1991 
L 2875 3500 
L 3609 3500 
L 1753 1863 
L 3688 0 
L 2938 0 
L 1159 1709 
L 1159 0 
L 581 0 
L 581 4863 
z
" transform="scale(0.015625)"/>
     </defs>
     <use xlink:href="#DejaVuSans-42"/>
     <use xlink:href="#DejaVuSans-61" x="68.603516"/>
     <use xlink:href="#DejaVuSans-63" x="129.882812"/>
     <use xlink:href="#DejaVuSans-6b" x="184.863281"/>
     <use xlink:href="#DejaVuSans-62" x="242.773438"/>
     <use xlink:href="#DejaVuSans-6f" x="306.25"/>
     <use xlink:href="#DejaVuSans-6e" x="367.431641"/>
     <use xlink:href="#DejaVuSans-65" x="430.810547"/>
     <use xlink:href="#DejaVuSans-20" x="492.333984"/>
     <use xlink:href="#DejaVuSans-6f" x="524.121094"/>
     <use xlink:href="#DejaVuSans-66" x="585.302734"/>
     <use xlink:href="#DejaVuSans-20" x="620.507812"/>
     <use xlink:href="#DejaVuSans-4c" x="652.294922"/>
     <use xlink:href="#DejaVuSans-65" x="706.257812"/>
     <use xlink:href="#DejaVuSans-75" x="767.78125"/>
     <use xlink:href="#DejaVuSans-32" x="831.160156"/>
     <use xlink:href="#DejaVuSans-34" x="894.783203"/>
     <use xlink:href="#DejaVuSans-36" x="958.40625"/>
    </g>
   </g>
   <g id="text_15">
    <!-- Sidechain of Leu246 -->
    <g transform="translate(160.907405 135.710084) scale(0.06 -0.06)">
     <use xlink:href="#DejaVuSans-53"/>
     <use xlink:href="#DejaVuSans-69" x="63.476562"/>
     <use xlink:href="#DejaVuSans-64" x="91.259766"/>
     <use xlink:href="#DejaVuSans-65" x="154.736328"/>
     <use xlink:href="#DejaVuSans-63" x="216.259766"/>
     <use xlink:href="#DejaVuSans-68" x="271.240234"/>
     <use xlink:href="#DejaVuSans-61" x="334.619141"/>
     <use xlink:href="#DejaVuSans-69" x="395.898438"/>
     <use xlink:href="#DejaVuSans-6e" x="423.681641"/>
     <use xlink:href="#DejaVuSans-20" x="487.060547"/>
     <use xlink:href="#DejaVuSans-6f" x="518.847656"/>
     <use xlink:href="#DejaVuSans-66" x="580.029297"/>
     <use xlink:href="#DejaVuSans-20" x="615.234375"/>
     <use xlink:href="#DejaVuSans-4c" x="647.021484"/>
     <use xlink:href="#DejaVuSans-65" x="700.984375"/>
     <use xlink:href="#DejaVuSans-75" x="762.507812"/>
     <use xlink:href="#DejaVuSans-32" x="825.886719"/>
     <use xlink:href="#DejaVuSans-34" x="889.509766"/>
     <use xlink:href="#DejaVuSans-36" x="953.132812"/>
    </g>
   </g>
   <g id="text_16">
    <!-- Methyl (1) of Leu246 -->
    <g transform="translate(155.289758 139.610895) scale(0.06 -0.06)">
     <defs>
      <path id="DejaVuSans-79" d="M 2059 -325 
Q 1816 -950 1584 -1140 
Q 1353 -1331 966 -1331 
L 506 -1331 
L 506 -850 
L 844 -850 
Q 1081 -850 1212 -737 
Q 1344 -625 1503 -206 
L 1606 56 
L 191 3500 
L 800 3500 
L 1894 763 
L 2988 3500 
L 3597 3500 
L 2059 -325 
z
" transform="scale(0.015625)"/>
      <path id="DejaVuSans-31" d="M 794 531 
L 1825 531 
L 1825 4091 
L 703 3866 
L 703 4441 
L 1819 4666 
L 2450 4666 
L 2450 531 
L 3481 531 
L 3481 0 
L 794 0 
L 794 531 
z
" transform="scale(0.015625)"/>
     </defs>
     <use xlink:href="#DejaVuSans-4d"/>
     <use xlink:href="#DejaVuSans-65" x="86.279297"/>
     <use xlink:href="#DejaVuSans-74" x="147.802734"/>
     <use xlink:href="#DejaVuSans-68" x="187.011719"/>
     <use xlink:href="#DejaVuSans-79" x="250.390625"/>
     <use xlink:href="#DejaVuSans-6c" x="309.570312"/>
     <use xlink:href="#DejaVuSans-20" x="337.353516"/>
     <use xlink:href="#DejaVuSans-28" x="369.140625"/>
     <use xlink:href="#DejaVuSans-31" x="408.154297"/>
     <use xlink:href="#DejaVuSans-29" x="471.777344"/>
     <use xlink:href="#DejaVuSans-20" x="510.791016"/>
     <use xlink:href="#DejaVuSans-6f" x="542.578125"/>
     <use xlink:href="#DejaVuSans-66" x="603.759766"/>
     <use xlink:href="#DejaVuSans-20" x="638.964844"/>
     <use xlink:href="#DejaVuSans-4c" x="670.751953"/>
     <use xlink:href="#DejaVuSans-65" x="724.714844"/>
     <use xlink:href="#DejaVuSans-75" x="786.238281"/>
     <use xlink:href="#DejaVuSans-32" x="849.617188"/>
     <use xlink:href="#DejaVuSans-34" x="913.240234"/>
     <use xlink:href="#DejaVuSans-36" x="976.863281"/>
    </g>
   </g>
   <g id="text_17">
    <!-- Methyl (2) of Leu246 -->
    <g transform="translate(166.85724 123.825355) scale(0.06 -0.06)">
     <use xlink:href="#DejaVuSans-4d"/>
     <use xlink:href="#DejaVuSans-65" x="86.279297"/>
     <use xlink:href="#DejaVuSans-74" x="147.802734"/>
     <use xlink:href="#DejaVuSans-68" x="187.011719"/>
     <use xlink:href="#DejaVuSans-79" x="250.390625"/>
     <use xlink:href="#DejaVuSans-6c" x="309.570312"/>
     <use xlink:href="#DejaVuSans-20" x="337.353516"/>
     <use xlink:href="#DejaVuSans-28" x="369.140625"/>
     <use xlink:href="#DejaVuSans-32" x="408.154297"/>
     <use xlink:href="#DejaVuSans-29" x="471.777344"/>
     <use xlink:href="#DejaVuSans-20" x="510.791016"/>
     <use xlink:href="#DejaVuSans-6f" x="542.578125"/>
     <use xlink:href="#DejaVuSans-66" x="603.759766"/>
     <use xlink:href="#DejaVuSans-20" x="638.964844"/>
     <use xlink:href="#DejaVuSans-4c" x="670.751953"/>
     <use xlink:href="#DejaVuSans-65" x="724.714844"/>
     <use xlink:href="#DejaVuSans-75" x="786.238281"/>
     <use xlink:href="#DejaVuSans-32" x="849.617188"/>
     <use xlink:href="#DejaVuSans-34" x="913.240234"/>
     <use xlink:href="#DejaVuSans-36" x="976.863281"/>
    </g>
   </g>
   <g id="text_18">
    <!-- Isopropyl of Leu246 -->
    <g transform="translate(161.043677 135.602084) scale(0.06 -0.06)">
     <defs>
      <path id="DejaVuSans-49" d="M 628 4666 
L 1259 4666 
L 1259 0 
L 628 0 
L 628 4666 
z
" transform="scale(0.015625)"/>
      <path id="DejaVuSans-70" d="M 1159 525 
L 1159 -1331 
L 581 -1331 
L 581 3500 
L 1159 3500 
L 1159 2969 
Q 1341 3281 1617 3432 
Q 1894 3584 2278 3584 
Q 2916 3584 3314 3078 
Q 3713 2572 3713 1747 
Q 3713 922 3314 415 
Q 2916 -91 2278 -91 
Q 1894 -91 1617 61 
Q 1341 213 1159 525 
z
M 3116 1747 
Q 3116 2381 2855 2742 
Q 2594 3103 2138 3103 
Q 1681 3103 1420 2742 
Q 1159 2381 1159 1747 
Q 1159 1113 1420 752 
Q 1681 391 2138 391 
Q 2594 391 2855 752 
Q 3116 1113 3116 1747 
z
" transform="scale(0.015625)"/>
      <path id="DejaVuSans-72" d="M 2631 2963 
Q 2534 3019 2420 3045 
Q 2306 3072 2169 3072 
Q 1681 3072 1420 2755 
Q 1159 2438 1159 1844 
L 1159 0 
L 581 0 
L 581 3500 
L 1159 3500 
L 1159 2956 
Q 1341 3275 1631 3429 
Q 1922 3584 2338 3584 
Q 2397 3584 2469 3576 
Q 2541 3569 2628 3553 
L 2631 2963 
z
" transform="scale(0.015625)"/>
     </defs>
     <use xlink:href="#DejaVuSans-49"/>
     <use xlink:href="#DejaVuSans-73" x="29.492188"/>
     <use xlink:href="#DejaVuSans-6f" x="81.591797"/>
     <use xlink:href="#DejaVuSans-70" x="142.773438"/>
     <use xlink:href="#DejaVuSans-72" x="206.25"/>
     <use xlink:href="#DejaVuSans-6f" x="245.113281"/>
     <use xlink:href="#DejaVuSans-70" x="306.294922"/>
     <use xlink:href="#DejaVuSans-79" x="369.771484"/>
     <use xlink:href="#DejaVuSans-6c" x="428.951172"/>
     <use xlink:href="#DejaVuSans-20" x="456.734375"/>
     <use xlink:href="#DejaVuSans-6f" x="488.521484"/>
     <use xlink:href="#DejaVuSans-66" x="549.703125"/>
     <use xlink:href="#DejaVuSans-20" x="584.908203"/>
     <use xlink:href="#DejaVuSans-4c" x="616.695312"/>
     <use xlink:href="#DejaVuSans-65" x="670.658203"/>
     <use xlink:href="#DejaVuSans-75" x="732.181641"/>
     <use xlink:href="#DejaVuSans-32" x="795.560547"/>
     <use xlink:href="#DejaVuSans-34" x="859.183594"/>
     <use xlink:href="#DejaVuSans-36" x="922.806641"/>
    </g>
   </g>
   <g id="text_19">
    <!-- Isobutyl of Leu246 -->
    <g transform="translate(160.65117 135.124019) scale(0.06 -0.06)">
     <use xlink:href="#DejaVuSans-49"/>
     <use xlink:href="#DejaVuSans-73" x="29.492188"/>
     <use xlink:href="#DejaVuSans-6f" x="81.591797"/>
     <use xlink:href="#DejaVuSans-62" x="142.773438"/>
     <use xlink:href="#DejaVuSans-75" x="206.25"/>
     <use xlink:href="#DejaVuSans-74" x="269.628906"/>
     <use xlink:href="#DejaVuSans-79" x="308.837891"/>
     <use xlink:href="#DejaVuSans-6c" x="368.017578"/>
     <use xlink:href="#DejaVuSans-20" x="395.800781"/>
     <use xlink:href="#DejaVuSans-6f" x="427.587891"/>
     <use xlink:href="#DejaVuSans-66" x="488.769531"/>
     <use xlink:href="#DejaVuSans-20" x="523.974609"/>
     <use xlink:href="#DejaVuSans-4c" x="555.761719"/>
     <use xlink:href="#DejaVuSans-65" x="609.724609"/>
     <use xlink:href="#DejaVuSans-75" x="671.248047"/>
     <use xlink:href="#DejaVuSans-32" x="734.626953"/>
     <use xlink:href="#DejaVuSans-34" x="798.25"/>
     <use xlink:href="#DejaVuSans-36" x="861.873047"/>
    </g>
   </g>
   <g id="text_20">
    <!-- All of Met250 -->
    <g transform="translate(154.509786 128.241026) scale(0.06 -0.06)">
     <defs>
      <path id="DejaVuSans-35" d="M 691 4666 
L 3169 4666 
L 3169 4134 
L 1269 4134 
L 1269 2991 
Q 1406 3038 1543 3061 
Q 1681 3084 1819 3084 
Q 2600 3084 3056 2656 
Q 3513 2228 3513 1497 
Q 3513 744 3044 326 
Q 2575 -91 1722 -91 
Q 1428 -91 1123 -41 
Q 819 9 494 109 
L 494 744 
Q 775 591 1075 516 
Q 1375 441 1709 441 
Q 2250 441 2565 725 
Q 2881 1009 2881 1497 
Q 2881 1984 2565 2268 
Q 2250 2553 1709 2553 
Q 1456 2553 1204 2497 
Q 953 2441 691 2322 
L 691 4666 
z
" transform="scale(0.015625)"/>
     </defs>
     <use xlink:href="#DejaVuSans-41"/>
     <use xlink:href="#DejaVuSans-6c" x="68.408203"/>
     <use xlink:href="#DejaVuSans-6c" x="96.191406"/>
     <use xlink:href="#DejaVuSans-20" x="123.974609"/>
     <use xlink:href="#DejaVuSans-6f" x="155.761719"/>
     <use xlink:href="#DejaVuSans-66" x="216.943359"/>
     <use xlink:href="#DejaVuSans-20" x="252.148438"/>
     <use xlink:href="#DejaVuSans-4d" x="283.935547"/>
     <use xlink:href="#DejaVuSans-65" x="370.214844"/>
     <use xlink:href="#DejaVuSans-74" x="431.738281"/>
     <use xlink:href="#DejaVuSans-32" x="470.947266"/>
     <use xlink:href="#DejaVuSans-35" x="534.570312"/>
     <use xlink:href="#DejaVuSans-30" x="598.193359"/>
    </g>
   </g>
   <g id="text_21">
    <!-- Backbone of Met250 -->
    <g transform="translate(164.112864 119.786304) scale(0.06 -0.06)">
     <use xlink:href="#DejaVuSans-42"/>
     <use xlink:href="#DejaVuSans-61" x="68.603516"/>
     <use xlink:href="#DejaVuSans-63" x="129.882812"/>
     <use xlink:href="#DejaVuSans-6b" x="184.863281"/>
     <use xlink:href="#DejaVuSans-62" x="242.773438"/>
     <use xlink:href="#DejaVuSans-6f" x="306.25"/>
     <use xlink:href="#DejaVuSans-6e" x="367.431641"/>
     <use xlink:href="#DejaVuSans-65" x="430.810547"/>
     <use xlink:href="#DejaVuSans-20" x="492.333984"/>
     <use xlink:href="#DejaVuSans-6f" x="524.121094"/>
     <use xlink:href="#DejaVuSans-66" x="585.302734"/>
     <use xlink:href="#DejaVuSans-20" x="620.507812"/>
     <use xlink:href="#DejaVuSans-4d" x="652.294922"/>
     <use xlink:href="#DejaVuSans-65" x="738.574219"/>
     <use xlink:href="#DejaVuSans-74" x="800.097656"/>
     <use xlink:href="#DejaVuSans-32" x="839.306641"/>
     <use xlink:href="#DejaVuSans-35" x="902.929688"/>
     <use xlink:href="#DejaVuSans-30" x="966.552734"/>
    </g>
   </g>
   <g id="text_22">
    <!-- Sidechain of Met250 -->
    <g transform="translate(150.983125 99.606961) scale(0.06 -0.06)">
     <use xlink:href="#DejaVuSans-53"/>
     <use xlink:href="#DejaVuSans-69" x="63.476562"/>
     <use xlink:href="#DejaVuSans-64" x="91.259766"/>
     <use xlink:href="#DejaVuSans-65" x="154.736328"/>
     <use xlink:href="#DejaVuSans-63" x="216.259766"/>
     <use xlink:href="#DejaVuSans-68" x="271.240234"/>
     <use xlink:href="#DejaVuSans-61" x="334.619141"/>
     <use xlink:href="#DejaVuSans-69" x="395.898438"/>
     <use xlink:href="#DejaVuSans-6e" x="423.681641"/>
     <use xlink:href="#DejaVuSans-20" x="487.060547"/>
     <use xlink:href="#DejaVuSans-6f" x="518.847656"/>
     <use xlink:href="#DejaVuSans-66" x="580.029297"/>
     <use xlink:href="#DejaVuSans-20" x="615.234375"/>
     <use xlink:href="#DejaVuSans-4d" x="647.021484"/>
     <use xlink:href="#DejaVuSans-65" x="733.300781"/>
     <use xlink:href="#DejaVuSans-74" x="794.824219"/>
     <use xlink:href="#DejaVuSans-32" x="834.033203"/>
     <use xlink:href="#DejaVuSans-35" x="897.65625"/>
     <use xlink:href="#DejaVuSans-30" x="961.279297"/>
    </g>
   </g>
   <g id="text_23">
    <!-- Thioether of Met250 -->
    <g transform="translate(147.46864 100.062918) scale(0.06 -0.06)">
     <defs>
      <path id="DejaVuSans-54" d="M -19 4666 
L 3928 4666 
L 3928 4134 
L 2272 4134 
L 2272 0 
L 1638 0 
L 1638 4134 
L -19 4134 
L -19 4666 
z
" transform="scale(0.015625)"/>
     </defs>
     <use xlink:href="#DejaVuSans-54"/>
     <use xlink:href="#DejaVuSans-68" x="61.083984"/>
     <use xlink:href="#DejaVuSans-69" x="124.462891"/>
     <use xlink:href="#DejaVuSans-6f" x="152.246094"/>
     <use xlink:href="#DejaVuSans-65" x="213.427734"/>
     <use xlink:href="#DejaVuSans-74" x="274.951172"/>
     <use xlink:href="#DejaVuSans-68" x="314.160156"/>
     <use xlink:href="#DejaVuSans-65" x="377.539062"/>
     <use xlink:href="#DejaVuSans-72" x="439.0625"/>
     <use xlink:href="#DejaVuSans-20" x="480.175781"/>
     <use xlink:href="#DejaVuSans-6f" x="511.962891"/>
     <use xlink:href="#DejaVuSans-66" x="573.144531"/>
     <use xlink:href="#DejaVuSans-20" x="608.349609"/>
     <use xlink:href="#DejaVuSans-4d" x="640.136719"/>
     <use xlink:href="#DejaVuSans-65" x="726.416016"/>
     <use xlink:href="#DejaVuSans-74" x="787.939453"/>
     <use xlink:href="#DejaVuSans-32" x="827.148438"/>
     <use xlink:href="#DejaVuSans-35" x="890.771484"/>
     <use xlink:href="#DejaVuSans-30" x="954.394531"/>
    </g>
   </g>
   <g id="text_24">
    <!-- Methyl of Met250 -->
    <g transform="translate(151.088252 126.470915) scale(0.06 -0.06)">
     <use xlink:href="#DejaVuSans-4d"/>
     <use xlink:href="#DejaVuSans-65" x="86.279297"/>
     <use xlink:href="#DejaVuSans-74" x="147.802734"/>
     <use xlink:href="#DejaVuSans-68" x="187.011719"/>
     <use xlink:href="#DejaVuSans-79" x="250.390625"/>
     <use xlink:href="#DejaVuSans-6c" x="309.570312"/>
     <use xlink:href="#DejaVuSans-20" x="337.353516"/>
     <use xlink:href="#DejaVuSans-6f" x="369.140625"/>
     <use xlink:href="#DejaVuSans-66" x="430.322266"/>
     <use xlink:href="#DejaVuSans-20" x="465.527344"/>
     <use xlink:href="#DejaVuSans-4d" x="497.314453"/>
     <use xlink:href="#DejaVuSans-65" x="583.59375"/>
     <use xlink:href="#DejaVuSans-74" x="645.117188"/>
     <use xlink:href="#DejaVuSans-32" x="684.326172"/>
     <use xlink:href="#DejaVuSans-35" x="747.949219"/>
     <use xlink:href="#DejaVuSans-30" x="811.572266"/>
    </g>
   </g>
   <g id="text_25">
    <!-- Methyl thioether of Met250 -->
    <g transform="translate(147.750199 99.578338) scale(0.06 -0.06)">
     <use xlink:href="#DejaVuSans-4d"/>
     <use xlink:href="#DejaVuSans-65" x="86.279297"/>
     <use xlink:href="#DejaVuSans-74" x="147.802734"/>
     <use xlink:href="#DejaVuSans-68" x="187.011719"/>
     <use xlink:href="#DejaVuSans-79" x="250.390625"/>
     <use xlink:href="#DejaVuSans-6c" x="309.570312"/>
     <use xlink:href="#DejaVuSans-20" x="337.353516"/>
     <use xlink:href="#DejaVuSans-74" x="369.140625"/>
     <use xlink:href="#DejaVuSans-68" x="408.349609"/>
     <use xlink:href="#DejaVuSans-69" x="471.728516"/>
     <use xlink:href="#DejaVuSans-6f" x="499.511719"/>
     <use xlink:href="#DejaVuSans-65" x="560.693359"/>
     <use xlink:href="#DejaVuSans-74" x="622.216797"/>
     <use xlink:href="#DejaVuSans-68" x="661.425781"/>
     <use xlink:href="#DejaVuSans-65" x="724.804688"/>
     <use xlink:href="#DejaVuSans-72" x="786.328125"/>
     <use xlink:href="#DejaVuSans-20" x="827.441406"/>
     <use xlink:href="#DejaVuSans-6f" x="859.228516"/>
     <use xlink:href="#DejaVuSans-66" x="920.410156"/>
     <use xlink:href="#DejaVuSans-20" x="955.615234"/>
     <use xlink:href="#DejaVuSans-4d" x="987.402344"/>
     <use xlink:href="#DejaVuSans-65" x="1073.681641"/>
     <use xlink:href="#DejaVuSans-74" x="1135.205078"/>
     <use xlink:href="#DejaVuSans-32" x="1174.414062"/>
     <use xlink:href="#DejaVuSans-35" x="1238.037109"/>
     <use xlink:href="#DejaVuSans-30" x="1301.660156"/>
    </g>
   </g>
   <g id="text_26">
    <!-- Linker of Met250 -->
    <g transform="translate(157.041508 154.348791) scale(0.06 -0.06)">
     <use xlink:href="#DejaVuSans-4c"/>
     <use xlink:href="#DejaVuSans-69" x="55.712891"/>
     <use xlink:href="#DejaVuSans-6e" x="83.496094"/>
     <use xlink:href="#DejaVuSans-6b" x="146.875"/>
     <use xlink:href="#DejaVuSans-65" x="201.160156"/>
     <use xlink:href="#DejaVuSans-72" x="262.683594"/>
     <use xlink:href="#DejaVuSans-20" x="303.796875"/>
     <use xlink:href="#DejaVuSans-6f" x="335.583984"/>
     <use xlink:href="#DejaVuSans-66" x="396.765625"/>
     <use xlink:href="#DejaVuSans-20" x="431.970703"/>
     <use xlink:href="#DejaVuSans-4d" x="463.757812"/>
     <use xlink:href="#DejaVuSans-65" x="550.037109"/>
     <use xlink:href="#DejaVuSans-74" x="611.560547"/>
     <use xlink:href="#DejaVuSans-32" x="650.769531"/>
     <use xlink:href="#DejaVuSans-35" x="714.392578"/>
     <use xlink:href="#DejaVuSans-30" x="778.015625"/>
    </g>
   </g>
   <g id="text_27">
    <!-- All of Phe270 -->
    <g transform="translate(138.074113 56.991192) scale(0.06 -0.06)">
     <defs>
      <path id="DejaVuSans-50" d="M 1259 4147 
L 1259 2394 
L 2053 2394 
Q 2494 2394 2734 2622 
Q 2975 2850 2975 3272 
Q 2975 3691 2734 3919 
Q 2494 4147 2053 4147 
L 1259 4147 
z
M 628 4666 
L 2053 4666 
Q 2838 4666 3239 4311 
Q 3641 3956 3641 3272 
Q 3641 2581 3239 2228 
Q 2838 1875 2053 1875 
L 1259 1875 
L 1259 0 
L 628 0 
L 628 4666 
z
" transform="scale(0.015625)"/>
      <path id="DejaVuSans-37" d="M 525 4666 
L 3525 4666 
L 3525 4397 
L 1831 0 
L 1172 0 
L 2766 4134 
L 525 4134 
L 525 4666 
z
" transform="scale(0.015625)"/>
     </defs>
     <use xlink:href="#DejaVuSans-41"/>
     <use xlink:href="#DejaVuSans-6c" x="68.408203"/>
     <use xlink:href="#DejaVuSans-6c" x="96.191406"/>
     <use xlink:href="#DejaVuSans-20" x="123.974609"/>
     <use xlink:href="#DejaVuSans-6f" x="155.761719"/>
     <use xlink:href="#DejaVuSans-66" x="216.943359"/>
     <use xlink:href="#DejaVuSans-20" x="252.148438"/>
     <use xlink:href="#DejaVuSans-50" x="283.935547"/>
     <use xlink:href="#DejaVuSans-68" x="344.238281"/>
     <use xlink:href="#DejaVuSans-65" x="407.617188"/>
     <use xlink:href="#DejaVuSans-32" x="469.140625"/>
     <use xlink:href="#DejaVuSans-37" x="532.763672"/>
     <use xlink:href="#DejaVuSans-30" x="596.386719"/>
    </g>
   </g>
   <g id="text_28">
    <!-- Backbone of Phe270 -->
    <g transform="translate(125.283438 48.410558) scale(0.06 -0.06)">
     <use xlink:href="#DejaVuSans-42"/>
     <use xlink:href="#DejaVuSans-61" x="68.603516"/>
     <use xlink:href="#DejaVuSans-63" x="129.882812"/>
     <use xlink:href="#DejaVuSans-6b" x="184.863281"/>
     <use xlink:href="#DejaVuSans-62" x="242.773438"/>
     <use xlink:href="#DejaVuSans-6f" x="306.25"/>
     <use xlink:href="#DejaVuSans-6e" x="367.431641"/>
     <use xlink:href="#DejaVuSans-65" x="430.810547"/>
     <use xlink:href="#DejaVuSans-20" x="492.333984"/>
     <use xlink:href="#DejaVuSans-6f" x="524.121094"/>
     <use xlink:href="#DejaVuSans-66" x="585.302734"/>
     <use xlink:href="#DejaVuSans-20" x="620.507812"/>
     <use xlink:href="#DejaVuSans-50" x="652.294922"/>
     <use xlink:href="#DejaVuSans-68" x="712.597656"/>
     <use xlink:href="#DejaVuSans-65" x="775.976562"/>
     <use xlink:href="#DejaVuSans-32" x="837.5"/>
     <use xlink:href="#DejaVuSans-37" x="901.123047"/>
     <use xlink:href="#DejaVuSans-30" x="964.746094"/>
    </g>
   </g>
   <g id="text_29">
    <!-- Sidechain of Phe270 -->
    <g transform="translate(149.32784 86.166375) scale(0.06 -0.06)">
     <use xlink:href="#DejaVuSans-53"/>
     <use xlink:href="#DejaVuSans-69" x="63.476562"/>
     <use xlink:href="#DejaVuSans-64" x="91.259766"/>
     <use xlink:href="#DejaVuSans-65" x="154.736328"/>
     <use xlink:href="#DejaVuSans-63" x="216.259766"/>
     <use xlink:href="#DejaVuSans-68" x="271.240234"/>
     <use xlink:href="#DejaVuSans-61" x="334.619141"/>
     <use xlink:href="#DejaVuSans-69" x="395.898438"/>
     <use xlink:href="#DejaVuSans-6e" x="423.681641"/>
     <use xlink:href="#DejaVuSans-20" x="487.060547"/>
     <use xlink:href="#DejaVuSans-6f" x="518.847656"/>
     <use xlink:href="#DejaVuSans-66" x="580.029297"/>
     <use xlink:href="#DejaVuSans-20" x="615.234375"/>
     <use xlink:href="#DejaVuSans-50" x="647.021484"/>
     <use xlink:href="#DejaVuSans-68" x="707.324219"/>
     <use xlink:href="#DejaVuSans-65" x="770.703125"/>
     <use xlink:href="#DejaVuSans-32" x="832.226562"/>
     <use xlink:href="#DejaVuSans-37" x="895.849609"/>
     <use xlink:href="#DejaVuSans-30" x="959.472656"/>
    </g>
   </g>
   <g id="text_30">
    <!-- Phenyl of Phe270 -->
    <g transform="translate(152.927278 114.216777) scale(0.06 -0.06)">
     <use xlink:href="#DejaVuSans-50"/>
     <use xlink:href="#DejaVuSans-68" x="60.302734"/>
     <use xlink:href="#DejaVuSans-65" x="123.681641"/>
     <use xlink:href="#DejaVuSans-6e" x="185.205078"/>
     <use xlink:href="#DejaVuSans-79" x="248.583984"/>
     <use xlink:href="#DejaVuSans-6c" x="307.763672"/>
     <use xlink:href="#DejaVuSans-20" x="335.546875"/>
     <use xlink:href="#DejaVuSans-6f" x="367.333984"/>
     <use xlink:href="#DejaVuSans-66" x="428.515625"/>
     <use xlink:href="#DejaVuSans-20" x="463.720703"/>
     <use xlink:href="#DejaVuSans-50" x="495.507812"/>
     <use xlink:href="#DejaVuSans-68" x="555.810547"/>
     <use xlink:href="#DejaVuSans-65" x="619.189453"/>
     <use xlink:href="#DejaVuSans-32" x="680.712891"/>
     <use xlink:href="#DejaVuSans-37" x="744.335938"/>
     <use xlink:href="#DejaVuSans-30" x="807.958984"/>
    </g>
   </g>
   <g id="text_31">
    <!-- Benzyl of Phe270 -->
    <g transform="translate(149.964971 90.78153) scale(0.06 -0.06)">
     <defs>
      <path id="DejaVuSans-7a" d="M 353 3500 
L 3084 3500 
L 3084 2975 
L 922 459 
L 3084 459 
L 3084 0 
L 275 0 
L 275 525 
L 2438 3041 
L 353 3041 
L 353 3500 
z
" transform="scale(0.015625)"/>
     </defs>
     <use xlink:href="#DejaVuSans-42"/>
     <use xlink:href="#DejaVuSans-65" x="68.603516"/>
     <use xlink:href="#DejaVuSans-6e" x="130.126953"/>
     <use xlink:href="#DejaVuSans-7a" x="193.505859"/>
     <use xlink:href="#DejaVuSans-79" x="245.996094"/>
     <use xlink:href="#DejaVuSans-6c" x="305.175781"/>
     <use xlink:href="#DejaVuSans-20" x="332.958984"/>
     <use xlink:href="#DejaVuSans-6f" x="364.746094"/>
     <use xlink:href="#DejaVuSans-66" x="425.927734"/>
     <use xlink:href="#DejaVuSans-20" x="461.132812"/>
     <use xlink:href="#DejaVuSans-50" x="492.919922"/>
     <use xlink:href="#DejaVuSans-68" x="553.222656"/>
     <use xlink:href="#DejaVuSans-65" x="616.601562"/>
     <use xlink:href="#DejaVuSans-32" x="678.125"/>
     <use xlink:href="#DejaVuSans-37" x="741.748047"/>
     <use xlink:href="#DejaVuSans-30" x="805.371094"/>
    </g>
   </g>
  </g>
 </g>
 <defs>
  <clipPath id="p249b7fd42f">
   <rect x="47.81" y="10.8" width="221.2" height="163.24"/>
  </clipPath>
 </defs>
</svg>
