<?xml version="1.0" encoding="utf-8" standalone="no"?>
<!DOCTYPE svg PUBLIC "-//W3C//DTD SVG 1.1//EN"
  "http://www.w3.org/Graphics/SVG/1.1/DTD/svg11.dtd">
<svg xmlns:xlink="http://www.w3.org/1999/xlink" width="216pt" height="108pt" viewBox="0 0 216 108" xmlns="http://www.w3.org/2000/svg" version="1.1">
 <metadata>
  <rdf:RDF xmlns:dc="http://purl.org/dc/elements/1.1/" xmlns:cc="http://creativecommons.org/ns#" xmlns:rdf="http://www.w3.org/1999/02/22-rdf-syntax-ns#">
   <cc:Work>
    <dc:type rdf:resource="http://purl.org/dc/dcmitype/StillImage"/>
    <dc:date>2024-09-23T18:02:16.532568</dc:date>
    <dc:format>image/svg+xml</dc:format>
    <dc:creator>
     <cc:Agent>
      <dc:title>Matplotlib v3.9.2, https://matplotlib.org/</dc:title>
     </cc:Agent>
    </dc:creator>
   </cc:Work>
  </rdf:RDF>
 </metadata>
 <defs>
  <style type="text/css">*{stroke-linejoin: round; stroke-linecap: butt}</style>
 </defs>
 <g id="figure_1">
  <g id="patch_1">
   <path d="M 0 108 
L 216 108 
L 216 0 
L 0 0 
z
" style="fill: #ffffff"/>
  </g>
  <g id="axes_1">
   <g id="patch_2">
    <path d="M 10.8 80.12 
L 193.815 80.12 
L 193.815 10.8 
L 10.8 10.8 
z
" style="fill: #ffffff"/>
   </g>
   <g id="patch_3">
    <path d="M -119.925 80.12 
L -114.696 80.12 
L -114.696 80.12 
L -119.925 80.12 
z
" clip-path="url(#pfd9d63722e)" style="fill: #dc706b; opacity: 0.6"/>
   </g>
   <g id="patch_4">
    <path d="M -114.696 80.12 
L -109.467 80.12 
L -109.467 80.12 
L -114.696 80.12 
z
" clip-path="url(#pfd9d63722e)" style="fill: #dc706b; opacity: 0.6"/>
   </g>
   <g id="patch_5">
    <path d="M -109.467 80.12 
L -104.238 80.12 
L -104.238 80.12 
L -109.467 80.12 
z
" clip-path="url(#pfd9d63722e)" style="fill: #dc706b; opacity: 0.6"/>
   </g>
   <g id="patch_6">
    <path d="M -104.238 80.12 
L -99.009 80.12 
L -99.009 80.12 
L -104.238 80.12 
z
" clip-path="url(#pfd9d63722e)" style="fill: #dc706b; opacity: 0.6"/>
   </g>
   <g id="patch_7">
    <path d="M -99.009 80.12 
L -93.78 80.12 
L -93.78 80.12 
L -99.009 80.12 
z
" clip-path="url(#pfd9d63722e)" style="fill: #dc706b; opacity: 0.6"/>
   </g>
   <g id="patch_8">
    <path d="M -93.78 80.12 
L -88.551 80.12 
L -88.551 80.12 
L -93.78 80.12 
z
" clip-path="url(#pfd9d63722e)" style="fill: #dc706b; opacity: 0.6"/>
   </g>
   <g id="patch_9">
    <path d="M -88.551 80.12 
L -83.322 80.12 
L -83.322 80.12 
L -88.551 80.12 
z
" clip-path="url(#pfd9d63722e)" style="fill: #dc706b; opacity: 0.6"/>
   </g>
   <g id="patch_10">
    <path d="M -83.322 80.12 
L -78.093 80.12 
L -78.093 80.12 
L -83.322 80.12 
z
" clip-path="url(#pfd9d63722e)" style="fill: #dc706b; opacity: 0.6"/>
   </g>
   <g id="patch_11">
    <path d="M -78.093 80.12 
L -72.864 80.12 
L -72.864 80.12 
L -78.093 80.12 
z
" clip-path="url(#pfd9d63722e)" style="fill: #dc706b; opacity: 0.6"/>
   </g>
   <g id="patch_12">
    <path d="M -72.864 80.12 
L -67.635 80.12 
L -67.635 80.12 
L -72.864 80.12 
z
" clip-path="url(#pfd9d63722e)" style="fill: #dc706b; opacity: 0.6"/>
   </g>
   <g id="patch_13">
    <path d="M -67.635 80.12 
L -62.406 80.12 
L -62.406 80.12 
L -67.635 80.12 
z
" clip-path="url(#pfd9d63722e)" style="fill: #dc706b; opacity: 0.6"/>
   </g>
   <g id="patch_14">
    <path d="M -62.406 80.12 
L -57.177 80.12 
L -57.177 80.12 
L -62.406 80.12 
z
" clip-path="url(#pfd9d63722e)" style="fill: #dc706b; opacity: 0.6"/>
   </g>
   <g id="patch_15">
    <path d="M -57.177 80.12 
L -51.948 80.12 
L -51.948 80.12 
L -57.177 80.12 
z
" clip-path="url(#pfd9d63722e)" style="fill: #dc706b; opacity: 0.6"/>
   </g>
   <g id="patch_16">
    <path d="M -51.948 80.12 
L -46.719 80.12 
L -46.719 80.12 
L -51.948 80.12 
z
" clip-path="url(#pfd9d63722e)" style="fill: #dc706b; opacity: 0.6"/>
   </g>
   <g id="patch_17">
    <path d="M -46.719 80.12 
L -41.49 80.12 
L -41.49 80.12 
L -46.719 80.12 
z
" clip-path="url(#pfd9d63722e)" style="fill: #dc706b; opacity: 0.6"/>
   </g>
   <g id="patch_18">
    <path d="M -41.49 80.12 
L -36.261 80.12 
L -36.261 80.12 
L -41.49 80.12 
z
" clip-path="url(#pfd9d63722e)" style="fill: #dc706b; opacity: 0.6"/>
   </g>
   <g id="patch_19">
    <path d="M -36.261 80.12 
L -31.032 80.12 
L -31.032 80.12 
L -36.261 80.12 
z
" clip-path="url(#pfd9d63722e)" style="fill: #dc706b; opacity: 0.6"/>
   </g>
   <g id="patch_20">
    <path d="M -31.032 80.12 
L -25.803 80.12 
L -25.803 80.12 
L -31.032 80.12 
z
" clip-path="url(#pfd9d63722e)" style="fill: #dc706b; opacity: 0.6"/>
   </g>
   <g id="patch_21">
    <path d="M -25.803 80.12 
L -20.574 80.12 
L -20.574 80.12 
L -25.803 80.12 
z
" clip-path="url(#pfd9d63722e)" style="fill: #dc706b; opacity: 0.6"/>
   </g>
   <g id="patch_22">
    <path d="M -20.574 80.12 
L -15.345 80.12 
L -15.345 80.12 
L -20.574 80.12 
z
" clip-path="url(#pfd9d63722e)" style="fill: #dc706b; opacity: 0.6"/>
   </g>
   <g id="patch_23">
    <path d="M -15.345 80.12 
L -10.116 80.12 
L -10.116 80.12 
L -15.345 80.12 
z
" clip-path="url(#pfd9d63722e)" style="fill: #dc706b; opacity: 0.6"/>
   </g>
   <g id="patch_24">
    <path d="M -10.116 80.12 
L -4.887 80.12 
L -4.887 80.12 
L -10.116 80.12 
z
" clip-path="url(#pfd9d63722e)" style="fill: #dc706b; opacity: 0.6"/>
   </g>
   <g id="patch_25">
    <path d="M -4.887 80.12 
L 0.342 80.12 
L 0.342 80.12 
L -4.887 80.12 
z
" clip-path="url(#pfd9d63722e)" style="fill: #dc706b; opacity: 0.6"/>
   </g>
   <g id="patch_26">
    <path d="M 0.342 80.12 
L 5.571 80.12 
L 5.571 80.12 
L 0.342 80.12 
z
" clip-path="url(#pfd9d63722e)" style="fill: #dc706b; opacity: 0.6"/>
   </g>
   <g id="patch_27">
    <path d="M 5.571 80.12 
L 10.8 80.12 
L 10.8 80.12 
L 5.571 80.12 
z
" clip-path="url(#pfd9d63722e)" style="fill: #dc706b; opacity: 0.6"/>
   </g>
   <g id="patch_28">
    <path d="M 10.8 80.12 
L 16.029 80.12 
L 16.029 80.12 
L 10.8 80.12 
z
" clip-path="url(#pfd9d63722e)" style="fill: #dc706b; opacity: 0.6"/>
   </g>
   <g id="patch_29">
    <path d="M 16.029 80.12 
L 21.258 80.12 
L 21.258 80.066833 
L 16.029 80.066833 
z
" clip-path="url(#pfd9d63722e)" style="fill: #dc706b; opacity: 0.6"/>
   </g>
   <g id="patch_30">
    <path d="M 21.258 80.12 
L 26.487 80.12 
L 26.487 79.854166 
L 21.258 79.854166 
z
" clip-path="url(#pfd9d63722e)" style="fill: #dc706b; opacity: 0.6"/>
   </g>
   <g id="patch_31">
    <path d="M 26.487 80.12 
L 31.716 80.12 
L 31.716 79.242748 
L 26.487 79.242748 
z
" clip-path="url(#pfd9d63722e)" style="fill: #dc706b; opacity: 0.6"/>
   </g>
   <g id="patch_32">
    <path d="M 31.716 80.12 
L 36.945 80.12 
L 36.945 78.099662 
L 31.716 78.099662 
z
" clip-path="url(#pfd9d63722e)" style="fill: #dc706b; opacity: 0.6"/>
   </g>
   <g id="patch_33">
    <path d="M 36.945 80.12 
L 42.174 80.12 
L 42.174 75.893241 
L 36.945 75.893241 
z
" clip-path="url(#pfd9d63722e)" style="fill: #dc706b; opacity: 0.6"/>
   </g>
   <g id="patch_34">
    <path d="M 42.174 80.12 
L 47.403 80.12 
L 47.403 71.905732 
L 42.174 71.905732 
z
" clip-path="url(#pfd9d63722e)" style="fill: #dc706b; opacity: 0.6"/>
   </g>
   <g id="patch_35">
    <path d="M 47.403 80.12 
L 52.632 80.12 
L 52.632 66.32322 
L 47.403 66.32322 
z
" clip-path="url(#pfd9d63722e)" style="fill: #dc706b; opacity: 0.6"/>
   </g>
   <g id="patch_36">
    <path d="M 52.632 80.12 
L 57.861 80.12 
L 57.861 60.581208 
L 52.632 60.581208 
z
" clip-path="url(#pfd9d63722e)" style="fill: #dc706b; opacity: 0.6"/>
   </g>
   <g id="patch_37">
    <path d="M 57.861 80.12 
L 63.09 80.12 
L 63.09 60.04954 
L 57.861 60.04954 
z
" clip-path="url(#pfd9d63722e)" style="fill: #dc706b; opacity: 0.6"/>
   </g>
   <g id="patch_38">
    <path d="M 63.09 80.12 
L 68.319 80.12 
L 68.319 63.505381 
L 63.09 63.505381 
z
" clip-path="url(#pfd9d63722e)" style="fill: #dc706b; opacity: 0.6"/>
   </g>
   <g id="patch_39">
    <path d="M 68.319 80.12 
L 73.548 80.12 
L 73.548 67.040972 
L 68.319 67.040972 
z
" clip-path="url(#pfd9d63722e)" style="fill: #dc706b; opacity: 0.6"/>
   </g>
   <g id="patch_40">
    <path d="M 73.548 80.12 
L 78.777 80.12 
L 78.777 69.938561 
L 73.548 69.938561 
z
" clip-path="url(#pfd9d63722e)" style="fill: #dc706b; opacity: 0.6"/>
   </g>
   <g id="patch_41">
    <path d="M 78.777 80.12 
L 84.006 80.12 
L 84.006 69.06131 
L 78.777 69.06131 
z
" clip-path="url(#pfd9d63722e)" style="fill: #dc706b; opacity: 0.6"/>
   </g>
   <g id="patch_42">
    <path d="M 84.006 80.12 
L 89.235 80.12 
L 89.235 69.858811 
L 84.006 69.858811 
z
" clip-path="url(#pfd9d63722e)" style="fill: #dc706b; opacity: 0.6"/>
   </g>
   <g id="patch_43">
    <path d="M 89.235 80.12 
L 94.464 80.12 
L 94.464 74.377988 
L 89.235 74.377988 
z
" clip-path="url(#pfd9d63722e)" style="fill: #dc706b; opacity: 0.6"/>
   </g>
   <g id="patch_44">
    <path d="M 94.464 80.12 
L 99.693 80.12 
L 99.693 76.610992 
L 94.464 76.610992 
z
" clip-path="url(#pfd9d63722e)" style="fill: #dc706b; opacity: 0.6"/>
   </g>
   <g id="patch_45">
    <path d="M 99.693 80.12 
L 104.922 80.12 
L 104.922 77.621161 
L 99.693 77.621161 
z
" clip-path="url(#pfd9d63722e)" style="fill: #dc706b; opacity: 0.6"/>
   </g>
   <g id="patch_46">
    <path d="M 104.922 80.12 
L 110.151 80.12 
L 110.151 76.291992 
L 104.922 76.291992 
z
" clip-path="url(#pfd9d63722e)" style="fill: #dc706b; opacity: 0.6"/>
   </g>
   <g id="patch_47">
    <path d="M 110.151 80.12 
L 115.38 80.12 
L 115.38 74.537488 
L 110.151 74.537488 
z
" clip-path="url(#pfd9d63722e)" style="fill: #dc706b; opacity: 0.6"/>
   </g>
   <g id="patch_48">
    <path d="M 115.38 80.12 
L 120.609 80.12 
L 120.609 72.35765 
L 115.38 72.35765 
z
" clip-path="url(#pfd9d63722e)" style="fill: #dc706b; opacity: 0.6"/>
   </g>
   <g id="patch_49">
    <path d="M 120.609 80.12 
L 125.838 80.12 
L 125.838 69.087893 
L 120.609 69.087893 
z
" clip-path="url(#pfd9d63722e)" style="fill: #dc706b; opacity: 0.6"/>
   </g>
   <g id="patch_50">
    <path d="M 125.838 80.12 
L 131.067 80.12 
L 131.067 64.5953 
L 125.838 64.5953 
z
" clip-path="url(#pfd9d63722e)" style="fill: #dc706b; opacity: 0.6"/>
   </g>
   <g id="patch_51">
    <path d="M 131.067 80.12 
L 136.296 80.12 
L 136.296 61.644544 
L 131.067 61.644544 
z
" clip-path="url(#pfd9d63722e)" style="fill: #dc706b; opacity: 0.6"/>
   </g>
   <g id="patch_52">
    <path d="M 136.296 80.12 
L 141.525 80.12 
L 141.525 64.807967 
L 136.296 64.807967 
z
" clip-path="url(#pfd9d63722e)" style="fill: #dc706b; opacity: 0.6"/>
   </g>
   <g id="patch_53">
    <path d="M 141.525 80.12 
L 146.754 80.12 
L 146.754 67.466306 
L 141.525 67.466306 
z
" clip-path="url(#pfd9d63722e)" style="fill: #dc706b; opacity: 0.6"/>
   </g>
   <g id="patch_54">
    <path d="M 146.754 80.12 
L 151.983 80.12 
L 151.983 71.081647 
L 146.754 71.081647 
z
" clip-path="url(#pfd9d63722e)" style="fill: #dc706b; opacity: 0.6"/>
   </g>
   <g id="patch_55">
    <path d="M 151.983 80.12 
L 157.212 80.12 
L 157.212 72.2779 
L 151.983 72.2779 
z
" clip-path="url(#pfd9d63722e)" style="fill: #dc706b; opacity: 0.6"/>
   </g>
   <g id="patch_56">
    <path d="M 157.212 80.12 
L 162.441 80.12 
L 162.441 73.580486 
L 157.212 73.580486 
z
" clip-path="url(#pfd9d63722e)" style="fill: #dc706b; opacity: 0.6"/>
   </g>
   <g id="patch_57">
    <path d="M 162.441 80.12 
L 167.67 80.12 
L 167.67 75.547657 
L 162.441 75.547657 
z
" clip-path="url(#pfd9d63722e)" style="fill: #dc706b; opacity: 0.6"/>
   </g>
   <g id="patch_58">
    <path d="M 167.67 80.12 
L 172.899 80.12 
L 172.899 77.248994 
L 167.67 77.248994 
z
" clip-path="url(#pfd9d63722e)" style="fill: #dc706b; opacity: 0.6"/>
   </g>
   <g id="patch_59">
    <path d="M 172.899 80.12 
L 178.128 80.12 
L 178.128 78.524997 
L 172.899 78.524997 
z
" clip-path="url(#pfd9d63722e)" style="fill: #dc706b; opacity: 0.6"/>
   </g>
   <g id="patch_60">
    <path d="M 178.128 80.12 
L 183.357 80.12 
L 183.357 79.295915 
L 178.128 79.295915 
z
" clip-path="url(#pfd9d63722e)" style="fill: #dc706b; opacity: 0.6"/>
   </g>
   <g id="patch_61">
    <path d="M 183.357 80.12 
L 188.586 80.12 
L 188.586 79.854166 
L 183.357 79.854166 
z
" clip-path="url(#pfd9d63722e)" style="fill: #dc706b; opacity: 0.6"/>
   </g>
   <g id="patch_62">
    <path d="M 188.586 80.12 
L 193.815 80.12 
L 193.815 80.04025 
L 188.586 80.04025 
z
" clip-path="url(#pfd9d63722e)" style="fill: #dc706b; opacity: 0.6"/>
   </g>
   <g id="patch_63">
    <path d="M 193.815 80.12 
L 199.044 80.12 
L 199.044 80.093417 
L 193.815 80.093417 
z
" clip-path="url(#pfd9d63722e)" style="fill: #dc706b; opacity: 0.6"/>
   </g>
   <g id="patch_64">
    <path d="M 199.044 80.12 
L 204.273 80.12 
L 204.273 80.093417 
L 199.044 80.093417 
z
" clip-path="url(#pfd9d63722e)" style="fill: #dc706b; opacity: 0.6"/>
   </g>
   <g id="patch_65">
    <path d="M 204.273 80.12 
L 209.502 80.12 
L 209.502 80.12 
L 204.273 80.12 
z
" clip-path="url(#pfd9d63722e)" style="fill: #dc706b; opacity: 0.6"/>
   </g>
   <g id="patch_66">
    <path d="M 209.502 80.12 
L 214.731 80.12 
L 214.731 80.12 
L 209.502 80.12 
z
" clip-path="url(#pfd9d63722e)" style="fill: #dc706b; opacity: 0.6"/>
   </g>
   <g id="patch_67">
    <path d="M 214.731 80.12 
L 219.96 80.12 
L 219.96 80.12 
L 214.731 80.12 
z
" clip-path="url(#pfd9d63722e)" style="fill: #dc706b; opacity: 0.6"/>
   </g>
   <g id="patch_68">
    <path d="M -119.925 80.12 
L -114.696 80.12 
L -114.696 80.12 
L -119.925 80.12 
z
" clip-path="url(#pfd9d63722e)" style="fill: #85c3c4; opacity: 0.6"/>
   </g>
   <g id="patch_69">
    <path d="M -114.696 80.12 
L -109.467 80.12 
L -109.467 80.12 
L -114.696 80.12 
z
" clip-path="url(#pfd9d63722e)" style="fill: #85c3c4; opacity: 0.6"/>
   </g>
   <g id="patch_70">
    <path d="M -109.467 80.12 
L -104.238 80.12 
L -104.238 80.12 
L -109.467 80.12 
z
" clip-path="url(#pfd9d63722e)" style="fill: #85c3c4; opacity: 0.6"/>
   </g>
   <g id="patch_71">
    <path d="M -104.238 80.12 
L -99.009 80.12 
L -99.009 80.12 
L -104.238 80.12 
z
" clip-path="url(#pfd9d63722e)" style="fill: #85c3c4; opacity: 0.6"/>
   </g>
   <g id="patch_72">
    <path d="M -99.009 80.12 
L -93.78 80.12 
L -93.78 80.12 
L -99.009 80.12 
z
" clip-path="url(#pfd9d63722e)" style="fill: #85c3c4; opacity: 0.6"/>
   </g>
   <g id="patch_73">
    <path d="M -93.78 80.12 
L -88.551 80.12 
L -88.551 80.12 
L -93.78 80.12 
z
" clip-path="url(#pfd9d63722e)" style="fill: #85c3c4; opacity: 0.6"/>
   </g>
   <g id="patch_74">
    <path d="M -88.551 80.12 
L -83.322 80.12 
L -83.322 80.12 
L -88.551 80.12 
z
" clip-path="url(#pfd9d63722e)" style="fill: #85c3c4; opacity: 0.6"/>
   </g>
   <g id="patch_75">
    <path d="M -83.322 80.12 
L -78.093 80.12 
L -78.093 80.12 
L -83.322 80.12 
z
" clip-path="url(#pfd9d63722e)" style="fill: #85c3c4; opacity: 0.6"/>
   </g>
   <g id="patch_76">
    <path d="M -78.093 80.12 
L -72.864 80.12 
L -72.864 80.12 
L -78.093 80.12 
z
" clip-path="url(#pfd9d63722e)" style="fill: #85c3c4; opacity: 0.6"/>
   </g>
   <g id="patch_77">
    <path d="M -72.864 80.12 
L -67.635 80.12 
L -67.635 80.12 
L -72.864 80.12 
z
" clip-path="url(#pfd9d63722e)" style="fill: #85c3c4; opacity: 0.6"/>
   </g>
   <g id="patch_78">
    <path d="M -67.635 80.12 
L -62.406 80.12 
L -62.406 80.12 
L -67.635 80.12 
z
" clip-path="url(#pfd9d63722e)" style="fill: #85c3c4; opacity: 0.6"/>
   </g>
   <g id="patch_79">
    <path d="M -62.406 80.12 
L -57.177 80.12 
L -57.177 80.12 
L -62.406 80.12 
z
" clip-path="url(#pfd9d63722e)" style="fill: #85c3c4; opacity: 0.6"/>
   </g>
   <g id="patch_80">
    <path d="M -57.177 80.12 
L -51.948 80.12 
L -51.948 80.12 
L -57.177 80.12 
z
" clip-path="url(#pfd9d63722e)" style="fill: #85c3c4; opacity: 0.6"/>
   </g>
   <g id="patch_81">
    <path d="M -51.948 80.12 
L -46.719 80.12 
L -46.719 80.12 
L -51.948 80.12 
z
" clip-path="url(#pfd9d63722e)" style="fill: #85c3c4; opacity: 0.6"/>
   </g>
   <g id="patch_82">
    <path d="M -46.719 80.12 
L -41.49 80.12 
L -41.49 80.12 
L -46.719 80.12 
z
" clip-path="url(#pfd9d63722e)" style="fill: #85c3c4; opacity: 0.6"/>
   </g>
   <g id="patch_83">
    <path d="M -41.49 80.12 
L -36.261 80.12 
L -36.261 80.12 
L -41.49 80.12 
z
" clip-path="url(#pfd9d63722e)" style="fill: #85c3c4; opacity: 0.6"/>
   </g>
   <g id="patch_84">
    <path d="M -36.261 80.12 
L -31.032 80.12 
L -31.032 80.12 
L -36.261 80.12 
z
" clip-path="url(#pfd9d63722e)" style="fill: #85c3c4; opacity: 0.6"/>
   </g>
   <g id="patch_85">
    <path d="M -31.032 80.12 
L -25.803 80.12 
L -25.803 80.12 
L -31.032 80.12 
z
" clip-path="url(#pfd9d63722e)" style="fill: #85c3c4; opacity: 0.6"/>
   </g>
   <g id="patch_86">
    <path d="M -25.803 80.12 
L -20.574 80.12 
L -20.574 80.12 
L -25.803 80.12 
z
" clip-path="url(#pfd9d63722e)" style="fill: #85c3c4; opacity: 0.6"/>
   </g>
   <g id="patch_87">
    <path d="M -20.574 80.12 
L -15.345 80.12 
L -15.345 80.12 
L -20.574 80.12 
z
" clip-path="url(#pfd9d63722e)" style="fill: #85c3c4; opacity: 0.6"/>
   </g>
   <g id="patch_88">
    <path d="M -15.345 80.12 
L -10.116 80.12 
L -10.116 80.12 
L -15.345 80.12 
z
" clip-path="url(#pfd9d63722e)" style="fill: #85c3c4; opacity: 0.6"/>
   </g>
   <g id="patch_89">
    <path d="M -10.116 80.12 
L -4.887 80.12 
L -4.887 80.12 
L -10.116 80.12 
z
" clip-path="url(#pfd9d63722e)" style="fill: #85c3c4; opacity: 0.6"/>
   </g>
   <g id="patch_90">
    <path d="M -4.887 80.12 
L 0.342 80.12 
L 0.342 80.12 
L -4.887 80.12 
z
" clip-path="url(#pfd9d63722e)" style="fill: #85c3c4; opacity: 0.6"/>
   </g>
   <g id="patch_91">
    <path d="M 0.342 80.12 
L 5.571 80.12 
L 5.571 80.12 
L 0.342 80.12 
z
" clip-path="url(#pfd9d63722e)" style="fill: #85c3c4; opacity: 0.6"/>
   </g>
   <g id="patch_92">
    <path d="M 5.571 80.12 
L 10.8 80.12 
L 10.8 80.12 
L 5.571 80.12 
z
" clip-path="url(#pfd9d63722e)" style="fill: #85c3c4; opacity: 0.6"/>
   </g>
   <g id="patch_93">
    <path d="M 10.8 80.12 
L 16.029 80.12 
L 16.029 80.12 
L 10.8 80.12 
z
" clip-path="url(#pfd9d63722e)" style="fill: #85c3c4; opacity: 0.6"/>
   </g>
   <g id="patch_94">
    <path d="M 16.029 80.12 
L 21.258 80.12 
L 21.258 80.12 
L 16.029 80.12 
z
" clip-path="url(#pfd9d63722e)" style="fill: #85c3c4; opacity: 0.6"/>
   </g>
   <g id="patch_95">
    <path d="M 21.258 80.12 
L 26.487 80.12 
L 26.487 80.12 
L 21.258 80.12 
z
" clip-path="url(#pfd9d63722e)" style="fill: #85c3c4; opacity: 0.6"/>
   </g>
   <g id="patch_96">
    <path d="M 26.487 80.12 
L 31.716 80.12 
L 31.716 80.12 
L 26.487 80.12 
z
" clip-path="url(#pfd9d63722e)" style="fill: #85c3c4; opacity: 0.6"/>
   </g>
   <g id="patch_97">
    <path d="M 31.716 80.12 
L 36.945 80.12 
L 36.945 80.12 
L 31.716 80.12 
z
" clip-path="url(#pfd9d63722e)" style="fill: #85c3c4; opacity: 0.6"/>
   </g>
   <g id="patch_98">
    <path d="M 36.945 80.12 
L 42.174 80.12 
L 42.174 80.12 
L 36.945 80.12 
z
" clip-path="url(#pfd9d63722e)" style="fill: #85c3c4; opacity: 0.6"/>
   </g>
   <g id="patch_99">
    <path d="M 42.174 80.12 
L 47.403 80.12 
L 47.403 80.12 
L 42.174 80.12 
z
" clip-path="url(#pfd9d63722e)" style="fill: #85c3c4; opacity: 0.6"/>
   </g>
   <g id="patch_100">
    <path d="M 47.403 80.12 
L 52.632 80.12 
L 52.632 80.12 
L 47.403 80.12 
z
" clip-path="url(#pfd9d63722e)" style="fill: #85c3c4; opacity: 0.6"/>
   </g>
   <g id="patch_101">
    <path d="M 52.632 80.12 
L 57.861 80.12 
L 57.861 80.12 
L 52.632 80.12 
z
" clip-path="url(#pfd9d63722e)" style="fill: #85c3c4; opacity: 0.6"/>
   </g>
   <g id="patch_102">
    <path d="M 57.861 80.12 
L 63.09 80.12 
L 63.09 80.12 
L 57.861 80.12 
z
" clip-path="url(#pfd9d63722e)" style="fill: #85c3c4; opacity: 0.6"/>
   </g>
   <g id="patch_103">
    <path d="M 63.09 80.12 
L 68.319 80.12 
L 68.319 80.12 
L 63.09 80.12 
z
" clip-path="url(#pfd9d63722e)" style="fill: #85c3c4; opacity: 0.6"/>
   </g>
   <g id="patch_104">
    <path d="M 68.319 80.12 
L 73.548 80.12 
L 73.548 80.12 
L 68.319 80.12 
z
" clip-path="url(#pfd9d63722e)" style="fill: #85c3c4; opacity: 0.6"/>
   </g>
   <g id="patch_105">
    <path d="M 73.548 80.12 
L 78.777 80.12 
L 78.777 80.12 
L 73.548 80.12 
z
" clip-path="url(#pfd9d63722e)" style="fill: #85c3c4; opacity: 0.6"/>
   </g>
   <g id="patch_106">
    <path d="M 78.777 80.12 
L 84.006 80.12 
L 84.006 80.12 
L 78.777 80.12 
z
" clip-path="url(#pfd9d63722e)" style="fill: #85c3c4; opacity: 0.6"/>
   </g>
   <g id="patch_107">
    <path d="M 84.006 80.12 
L 89.235 80.12 
L 89.235 80.12 
L 84.006 80.12 
z
" clip-path="url(#pfd9d63722e)" style="fill: #85c3c4; opacity: 0.6"/>
   </g>
   <g id="patch_108">
    <path d="M 89.235 80.12 
L 94.464 80.12 
L 94.464 76.551403 
L 89.235 76.551403 
z
" clip-path="url(#pfd9d63722e)" style="fill: #85c3c4; opacity: 0.6"/>
   </g>
   <g id="patch_109">
    <path d="M 94.464 80.12 
L 99.693 80.12 
L 99.693 60.492716 
L 94.464 60.492716 
z
" clip-path="url(#pfd9d63722e)" style="fill: #85c3c4; opacity: 0.6"/>
   </g>
   <g id="patch_110">
    <path d="M 99.693 80.12 
L 104.922 80.12 
L 104.922 31.943938 
L 99.693 31.943938 
z
" clip-path="url(#pfd9d63722e)" style="fill: #85c3c4; opacity: 0.6"/>
   </g>
   <g id="patch_111">
    <path d="M 104.922 80.12 
L 110.151 80.12 
L 110.151 14.100952 
L 104.922 14.100952 
z
" clip-path="url(#pfd9d63722e)" style="fill: #85c3c4; opacity: 0.6"/>
   </g>
   <g id="patch_112">
    <path d="M 110.151 80.12 
L 115.38 80.12 
L 115.38 35.512535 
L 110.151 35.512535 
z
" clip-path="url(#pfd9d63722e)" style="fill: #85c3c4; opacity: 0.6"/>
   </g>
   <g id="patch_113">
    <path d="M 115.38 80.12 
L 120.609 80.12 
L 120.609 53.355521 
L 115.38 53.355521 
z
" clip-path="url(#pfd9d63722e)" style="fill: #85c3c4; opacity: 0.6"/>
   </g>
   <g id="patch_114">
    <path d="M 120.609 80.12 
L 125.838 80.12 
L 125.838 42.64973 
L 120.609 42.64973 
z
" clip-path="url(#pfd9d63722e)" style="fill: #85c3c4; opacity: 0.6"/>
   </g>
   <g id="patch_115">
    <path d="M 125.838 80.12 
L 131.067 80.12 
L 131.067 65.845611 
L 125.838 65.845611 
z
" clip-path="url(#pfd9d63722e)" style="fill: #85c3c4; opacity: 0.6"/>
   </g>
   <g id="patch_116">
    <path d="M 131.067 80.12 
L 136.296 80.12 
L 136.296 74.767104 
L 131.067 74.767104 
z
" clip-path="url(#pfd9d63722e)" style="fill: #85c3c4; opacity: 0.6"/>
   </g>
   <g id="patch_117">
    <path d="M 136.296 80.12 
L 141.525 80.12 
L 141.525 80.12 
L 136.296 80.12 
z
" clip-path="url(#pfd9d63722e)" style="fill: #85c3c4; opacity: 0.6"/>
   </g>
   <g id="patch_118">
    <path d="M 141.525 80.12 
L 146.754 80.12 
L 146.754 80.12 
L 141.525 80.12 
z
" clip-path="url(#pfd9d63722e)" style="fill: #85c3c4; opacity: 0.6"/>
   </g>
   <g id="patch_119">
    <path d="M 146.754 80.12 
L 151.983 80.12 
L 151.983 80.12 
L 146.754 80.12 
z
" clip-path="url(#pfd9d63722e)" style="fill: #85c3c4; opacity: 0.6"/>
   </g>
   <g id="patch_120">
    <path d="M 151.983 80.12 
L 157.212 80.12 
L 157.212 80.12 
L 151.983 80.12 
z
" clip-path="url(#pfd9d63722e)" style="fill: #85c3c4; opacity: 0.6"/>
   </g>
   <g id="patch_121">
    <path d="M 157.212 80.12 
L 162.441 80.12 
L 162.441 80.12 
L 157.212 80.12 
z
" clip-path="url(#pfd9d63722e)" style="fill: #85c3c4; opacity: 0.6"/>
   </g>
   <g id="patch_122">
    <path d="M 162.441 80.12 
L 167.67 80.12 
L 167.67 80.12 
L 162.441 80.12 
z
" clip-path="url(#pfd9d63722e)" style="fill: #85c3c4; opacity: 0.6"/>
   </g>
   <g id="patch_123">
    <path d="M 167.67 80.12 
L 172.899 80.12 
L 172.899 80.12 
L 167.67 80.12 
z
" clip-path="url(#pfd9d63722e)" style="fill: #85c3c4; opacity: 0.6"/>
   </g>
   <g id="patch_124">
    <path d="M 172.899 80.12 
L 178.128 80.12 
L 178.128 80.12 
L 172.899 80.12 
z
" clip-path="url(#pfd9d63722e)" style="fill: #85c3c4; opacity: 0.6"/>
   </g>
   <g id="patch_125">
    <path d="M 178.128 80.12 
L 183.357 80.12 
L 183.357 80.12 
L 178.128 80.12 
z
" clip-path="url(#pfd9d63722e)" style="fill: #85c3c4; opacity: 0.6"/>
   </g>
   <g id="patch_126">
    <path d="M 183.357 80.12 
L 188.586 80.12 
L 188.586 80.12 
L 183.357 80.12 
z
" clip-path="url(#pfd9d63722e)" style="fill: #85c3c4; opacity: 0.6"/>
   </g>
   <g id="patch_127">
    <path d="M 188.586 80.12 
L 193.815 80.12 
L 193.815 80.12 
L 188.586 80.12 
z
" clip-path="url(#pfd9d63722e)" style="fill: #85c3c4; opacity: 0.6"/>
   </g>
   <g id="patch_128">
    <path d="M 193.815 80.12 
L 199.044 80.12 
L 199.044 80.12 
L 193.815 80.12 
z
" clip-path="url(#pfd9d63722e)" style="fill: #85c3c4; opacity: 0.6"/>
   </g>
   <g id="patch_129">
    <path d="M 199.044 80.12 
L 204.273 80.12 
L 204.273 80.12 
L 199.044 80.12 
z
" clip-path="url(#pfd9d63722e)" style="fill: #85c3c4; opacity: 0.6"/>
   </g>
   <g id="patch_130">
    <path d="M 204.273 80.12 
L 209.502 80.12 
L 209.502 80.12 
L 204.273 80.12 
z
" clip-path="url(#pfd9d63722e)" style="fill: #85c3c4; opacity: 0.6"/>
   </g>
   <g id="patch_131">
    <path d="M 209.502 80.12 
L 214.731 80.12 
L 214.731 80.12 
L 209.502 80.12 
z
" clip-path="url(#pfd9d63722e)" style="fill: #85c3c4; opacity: 0.6"/>
   </g>
   <g id="patch_132">
    <path d="M 214.731 80.12 
L 219.96 80.12 
L 219.96 80.12 
L 214.731 80.12 
z
" clip-path="url(#pfd9d63722e)" style="fill: #85c3c4; opacity: 0.6"/>
   </g>
   <g id="matplotlib.axis_1">
    <g id="xtick_1">
     <g id="line2d_1">
      <defs>
       <path id="ma0fb26f22e" d="M 0 0 
L 0 3.5 
" style="stroke: #000000; stroke-width: 0.8"/>
      </defs>
      <g>
       <use xlink:href="#ma0fb26f22e" x="36.945" y="80.12" style="stroke: #000000; stroke-width: 0.8"/>
      </g>
     </g>
     <g id="text_1">
      <!-- 6 Å -->
      <g transform="translate(28.754375 94.718438) scale(0.1 -0.1)">
       <defs>
        <path id="DejaVuSans-36" d="M 2113 2584 
Q 1688 2584 1439 2293 
Q 1191 2003 1191 1497 
Q 1191 994 1439 701 
Q 1688 409 2113 409 
Q 2538 409 2786 701 
Q 3034 994 3034 1497 
Q 3034 2003 2786 2293 
Q 2538 2584 2113 2584 
z
M 3366 4563 
L 3366 3988 
Q 3128 4100 2886 4159 
Q 2644 4219 2406 4219 
Q 1781 4219 1451 3797 
Q 1122 3375 1075 2522 
Q 1259 2794 1537 2939 
Q 1816 3084 2150 3084 
Q 2853 3084 3261 2657 
Q 3669 2231 3669 1497 
Q 3669 778 3244 343 
Q 2819 -91 2113 -91 
Q 1303 -91 875 529 
Q 447 1150 447 2328 
Q 447 3434 972 4092 
Q 1497 4750 2381 4750 
Q 2619 4750 2861 4703 
Q 3103 4656 3366 4563 
z
" transform="scale(0.015625)"/>
        <path id="DejaVuSans-20" transform="scale(0.015625)"/>
        <path id="DejaVuSans-c5" d="M 2663 5081 
Q 2663 5278 2523 5417 
Q 2384 5556 2188 5556 
Q 1988 5556 1852 5420 
Q 1716 5284 1716 5081 
Q 1716 4884 1853 4746 
Q 1991 4609 2188 4609 
Q 2384 4609 2523 4746 
Q 2663 4884 2663 5081 
z
M 2188 4044 
L 1338 1722 
L 3041 1722 
L 2188 4044 
z
M 1716 4366 
Q 1525 4494 1428 4673 
Q 1331 4853 1331 5081 
Q 1331 5441 1579 5691 
Q 1828 5941 2188 5941 
Q 2544 5941 2795 5689 
Q 3047 5438 3047 5081 
Q 3047 4863 2948 4678 
Q 2850 4494 2663 4366 
L 4325 0 
L 3669 0 
L 3244 1197 
L 1141 1197 
L 716 0 
L 50 0 
L 1716 4366 
z
" transform="scale(0.015625)"/>
       </defs>
       <use xlink:href="#DejaVuSans-36"/>
       <use xlink:href="#DejaVuSans-20" x="63.623047"/>
       <use xlink:href="#DejaVuSans-c5" x="95.410156"/>
      </g>
     </g>
    </g>
    <g id="xtick_2">
     <g id="line2d_2">
      <g>
       <use xlink:href="#ma0fb26f22e" x="89.235" y="80.12" style="stroke: #000000; stroke-width: 0.8"/>
      </g>
     </g>
     <g id="text_2">
      <!-- 8 Å -->
      <g transform="translate(81.044375 94.718438) scale(0.1 -0.1)">
       <defs>
        <path id="DejaVuSans-38" d="M 2034 2216 
Q 1584 2216 1326 1975 
Q 1069 1734 1069 1313 
Q 1069 891 1326 650 
Q 1584 409 2034 409 
Q 2484 409 2743 651 
Q 3003 894 3003 1313 
Q 3003 1734 2745 1975 
Q 2488 2216 2034 2216 
z
M 1403 2484 
Q 997 2584 770 2862 
Q 544 3141 544 3541 
Q 544 4100 942 4425 
Q 1341 4750 2034 4750 
Q 2731 4750 3128 4425 
Q 3525 4100 3525 3541 
Q 3525 3141 3298 2862 
Q 3072 2584 2669 2484 
Q 3125 2378 3379 2068 
Q 3634 1759 3634 1313 
Q 3634 634 3220 271 
Q 2806 -91 2034 -91 
Q 1263 -91 848 271 
Q 434 634 434 1313 
Q 434 1759 690 2068 
Q 947 2378 1403 2484 
z
M 1172 3481 
Q 1172 3119 1398 2916 
Q 1625 2713 2034 2713 
Q 2441 2713 2670 2916 
Q 2900 3119 2900 3481 
Q 2900 3844 2670 4047 
Q 2441 4250 2034 4250 
Q 1625 4250 1398 4047 
Q 1172 3844 1172 3481 
z
" transform="scale(0.015625)"/>
       </defs>
       <use xlink:href="#DejaVuSans-38"/>
       <use xlink:href="#DejaVuSans-20" x="63.623047"/>
       <use xlink:href="#DejaVuSans-c5" x="95.410156"/>
      </g>
     </g>
    </g>
    <g id="xtick_3">
     <g id="line2d_3">
      <g>
       <use xlink:href="#ma0fb26f22e" x="141.525" y="80.12" style="stroke: #000000; stroke-width: 0.8"/>
      </g>
     </g>
     <g id="text_3">
      <!-- 10 Å -->
      <g transform="translate(130.153125 94.718438) scale(0.1 -0.1)">
       <defs>
        <path id="DejaVuSans-31" d="M 794 531 
L 1825 531 
L 1825 4091 
L 703 3866 
L 703 4441 
L 1819 4666 
L 2450 4666 
L 2450 531 
L 3481 531 
L 3481 0 
L 794 0 
L 794 531 
z
" transform="scale(0.015625)"/>
        <path id="DejaVuSans-30" d="M 2034 4250 
Q 1547 4250 1301 3770 
Q 1056 3291 1056 2328 
Q 1056 1369 1301 889 
Q 1547 409 2034 409 
Q 2525 409 2770 889 
Q 3016 1369 3016 2328 
Q 3016 3291 2770 3770 
Q 2525 4250 2034 4250 
z
M 2034 4750 
Q 2819 4750 3233 4129 
Q 3647 3509 3647 2328 
Q 3647 1150 3233 529 
Q 2819 -91 2034 -91 
Q 1250 -91 836 529 
Q 422 1150 422 2328 
Q 422 3509 836 4129 
Q 1250 4750 2034 4750 
z
" transform="scale(0.015625)"/>
       </defs>
       <use xlink:href="#DejaVuSans-31"/>
       <use xlink:href="#DejaVuSans-30" x="63.623047"/>
       <use xlink:href="#DejaVuSans-20" x="127.246094"/>
       <use xlink:href="#DejaVuSans-c5" x="159.033203"/>
      </g>
     </g>
    </g>
    <g id="xtick_4">
     <g id="line2d_4">
      <g>
       <use xlink:href="#ma0fb26f22e" x="193.815" y="80.12" style="stroke: #000000; stroke-width: 0.8"/>
      </g>
     </g>
     <g id="text_4">
      <!-- 12 Å -->
      <g transform="translate(182.443125 94.718438) scale(0.1 -0.1)">
       <defs>
        <path id="DejaVuSans-32" d="M 1228 531 
L 3431 531 
L 3431 0 
L 469 0 
L 469 531 
Q 828 903 1448 1529 
Q 2069 2156 2228 2338 
Q 2531 2678 2651 2914 
Q 2772 3150 2772 3378 
Q 2772 3750 2511 3984 
Q 2250 4219 1831 4219 
Q 1534 4219 1204 4116 
Q 875 4013 500 3803 
L 500 4441 
Q 881 4594 1212 4672 
Q 1544 4750 1819 4750 
Q 2544 4750 2975 4387 
Q 3406 4025 3406 3419 
Q 3406 3131 3298 2873 
Q 3191 2616 2906 2266 
Q 2828 2175 2409 1742 
Q 1991 1309 1228 531 
z
" transform="scale(0.015625)"/>
       </defs>
       <use xlink:href="#DejaVuSans-31"/>
       <use xlink:href="#DejaVuSans-32" x="63.623047"/>
       <use xlink:href="#DejaVuSans-20" x="127.246094"/>
       <use xlink:href="#DejaVuSans-c5" x="159.033203"/>
      </g>
     </g>
    </g>
   </g>
   <g id="patch_133">
    <path d="M 10.8 80.12 
L 10.8 10.8 
" style="fill: none; stroke: #000000; stroke-width: 0.8; stroke-linejoin: miter; stroke-linecap: square"/>
   </g>
   <g id="patch_134">
    <path d="M 193.815 80.12 
L 193.815 10.8 
" style="fill: none; stroke: #000000; stroke-width: 0.8; stroke-linejoin: miter; stroke-linecap: square"/>
   </g>
   <g id="patch_135">
    <path d="M 10.8 80.12 
L 193.815 80.12 
" style="fill: none; stroke: #000000; stroke-width: 0.8; stroke-linejoin: miter; stroke-linecap: square"/>
   </g>
   <g id="patch_136">
    <path d="M 10.8 10.8 
L 193.815 10.8 
" style="fill: none; stroke: #000000; stroke-width: 0.8; stroke-linejoin: miter; stroke-linecap: square"/>
   </g>
  </g>
 </g>
 <defs>
  <clipPath id="pfd9d63722e">
   <rect x="10.8" y="10.8" width="183.015" height="69.32"/>
  </clipPath>
 </defs>
</svg>
