<?xml version="1.0" encoding="utf-8" standalone="no"?>
<!DOCTYPE svg PUBLIC "-//W3C//DTD SVG 1.1//EN"
  "http://www.w3.org/Graphics/SVG/1.1/DTD/svg11.dtd">
<svg xmlns:xlink="http://www.w3.org/1999/xlink" width="216pt" height="108pt" viewBox="0 0 216 108" xmlns="http://www.w3.org/2000/svg" version="1.1">
 <metadata>
  <rdf:RDF xmlns:dc="http://purl.org/dc/elements/1.1/" xmlns:cc="http://creativecommons.org/ns#" xmlns:rdf="http://www.w3.org/1999/02/22-rdf-syntax-ns#">
   <cc:Work>
    <dc:type rdf:resource="http://purl.org/dc/dcmitype/StillImage"/>
    <dc:date>2024-09-23T19:32:23.379776</dc:date>
    <dc:format>image/svg+xml</dc:format>
    <dc:creator>
     <cc:Agent>
      <dc:title>Matplotlib v3.9.2, https://matplotlib.org/</dc:title>
     </cc:Agent>
    </dc:creator>
   </cc:Work>
  </rdf:RDF>
 </metadata>
 <defs>
  <style type="text/css">*{stroke-linejoin: round; stroke-linecap: butt}</style>
 </defs>
 <g id="figure_1">
  <g id="patch_1">
   <path d="M 0 108 
L 216 108 
L 216 0 
L 0 0 
z
" style="fill: #ffffff"/>
  </g>
  <g id="axes_1">
   <g id="patch_2">
    <path d="M 24.66 80.12 
L 193.095 80.12 
L 193.095 10.8 
L 24.66 10.8 
z
" style="fill: #ffffff"/>
   </g>
   <g id="patch_3">
    <path d="M -143.775 80.12 
L -139.09625 80.12 
L -139.09625 80.12 
L -143.775 80.12 
z
" clip-path="url(#p5703b8d229)" style="fill: #dc706b; opacity: 0.6"/>
   </g>
   <g id="patch_4">
    <path d="M -139.09625 80.12 
L -134.4175 80.12 
L -134.4175 80.12 
L -139.09625 80.12 
z
" clip-path="url(#p5703b8d229)" style="fill: #dc706b; opacity: 0.6"/>
   </g>
   <g id="patch_5">
    <path d="M -134.4175 80.12 
L -129.73875 80.12 
L -129.73875 80.12 
L -134.4175 80.12 
z
" clip-path="url(#p5703b8d229)" style="fill: #dc706b; opacity: 0.6"/>
   </g>
   <g id="patch_6">
    <path d="M -129.73875 80.12 
L -125.06 80.12 
L -125.06 80.12 
L -129.73875 80.12 
z
" clip-path="url(#p5703b8d229)" style="fill: #dc706b; opacity: 0.6"/>
   </g>
   <g id="patch_7">
    <path d="M -125.06 80.12 
L -120.38125 80.12 
L -120.38125 80.12 
L -125.06 80.12 
z
" clip-path="url(#p5703b8d229)" style="fill: #dc706b; opacity: 0.6"/>
   </g>
   <g id="patch_8">
    <path d="M -120.38125 80.12 
L -115.7025 80.12 
L -115.7025 80.12 
L -120.38125 80.12 
z
" clip-path="url(#p5703b8d229)" style="fill: #dc706b; opacity: 0.6"/>
   </g>
   <g id="patch_9">
    <path d="M -115.7025 80.12 
L -111.02375 80.12 
L -111.02375 80.12 
L -115.7025 80.12 
z
" clip-path="url(#p5703b8d229)" style="fill: #dc706b; opacity: 0.6"/>
   </g>
   <g id="patch_10">
    <path d="M -111.02375 80.12 
L -106.345 80.12 
L -106.345 80.12 
L -111.02375 80.12 
z
" clip-path="url(#p5703b8d229)" style="fill: #dc706b; opacity: 0.6"/>
   </g>
   <g id="patch_11">
    <path d="M -106.345 80.12 
L -101.66625 80.12 
L -101.66625 80.12 
L -106.345 80.12 
z
" clip-path="url(#p5703b8d229)" style="fill: #dc706b; opacity: 0.6"/>
   </g>
   <g id="patch_12">
    <path d="M -101.66625 80.12 
L -96.9875 80.12 
L -96.9875 80.12 
L -101.66625 80.12 
z
" clip-path="url(#p5703b8d229)" style="fill: #dc706b; opacity: 0.6"/>
   </g>
   <g id="patch_13">
    <path d="M -96.9875 80.12 
L -92.30875 80.12 
L -92.30875 80.12 
L -96.9875 80.12 
z
" clip-path="url(#p5703b8d229)" style="fill: #dc706b; opacity: 0.6"/>
   </g>
   <g id="patch_14">
    <path d="M -92.30875 80.12 
L -87.63 80.12 
L -87.63 80.12 
L -92.30875 80.12 
z
" clip-path="url(#p5703b8d229)" style="fill: #dc706b; opacity: 0.6"/>
   </g>
   <g id="patch_15">
    <path d="M -87.63 80.12 
L -82.95125 80.12 
L -82.95125 80.12 
L -87.63 80.12 
z
" clip-path="url(#p5703b8d229)" style="fill: #dc706b; opacity: 0.6"/>
   </g>
   <g id="patch_16">
    <path d="M -82.95125 80.12 
L -78.2725 80.12 
L -78.2725 80.12 
L -82.95125 80.12 
z
" clip-path="url(#p5703b8d229)" style="fill: #dc706b; opacity: 0.6"/>
   </g>
   <g id="patch_17">
    <path d="M -78.2725 80.12 
L -73.59375 80.12 
L -73.59375 80.12 
L -78.2725 80.12 
z
" clip-path="url(#p5703b8d229)" style="fill: #dc706b; opacity: 0.6"/>
   </g>
   <g id="patch_18">
    <path d="M -73.59375 80.12 
L -68.915 80.12 
L -68.915 80.12 
L -73.59375 80.12 
z
" clip-path="url(#p5703b8d229)" style="fill: #dc706b; opacity: 0.6"/>
   </g>
   <g id="patch_19">
    <path d="M -68.915 80.12 
L -64.23625 80.12 
L -64.23625 80.12 
L -68.915 80.12 
z
" clip-path="url(#p5703b8d229)" style="fill: #dc706b; opacity: 0.6"/>
   </g>
   <g id="patch_20">
    <path d="M -64.23625 80.12 
L -59.5575 80.12 
L -59.5575 80.12 
L -64.23625 80.12 
z
" clip-path="url(#p5703b8d229)" style="fill: #dc706b; opacity: 0.6"/>
   </g>
   <g id="patch_21">
    <path d="M -59.5575 80.12 
L -54.87875 80.12 
L -54.87875 80.12 
L -59.5575 80.12 
z
" clip-path="url(#p5703b8d229)" style="fill: #dc706b; opacity: 0.6"/>
   </g>
   <g id="patch_22">
    <path d="M -54.87875 80.12 
L -50.2 80.12 
L -50.2 80.12 
L -54.87875 80.12 
z
" clip-path="url(#p5703b8d229)" style="fill: #dc706b; opacity: 0.6"/>
   </g>
   <g id="patch_23">
    <path d="M -50.2 80.12 
L -45.52125 80.12 
L -45.52125 80.12 
L -50.2 80.12 
z
" clip-path="url(#p5703b8d229)" style="fill: #dc706b; opacity: 0.6"/>
   </g>
   <g id="patch_24">
    <path d="M -45.52125 80.12 
L -40.8425 80.12 
L -40.8425 80.12 
L -45.52125 80.12 
z
" clip-path="url(#p5703b8d229)" style="fill: #dc706b; opacity: 0.6"/>
   </g>
   <g id="patch_25">
    <path d="M -40.8425 80.12 
L -36.16375 80.12 
L -36.16375 80.12 
L -40.8425 80.12 
z
" clip-path="url(#p5703b8d229)" style="fill: #dc706b; opacity: 0.6"/>
   </g>
   <g id="patch_26">
    <path d="M -36.16375 80.12 
L -31.485 80.12 
L -31.485 80.12 
L -36.16375 80.12 
z
" clip-path="url(#p5703b8d229)" style="fill: #dc706b; opacity: 0.6"/>
   </g>
   <g id="patch_27">
    <path d="M -31.485 80.12 
L -26.80625 80.12 
L -26.80625 80.12 
L -31.485 80.12 
z
" clip-path="url(#p5703b8d229)" style="fill: #dc706b; opacity: 0.6"/>
   </g>
   <g id="patch_28">
    <path d="M -26.80625 80.12 
L -22.1275 80.12 
L -22.1275 80.12 
L -26.80625 80.12 
z
" clip-path="url(#p5703b8d229)" style="fill: #dc706b; opacity: 0.6"/>
   </g>
   <g id="patch_29">
    <path d="M -22.1275 80.12 
L -17.44875 80.12 
L -17.44875 80.12 
L -22.1275 80.12 
z
" clip-path="url(#p5703b8d229)" style="fill: #dc706b; opacity: 0.6"/>
   </g>
   <g id="patch_30">
    <path d="M -17.44875 80.12 
L -12.77 80.12 
L -12.77 80.12 
L -17.44875 80.12 
z
" clip-path="url(#p5703b8d229)" style="fill: #dc706b; opacity: 0.6"/>
   </g>
   <g id="patch_31">
    <path d="M -12.77 80.12 
L -8.09125 80.12 
L -8.09125 80.12 
L -12.77 80.12 
z
" clip-path="url(#p5703b8d229)" style="fill: #dc706b; opacity: 0.6"/>
   </g>
   <g id="patch_32">
    <path d="M -8.09125 80.12 
L -3.4125 80.12 
L -3.4125 80.12 
L -8.09125 80.12 
z
" clip-path="url(#p5703b8d229)" style="fill: #dc706b; opacity: 0.6"/>
   </g>
   <g id="patch_33">
    <path d="M -3.4125 80.12 
L 1.26625 80.12 
L 1.26625 80.12 
L -3.4125 80.12 
z
" clip-path="url(#p5703b8d229)" style="fill: #dc706b; opacity: 0.6"/>
   </g>
   <g id="patch_34">
    <path d="M 1.26625 80.12 
L 5.945 80.12 
L 5.945 80.12 
L 1.26625 80.12 
z
" clip-path="url(#p5703b8d229)" style="fill: #dc706b; opacity: 0.6"/>
   </g>
   <g id="patch_35">
    <path d="M 5.945 80.12 
L 10.62375 80.12 
L 10.62375 80.12 
L 5.945 80.12 
z
" clip-path="url(#p5703b8d229)" style="fill: #dc706b; opacity: 0.6"/>
   </g>
   <g id="patch_36">
    <path d="M 10.62375 80.12 
L 15.3025 80.12 
L 15.3025 80.12 
L 10.62375 80.12 
z
" clip-path="url(#p5703b8d229)" style="fill: #dc706b; opacity: 0.6"/>
   </g>
   <g id="patch_37">
    <path d="M 15.3025 80.12 
L 19.98125 80.12 
L 19.98125 80.12 
L 15.3025 80.12 
z
" clip-path="url(#p5703b8d229)" style="fill: #dc706b; opacity: 0.6"/>
   </g>
   <g id="patch_38">
    <path d="M 19.98125 80.12 
L 24.66 80.12 
L 24.66 80.12 
L 19.98125 80.12 
z
" clip-path="url(#p5703b8d229)" style="fill: #dc706b; opacity: 0.6"/>
   </g>
   <g id="patch_39">
    <path d="M 24.66 80.12 
L 29.33875 80.12 
L 29.33875 80.12 
L 24.66 80.12 
z
" clip-path="url(#p5703b8d229)" style="fill: #dc706b; opacity: 0.6"/>
   </g>
   <g id="patch_40">
    <path d="M 29.33875 80.12 
L 34.0175 80.12 
L 34.0175 80.12 
L 29.33875 80.12 
z
" clip-path="url(#p5703b8d229)" style="fill: #dc706b; opacity: 0.6"/>
   </g>
   <g id="patch_41">
    <path d="M 34.0175 80.12 
L 38.69625 80.12 
L 38.69625 80.12 
L 34.0175 80.12 
z
" clip-path="url(#p5703b8d229)" style="fill: #dc706b; opacity: 0.6"/>
   </g>
   <g id="patch_42">
    <path d="M 38.69625 80.12 
L 43.375 80.12 
L 43.375 80.12 
L 38.69625 80.12 
z
" clip-path="url(#p5703b8d229)" style="fill: #dc706b; opacity: 0.6"/>
   </g>
   <g id="patch_43">
    <path d="M 43.375 80.12 
L 48.05375 80.12 
L 48.05375 80.074362 
L 43.375 80.074362 
z
" clip-path="url(#p5703b8d229)" style="fill: #dc706b; opacity: 0.6"/>
   </g>
   <g id="patch_44">
    <path d="M 48.05375 80.12 
L 52.7325 80.12 
L 52.7325 80.074362 
L 48.05375 80.074362 
z
" clip-path="url(#p5703b8d229)" style="fill: #dc706b; opacity: 0.6"/>
   </g>
   <g id="patch_45">
    <path d="M 52.7325 80.12 
L 57.41125 80.12 
L 57.41125 79.846171 
L 52.7325 79.846171 
z
" clip-path="url(#p5703b8d229)" style="fill: #dc706b; opacity: 0.6"/>
   </g>
   <g id="patch_46">
    <path d="M 57.41125 80.12 
L 62.09 80.12 
L 62.09 79.800532 
L 57.41125 79.800532 
z
" clip-path="url(#p5703b8d229)" style="fill: #dc706b; opacity: 0.6"/>
   </g>
   <g id="patch_47">
    <path d="M 62.09 80.12 
L 66.76875 80.12 
L 66.76875 79.435426 
L 62.09 79.435426 
z
" clip-path="url(#p5703b8d229)" style="fill: #dc706b; opacity: 0.6"/>
   </g>
   <g id="patch_48">
    <path d="M 66.76875 80.12 
L 71.4475 80.12 
L 71.4475 77.838088 
L 66.76875 77.838088 
z
" clip-path="url(#p5703b8d229)" style="fill: #dc706b; opacity: 0.6"/>
   </g>
   <g id="patch_49">
    <path d="M 71.4475 80.12 
L 76.12625 80.12 
L 76.12625 75.875644 
L 71.4475 75.875644 
z
" clip-path="url(#p5703b8d229)" style="fill: #dc706b; opacity: 0.6"/>
   </g>
   <g id="patch_50">
    <path d="M 76.12625 80.12 
L 80.805 80.12 
L 80.805 72.772244 
L 76.12625 72.772244 
z
" clip-path="url(#p5703b8d229)" style="fill: #dc706b; opacity: 0.6"/>
   </g>
   <g id="patch_51">
    <path d="M 80.805 80.12 
L 85.48375 80.12 
L 85.48375 67.295656 
L 80.805 67.295656 
z
" clip-path="url(#p5703b8d229)" style="fill: #dc706b; opacity: 0.6"/>
   </g>
   <g id="patch_52">
    <path d="M 85.48375 80.12 
L 90.1625 80.12 
L 90.1625 60.72375 
L 85.48375 60.72375 
z
" clip-path="url(#p5703b8d229)" style="fill: #dc706b; opacity: 0.6"/>
   </g>
   <g id="patch_53">
    <path d="M 90.1625 80.12 
L 94.84125 80.12 
L 94.84125 49.268553 
L 90.1625 49.268553 
z
" clip-path="url(#p5703b8d229)" style="fill: #dc706b; opacity: 0.6"/>
   </g>
   <g id="patch_54">
    <path d="M 94.84125 80.12 
L 99.52 80.12 
L 99.52 38.634845 
L 94.84125 38.634845 
z
" clip-path="url(#p5703b8d229)" style="fill: #dc706b; opacity: 0.6"/>
   </g>
   <g id="patch_55">
    <path d="M 99.52 80.12 
L 104.19875 80.12 
L 104.19875 29.917942 
L 99.52 29.917942 
z
" clip-path="url(#p5703b8d229)" style="fill: #dc706b; opacity: 0.6"/>
   </g>
   <g id="patch_56">
    <path d="M 104.19875 80.12 
L 108.8775 80.12 
L 108.8775 18.964766 
L 104.19875 18.964766 
z
" clip-path="url(#p5703b8d229)" style="fill: #dc706b; opacity: 0.6"/>
   </g>
   <g id="patch_57">
    <path d="M 108.8775 80.12 
L 113.55625 80.12 
L 113.55625 17.54998 
L 108.8775 17.54998 
z
" clip-path="url(#p5703b8d229)" style="fill: #dc706b; opacity: 0.6"/>
   </g>
   <g id="patch_58">
    <path d="M 113.55625 80.12 
L 118.235 80.12 
L 118.235 25.947416 
L 113.55625 25.947416 
z
" clip-path="url(#p5703b8d229)" style="fill: #dc706b; opacity: 0.6"/>
   </g>
   <g id="patch_59">
    <path d="M 118.235 80.12 
L 122.91375 80.12 
L 122.91375 38.49793 
L 118.235 38.49793 
z
" clip-path="url(#p5703b8d229)" style="fill: #dc706b; opacity: 0.6"/>
   </g>
   <g id="patch_60">
    <path d="M 122.91375 80.12 
L 127.5925 80.12 
L 127.5925 51.322274 
L 122.91375 51.322274 
z
" clip-path="url(#p5703b8d229)" style="fill: #dc706b; opacity: 0.6"/>
   </g>
   <g id="patch_61">
    <path d="M 127.5925 80.12 
L 132.27125 80.12 
L 132.27125 61.4996 
L 127.5925 61.4996 
z
" clip-path="url(#p5703b8d229)" style="fill: #dc706b; opacity: 0.6"/>
   </g>
   <g id="patch_62">
    <path d="M 132.27125 80.12 
L 136.95 80.12 
L 136.95 70.627247 
L 132.27125 70.627247 
z
" clip-path="url(#p5703b8d229)" style="fill: #dc706b; opacity: 0.6"/>
   </g>
   <g id="patch_63">
    <path d="M 136.95 80.12 
L 141.62875 80.12 
L 141.62875 74.232668 
L 136.95 74.232668 
z
" clip-path="url(#p5703b8d229)" style="fill: #dc706b; opacity: 0.6"/>
   </g>
   <g id="patch_64">
    <path d="M 141.62875 80.12 
L 146.3075 80.12 
L 146.3075 77.883727 
L 141.62875 77.883727 
z
" clip-path="url(#p5703b8d229)" style="fill: #dc706b; opacity: 0.6"/>
   </g>
   <g id="patch_65">
    <path d="M 146.3075 80.12 
L 150.98625 80.12 
L 150.98625 79.115959 
L 146.3075 79.115959 
z
" clip-path="url(#p5703b8d229)" style="fill: #dc706b; opacity: 0.6"/>
   </g>
   <g id="patch_66">
    <path d="M 150.98625 80.12 
L 155.665 80.12 
L 155.665 79.526703 
L 150.98625 79.526703 
z
" clip-path="url(#p5703b8d229)" style="fill: #dc706b; opacity: 0.6"/>
   </g>
   <g id="patch_67">
    <path d="M 155.665 80.12 
L 160.34375 80.12 
L 160.34375 79.983085 
L 155.665 79.983085 
z
" clip-path="url(#p5703b8d229)" style="fill: #dc706b; opacity: 0.6"/>
   </g>
   <g id="patch_68">
    <path d="M 160.34375 80.12 
L 165.0225 80.12 
L 165.0225 79.983085 
L 160.34375 79.983085 
z
" clip-path="url(#p5703b8d229)" style="fill: #dc706b; opacity: 0.6"/>
   </g>
   <g id="patch_69">
    <path d="M 165.0225 80.12 
L 169.70125 80.12 
L 169.70125 80.12 
L 165.0225 80.12 
z
" clip-path="url(#p5703b8d229)" style="fill: #dc706b; opacity: 0.6"/>
   </g>
   <g id="patch_70">
    <path d="M 169.70125 80.12 
L 174.38 80.12 
L 174.38 80.12 
L 169.70125 80.12 
z
" clip-path="url(#p5703b8d229)" style="fill: #dc706b; opacity: 0.6"/>
   </g>
   <g id="patch_71">
    <path d="M 174.38 80.12 
L 179.05875 80.12 
L 179.05875 80.12 
L 174.38 80.12 
z
" clip-path="url(#p5703b8d229)" style="fill: #dc706b; opacity: 0.6"/>
   </g>
   <g id="patch_72">
    <path d="M 179.05875 80.12 
L 183.7375 80.12 
L 183.7375 80.12 
L 179.05875 80.12 
z
" clip-path="url(#p5703b8d229)" style="fill: #dc706b; opacity: 0.6"/>
   </g>
   <g id="patch_73">
    <path d="M 183.7375 80.12 
L 188.41625 80.12 
L 188.41625 80.12 
L 183.7375 80.12 
z
" clip-path="url(#p5703b8d229)" style="fill: #dc706b; opacity: 0.6"/>
   </g>
   <g id="patch_74">
    <path d="M 188.41625 80.12 
L 193.095 80.12 
L 193.095 80.12 
L 188.41625 80.12 
z
" clip-path="url(#p5703b8d229)" style="fill: #dc706b; opacity: 0.6"/>
   </g>
   <g id="patch_75">
    <path d="M -143.775 80.12 
L -139.09625 80.12 
L -139.09625 80.12 
L -143.775 80.12 
z
" clip-path="url(#p5703b8d229)" style="fill: #85c3c4; opacity: 0.6"/>
   </g>
   <g id="patch_76">
    <path d="M -139.09625 80.12 
L -134.4175 80.12 
L -134.4175 80.12 
L -139.09625 80.12 
z
" clip-path="url(#p5703b8d229)" style="fill: #85c3c4; opacity: 0.6"/>
   </g>
   <g id="patch_77">
    <path d="M -134.4175 80.12 
L -129.73875 80.12 
L -129.73875 80.12 
L -134.4175 80.12 
z
" clip-path="url(#p5703b8d229)" style="fill: #85c3c4; opacity: 0.6"/>
   </g>
   <g id="patch_78">
    <path d="M -129.73875 80.12 
L -125.06 80.12 
L -125.06 80.12 
L -129.73875 80.12 
z
" clip-path="url(#p5703b8d229)" style="fill: #85c3c4; opacity: 0.6"/>
   </g>
   <g id="patch_79">
    <path d="M -125.06 80.12 
L -120.38125 80.12 
L -120.38125 80.12 
L -125.06 80.12 
z
" clip-path="url(#p5703b8d229)" style="fill: #85c3c4; opacity: 0.6"/>
   </g>
   <g id="patch_80">
    <path d="M -120.38125 80.12 
L -115.7025 80.12 
L -115.7025 80.12 
L -120.38125 80.12 
z
" clip-path="url(#p5703b8d229)" style="fill: #85c3c4; opacity: 0.6"/>
   </g>
   <g id="patch_81">
    <path d="M -115.7025 80.12 
L -111.02375 80.12 
L -111.02375 80.12 
L -115.7025 80.12 
z
" clip-path="url(#p5703b8d229)" style="fill: #85c3c4; opacity: 0.6"/>
   </g>
   <g id="patch_82">
    <path d="M -111.02375 80.12 
L -106.345 80.12 
L -106.345 80.12 
L -111.02375 80.12 
z
" clip-path="url(#p5703b8d229)" style="fill: #85c3c4; opacity: 0.6"/>
   </g>
   <g id="patch_83">
    <path d="M -106.345 80.12 
L -101.66625 80.12 
L -101.66625 80.12 
L -106.345 80.12 
z
" clip-path="url(#p5703b8d229)" style="fill: #85c3c4; opacity: 0.6"/>
   </g>
   <g id="patch_84">
    <path d="M -101.66625 80.12 
L -96.9875 80.12 
L -96.9875 80.12 
L -101.66625 80.12 
z
" clip-path="url(#p5703b8d229)" style="fill: #85c3c4; opacity: 0.6"/>
   </g>
   <g id="patch_85">
    <path d="M -96.9875 80.12 
L -92.30875 80.12 
L -92.30875 80.12 
L -96.9875 80.12 
z
" clip-path="url(#p5703b8d229)" style="fill: #85c3c4; opacity: 0.6"/>
   </g>
   <g id="patch_86">
    <path d="M -92.30875 80.12 
L -87.63 80.12 
L -87.63 80.12 
L -92.30875 80.12 
z
" clip-path="url(#p5703b8d229)" style="fill: #85c3c4; opacity: 0.6"/>
   </g>
   <g id="patch_87">
    <path d="M -87.63 80.12 
L -82.95125 80.12 
L -82.95125 80.12 
L -87.63 80.12 
z
" clip-path="url(#p5703b8d229)" style="fill: #85c3c4; opacity: 0.6"/>
   </g>
   <g id="patch_88">
    <path d="M -82.95125 80.12 
L -78.2725 80.12 
L -78.2725 80.12 
L -82.95125 80.12 
z
" clip-path="url(#p5703b8d229)" style="fill: #85c3c4; opacity: 0.6"/>
   </g>
   <g id="patch_89">
    <path d="M -78.2725 80.12 
L -73.59375 80.12 
L -73.59375 80.12 
L -78.2725 80.12 
z
" clip-path="url(#p5703b8d229)" style="fill: #85c3c4; opacity: 0.6"/>
   </g>
   <g id="patch_90">
    <path d="M -73.59375 80.12 
L -68.915 80.12 
L -68.915 80.12 
L -73.59375 80.12 
z
" clip-path="url(#p5703b8d229)" style="fill: #85c3c4; opacity: 0.6"/>
   </g>
   <g id="patch_91">
    <path d="M -68.915 80.12 
L -64.23625 80.12 
L -64.23625 80.12 
L -68.915 80.12 
z
" clip-path="url(#p5703b8d229)" style="fill: #85c3c4; opacity: 0.6"/>
   </g>
   <g id="patch_92">
    <path d="M -64.23625 80.12 
L -59.5575 80.12 
L -59.5575 80.12 
L -64.23625 80.12 
z
" clip-path="url(#p5703b8d229)" style="fill: #85c3c4; opacity: 0.6"/>
   </g>
   <g id="patch_93">
    <path d="M -59.5575 80.12 
L -54.87875 80.12 
L -54.87875 80.12 
L -59.5575 80.12 
z
" clip-path="url(#p5703b8d229)" style="fill: #85c3c4; opacity: 0.6"/>
   </g>
   <g id="patch_94">
    <path d="M -54.87875 80.12 
L -50.2 80.12 
L -50.2 80.12 
L -54.87875 80.12 
z
" clip-path="url(#p5703b8d229)" style="fill: #85c3c4; opacity: 0.6"/>
   </g>
   <g id="patch_95">
    <path d="M -50.2 80.12 
L -45.52125 80.12 
L -45.52125 80.12 
L -50.2 80.12 
z
" clip-path="url(#p5703b8d229)" style="fill: #85c3c4; opacity: 0.6"/>
   </g>
   <g id="patch_96">
    <path d="M -45.52125 80.12 
L -40.8425 80.12 
L -40.8425 80.12 
L -45.52125 80.12 
z
" clip-path="url(#p5703b8d229)" style="fill: #85c3c4; opacity: 0.6"/>
   </g>
   <g id="patch_97">
    <path d="M -40.8425 80.12 
L -36.16375 80.12 
L -36.16375 80.12 
L -40.8425 80.12 
z
" clip-path="url(#p5703b8d229)" style="fill: #85c3c4; opacity: 0.6"/>
   </g>
   <g id="patch_98">
    <path d="M -36.16375 80.12 
L -31.485 80.12 
L -31.485 80.12 
L -36.16375 80.12 
z
" clip-path="url(#p5703b8d229)" style="fill: #85c3c4; opacity: 0.6"/>
   </g>
   <g id="patch_99">
    <path d="M -31.485 80.12 
L -26.80625 80.12 
L -26.80625 80.12 
L -31.485 80.12 
z
" clip-path="url(#p5703b8d229)" style="fill: #85c3c4; opacity: 0.6"/>
   </g>
   <g id="patch_100">
    <path d="M -26.80625 80.12 
L -22.1275 80.12 
L -22.1275 80.12 
L -26.80625 80.12 
z
" clip-path="url(#p5703b8d229)" style="fill: #85c3c4; opacity: 0.6"/>
   </g>
   <g id="patch_101">
    <path d="M -22.1275 80.12 
L -17.44875 80.12 
L -17.44875 80.12 
L -22.1275 80.12 
z
" clip-path="url(#p5703b8d229)" style="fill: #85c3c4; opacity: 0.6"/>
   </g>
   <g id="patch_102">
    <path d="M -17.44875 80.12 
L -12.77 80.12 
L -12.77 80.12 
L -17.44875 80.12 
z
" clip-path="url(#p5703b8d229)" style="fill: #85c3c4; opacity: 0.6"/>
   </g>
   <g id="patch_103">
    <path d="M -12.77 80.12 
L -8.09125 80.12 
L -8.09125 80.12 
L -12.77 80.12 
z
" clip-path="url(#p5703b8d229)" style="fill: #85c3c4; opacity: 0.6"/>
   </g>
   <g id="patch_104">
    <path d="M -8.09125 80.12 
L -3.4125 80.12 
L -3.4125 80.12 
L -8.09125 80.12 
z
" clip-path="url(#p5703b8d229)" style="fill: #85c3c4; opacity: 0.6"/>
   </g>
   <g id="patch_105">
    <path d="M -3.4125 80.12 
L 1.26625 80.12 
L 1.26625 80.12 
L -3.4125 80.12 
z
" clip-path="url(#p5703b8d229)" style="fill: #85c3c4; opacity: 0.6"/>
   </g>
   <g id="patch_106">
    <path d="M 1.26625 80.12 
L 5.945 80.12 
L 5.945 80.12 
L 1.26625 80.12 
z
" clip-path="url(#p5703b8d229)" style="fill: #85c3c4; opacity: 0.6"/>
   </g>
   <g id="patch_107">
    <path d="M 5.945 80.12 
L 10.62375 80.12 
L 10.62375 80.12 
L 5.945 80.12 
z
" clip-path="url(#p5703b8d229)" style="fill: #85c3c4; opacity: 0.6"/>
   </g>
   <g id="patch_108">
    <path d="M 10.62375 80.12 
L 15.3025 80.12 
L 15.3025 80.12 
L 10.62375 80.12 
z
" clip-path="url(#p5703b8d229)" style="fill: #85c3c4; opacity: 0.6"/>
   </g>
   <g id="patch_109">
    <path d="M 15.3025 80.12 
L 19.98125 80.12 
L 19.98125 80.12 
L 15.3025 80.12 
z
" clip-path="url(#p5703b8d229)" style="fill: #85c3c4; opacity: 0.6"/>
   </g>
   <g id="patch_110">
    <path d="M 19.98125 80.12 
L 24.66 80.12 
L 24.66 80.12 
L 19.98125 80.12 
z
" clip-path="url(#p5703b8d229)" style="fill: #85c3c4; opacity: 0.6"/>
   </g>
   <g id="patch_111">
    <path d="M 24.66 80.12 
L 29.33875 80.12 
L 29.33875 80.12 
L 24.66 80.12 
z
" clip-path="url(#p5703b8d229)" style="fill: #85c3c4; opacity: 0.6"/>
   </g>
   <g id="patch_112">
    <path d="M 29.33875 80.12 
L 34.0175 80.12 
L 34.0175 80.12 
L 29.33875 80.12 
z
" clip-path="url(#p5703b8d229)" style="fill: #85c3c4; opacity: 0.6"/>
   </g>
   <g id="patch_113">
    <path d="M 34.0175 80.12 
L 38.69625 80.12 
L 38.69625 80.12 
L 34.0175 80.12 
z
" clip-path="url(#p5703b8d229)" style="fill: #85c3c4; opacity: 0.6"/>
   </g>
   <g id="patch_114">
    <path d="M 38.69625 80.12 
L 43.375 80.12 
L 43.375 80.12 
L 38.69625 80.12 
z
" clip-path="url(#p5703b8d229)" style="fill: #85c3c4; opacity: 0.6"/>
   </g>
   <g id="patch_115">
    <path d="M 43.375 80.12 
L 48.05375 80.12 
L 48.05375 80.12 
L 43.375 80.12 
z
" clip-path="url(#p5703b8d229)" style="fill: #85c3c4; opacity: 0.6"/>
   </g>
   <g id="patch_116">
    <path d="M 48.05375 80.12 
L 52.7325 80.12 
L 52.7325 80.12 
L 48.05375 80.12 
z
" clip-path="url(#p5703b8d229)" style="fill: #85c3c4; opacity: 0.6"/>
   </g>
   <g id="patch_117">
    <path d="M 52.7325 80.12 
L 57.41125 80.12 
L 57.41125 80.12 
L 52.7325 80.12 
z
" clip-path="url(#p5703b8d229)" style="fill: #85c3c4; opacity: 0.6"/>
   </g>
   <g id="patch_118">
    <path d="M 57.41125 80.12 
L 62.09 80.12 
L 62.09 80.12 
L 57.41125 80.12 
z
" clip-path="url(#p5703b8d229)" style="fill: #85c3c4; opacity: 0.6"/>
   </g>
   <g id="patch_119">
    <path d="M 62.09 80.12 
L 66.76875 80.12 
L 66.76875 77.791286 
L 62.09 77.791286 
z
" clip-path="url(#p5703b8d229)" style="fill: #85c3c4; opacity: 0.6"/>
   </g>
   <g id="patch_120">
    <path d="M 66.76875 80.12 
L 71.4475 80.12 
L 71.4475 80.12 
L 66.76875 80.12 
z
" clip-path="url(#p5703b8d229)" style="fill: #85c3c4; opacity: 0.6"/>
   </g>
   <g id="patch_121">
    <path d="M 71.4475 80.12 
L 76.12625 80.12 
L 76.12625 80.12 
L 71.4475 80.12 
z
" clip-path="url(#p5703b8d229)" style="fill: #85c3c4; opacity: 0.6"/>
   </g>
   <g id="patch_122">
    <path d="M 76.12625 80.12 
L 80.805 80.12 
L 80.805 75.462572 
L 76.12625 75.462572 
z
" clip-path="url(#p5703b8d229)" style="fill: #85c3c4; opacity: 0.6"/>
   </g>
   <g id="patch_123">
    <path d="M 80.805 80.12 
L 85.48375 80.12 
L 85.48375 75.462572 
L 80.805 75.462572 
z
" clip-path="url(#p5703b8d229)" style="fill: #85c3c4; opacity: 0.6"/>
   </g>
   <g id="patch_124">
    <path d="M 85.48375 80.12 
L 90.1625 80.12 
L 90.1625 75.462572 
L 85.48375 75.462572 
z
" clip-path="url(#p5703b8d229)" style="fill: #85c3c4; opacity: 0.6"/>
   </g>
   <g id="patch_125">
    <path d="M 90.1625 80.12 
L 94.84125 80.12 
L 94.84125 73.133857 
L 90.1625 73.133857 
z
" clip-path="url(#p5703b8d229)" style="fill: #85c3c4; opacity: 0.6"/>
   </g>
   <g id="patch_126">
    <path d="M 94.84125 80.12 
L 99.52 80.12 
L 99.52 68.476429 
L 94.84125 68.476429 
z
" clip-path="url(#p5703b8d229)" style="fill: #85c3c4; opacity: 0.6"/>
   </g>
   <g id="patch_127">
    <path d="M 99.52 80.12 
L 104.19875 80.12 
L 104.19875 56.832858 
L 99.52 56.832858 
z
" clip-path="url(#p5703b8d229)" style="fill: #85c3c4; opacity: 0.6"/>
   </g>
   <g id="patch_128">
    <path d="M 104.19875 80.12 
L 108.8775 80.12 
L 108.8775 66.147715 
L 104.19875 66.147715 
z
" clip-path="url(#p5703b8d229)" style="fill: #85c3c4; opacity: 0.6"/>
   </g>
   <g id="patch_129">
    <path d="M 108.8775 80.12 
L 113.55625 80.12 
L 113.55625 54.504144 
L 108.8775 54.504144 
z
" clip-path="url(#p5703b8d229)" style="fill: #85c3c4; opacity: 0.6"/>
   </g>
   <g id="patch_130">
    <path d="M 113.55625 80.12 
L 118.235 80.12 
L 118.235 35.87443 
L 113.55625 35.87443 
z
" clip-path="url(#p5703b8d229)" style="fill: #85c3c4; opacity: 0.6"/>
   </g>
   <g id="patch_131">
    <path d="M 118.235 80.12 
L 122.91375 80.12 
L 122.91375 35.87443 
L 118.235 35.87443 
z
" clip-path="url(#p5703b8d229)" style="fill: #85c3c4; opacity: 0.6"/>
   </g>
   <g id="patch_132">
    <path d="M 122.91375 80.12 
L 127.5925 80.12 
L 127.5925 52.17543 
L 122.91375 52.17543 
z
" clip-path="url(#p5703b8d229)" style="fill: #85c3c4; opacity: 0.6"/>
   </g>
   <g id="patch_133">
    <path d="M 127.5925 80.12 
L 132.27125 80.12 
L 132.27125 28.888288 
L 127.5925 28.888288 
z
" clip-path="url(#p5703b8d229)" style="fill: #85c3c4; opacity: 0.6"/>
   </g>
   <g id="patch_134">
    <path d="M 132.27125 80.12 
L 136.95 80.12 
L 136.95 45.189287 
L 132.27125 45.189287 
z
" clip-path="url(#p5703b8d229)" style="fill: #85c3c4; opacity: 0.6"/>
   </g>
   <g id="patch_135">
    <path d="M 136.95 80.12 
L 141.62875 80.12 
L 141.62875 17.244717 
L 136.95 17.244717 
z
" clip-path="url(#p5703b8d229)" style="fill: #85c3c4; opacity: 0.6"/>
   </g>
   <g id="patch_136">
    <path d="M 141.62875 80.12 
L 146.3075 80.12 
L 146.3075 45.189287 
L 141.62875 45.189287 
z
" clip-path="url(#p5703b8d229)" style="fill: #85c3c4; opacity: 0.6"/>
   </g>
   <g id="patch_137">
    <path d="M 146.3075 80.12 
L 150.98625 80.12 
L 150.98625 52.17543 
L 146.3075 52.17543 
z
" clip-path="url(#p5703b8d229)" style="fill: #85c3c4; opacity: 0.6"/>
   </g>
   <g id="patch_138">
    <path d="M 150.98625 80.12 
L 155.665 80.12 
L 155.665 68.476429 
L 150.98625 68.476429 
z
" clip-path="url(#p5703b8d229)" style="fill: #85c3c4; opacity: 0.6"/>
   </g>
   <g id="patch_139">
    <path d="M 155.665 80.12 
L 160.34375 80.12 
L 160.34375 75.462572 
L 155.665 75.462572 
z
" clip-path="url(#p5703b8d229)" style="fill: #85c3c4; opacity: 0.6"/>
   </g>
   <g id="patch_140">
    <path d="M 160.34375 80.12 
L 165.0225 80.12 
L 165.0225 75.462572 
L 160.34375 75.462572 
z
" clip-path="url(#p5703b8d229)" style="fill: #85c3c4; opacity: 0.6"/>
   </g>
   <g id="patch_141">
    <path d="M 165.0225 80.12 
L 169.70125 80.12 
L 169.70125 73.133857 
L 165.0225 73.133857 
z
" clip-path="url(#p5703b8d229)" style="fill: #85c3c4; opacity: 0.6"/>
   </g>
   <g id="patch_142">
    <path d="M 169.70125 80.12 
L 174.38 80.12 
L 174.38 77.791286 
L 169.70125 77.791286 
z
" clip-path="url(#p5703b8d229)" style="fill: #85c3c4; opacity: 0.6"/>
   </g>
   <g id="patch_143">
    <path d="M 174.38 80.12 
L 179.05875 80.12 
L 179.05875 80.12 
L 174.38 80.12 
z
" clip-path="url(#p5703b8d229)" style="fill: #85c3c4; opacity: 0.6"/>
   </g>
   <g id="patch_144">
    <path d="M 179.05875 80.12 
L 183.7375 80.12 
L 183.7375 80.12 
L 179.05875 80.12 
z
" clip-path="url(#p5703b8d229)" style="fill: #85c3c4; opacity: 0.6"/>
   </g>
   <g id="patch_145">
    <path d="M 183.7375 80.12 
L 188.41625 80.12 
L 188.41625 80.12 
L 183.7375 80.12 
z
" clip-path="url(#p5703b8d229)" style="fill: #85c3c4; opacity: 0.6"/>
   </g>
   <g id="patch_146">
    <path d="M 188.41625 80.12 
L 193.095 80.12 
L 193.095 80.12 
L 188.41625 80.12 
z
" clip-path="url(#p5703b8d229)" style="fill: #85c3c4; opacity: 0.6"/>
   </g>
   <g id="matplotlib.axis_1">
    <g id="xtick_1">
     <g id="line2d_1">
      <defs>
       <path id="m4024f61725" d="M 0 0 
L 0 3.5 
" style="stroke: #000000; stroke-width: 0.8"/>
      </defs>
      <g>
       <use xlink:href="#m4024f61725" x="24.66" y="80.12" style="stroke: #000000; stroke-width: 0.8"/>
      </g>
     </g>
     <g id="text_1">
      <!-- 0° -->
      <g transform="translate(18.97875 94.718438) scale(0.1 -0.1)">
       <defs>
        <path id="DejaVuSans-30" d="M 2034 4250 
Q 1547 4250 1301 3770 
Q 1056 3291 1056 2328 
Q 1056 1369 1301 889 
Q 1547 409 2034 409 
Q 2525 409 2770 889 
Q 3016 1369 3016 2328 
Q 3016 3291 2770 3770 
Q 2525 4250 2034 4250 
z
M 2034 4750 
Q 2819 4750 3233 4129 
Q 3647 3509 3647 2328 
Q 3647 1150 3233 529 
Q 2819 -91 2034 -91 
Q 1250 -91 836 529 
Q 422 1150 422 2328 
Q 422 3509 836 4129 
Q 1250 4750 2034 4750 
z
" transform="scale(0.015625)"/>
        <path id="DejaVuSans-b0" d="M 1600 4347 
Q 1350 4347 1178 4173 
Q 1006 4000 1006 3750 
Q 1006 3503 1178 3333 
Q 1350 3163 1600 3163 
Q 1850 3163 2022 3333 
Q 2194 3503 2194 3750 
Q 2194 3997 2020 4172 
Q 1847 4347 1600 4347 
z
M 1600 4750 
Q 1800 4750 1984 4673 
Q 2169 4597 2303 4453 
Q 2447 4313 2519 4134 
Q 2591 3956 2591 3750 
Q 2591 3338 2302 3052 
Q 2013 2766 1594 2766 
Q 1172 2766 890 3047 
Q 609 3328 609 3750 
Q 609 4169 896 4459 
Q 1184 4750 1600 4750 
z
" transform="scale(0.015625)"/>
       </defs>
       <use xlink:href="#DejaVuSans-30"/>
       <use xlink:href="#DejaVuSans-b0" x="63.623047"/>
      </g>
     </g>
    </g>
    <g id="xtick_2">
     <g id="line2d_2">
      <g>
       <use xlink:href="#m4024f61725" x="108.8775" y="80.12" style="stroke: #000000; stroke-width: 0.8"/>
      </g>
     </g>
     <g id="text_2">
      <!-- 90° -->
      <g transform="translate(100.015 94.718438) scale(0.1 -0.1)">
       <defs>
        <path id="DejaVuSans-39" d="M 703 97 
L 703 672 
Q 941 559 1184 500 
Q 1428 441 1663 441 
Q 2288 441 2617 861 
Q 2947 1281 2994 2138 
Q 2813 1869 2534 1725 
Q 2256 1581 1919 1581 
Q 1219 1581 811 2004 
Q 403 2428 403 3163 
Q 403 3881 828 4315 
Q 1253 4750 1959 4750 
Q 2769 4750 3195 4129 
Q 3622 3509 3622 2328 
Q 3622 1225 3098 567 
Q 2575 -91 1691 -91 
Q 1453 -91 1209 -44 
Q 966 3 703 97 
z
M 1959 2075 
Q 2384 2075 2632 2365 
Q 2881 2656 2881 3163 
Q 2881 3666 2632 3958 
Q 2384 4250 1959 4250 
Q 1534 4250 1286 3958 
Q 1038 3666 1038 3163 
Q 1038 2656 1286 2365 
Q 1534 2075 1959 2075 
z
" transform="scale(0.015625)"/>
       </defs>
       <use xlink:href="#DejaVuSans-39"/>
       <use xlink:href="#DejaVuSans-30" x="63.623047"/>
       <use xlink:href="#DejaVuSans-b0" x="127.246094"/>
      </g>
     </g>
    </g>
    <g id="xtick_3">
     <g id="line2d_3">
      <g>
       <use xlink:href="#m4024f61725" x="193.095" y="80.12" style="stroke: #000000; stroke-width: 0.8"/>
      </g>
     </g>
     <g id="text_3">
      <!-- 180° -->
      <g transform="translate(181.05125 94.718438) scale(0.1 -0.1)">
       <defs>
        <path id="DejaVuSans-31" d="M 794 531 
L 1825 531 
L 1825 4091 
L 703 3866 
L 703 4441 
L 1819 4666 
L 2450 4666 
L 2450 531 
L 3481 531 
L 3481 0 
L 794 0 
L 794 531 
z
" transform="scale(0.015625)"/>
        <path id="DejaVuSans-38" d="M 2034 2216 
Q 1584 2216 1326 1975 
Q 1069 1734 1069 1313 
Q 1069 891 1326 650 
Q 1584 409 2034 409 
Q 2484 409 2743 651 
Q 3003 894 3003 1313 
Q 3003 1734 2745 1975 
Q 2488 2216 2034 2216 
z
M 1403 2484 
Q 997 2584 770 2862 
Q 544 3141 544 3541 
Q 544 4100 942 4425 
Q 1341 4750 2034 4750 
Q 2731 4750 3128 4425 
Q 3525 4100 3525 3541 
Q 3525 3141 3298 2862 
Q 3072 2584 2669 2484 
Q 3125 2378 3379 2068 
Q 3634 1759 3634 1313 
Q 3634 634 3220 271 
Q 2806 -91 2034 -91 
Q 1263 -91 848 271 
Q 434 634 434 1313 
Q 434 1759 690 2068 
Q 947 2378 1403 2484 
z
M 1172 3481 
Q 1172 3119 1398 2916 
Q 1625 2713 2034 2713 
Q 2441 2713 2670 2916 
Q 2900 3119 2900 3481 
Q 2900 3844 2670 4047 
Q 2441 4250 2034 4250 
Q 1625 4250 1398 4047 
Q 1172 3844 1172 3481 
z
" transform="scale(0.015625)"/>
       </defs>
       <use xlink:href="#DejaVuSans-31"/>
       <use xlink:href="#DejaVuSans-38" x="63.623047"/>
       <use xlink:href="#DejaVuSans-30" x="127.246094"/>
       <use xlink:href="#DejaVuSans-b0" x="190.869141"/>
      </g>
     </g>
    </g>
   </g>
   <g id="LineCollection_1">
    <path clip-path="url(#p5703b8d229)" style="fill: none; stroke-dasharray: 5.55,2.4; stroke-dashoffset: 0; stroke: #000000; stroke-opacity: 0.3; stroke-width: 1.5"/>
    <path d="M 108.8775 80.12 
L 108.8775 14.100952 
" clip-path="url(#p5703b8d229)" style="fill: none; stroke-dasharray: 5.55,2.4; stroke-dashoffset: 0; stroke: #000000; stroke-opacity: 0.3; stroke-width: 1.5"/>
   </g>
   <g id="patch_147">
    <path d="M 24.66 80.12 
L 24.66 10.8 
" style="fill: none; stroke: #000000; stroke-width: 0.8; stroke-linejoin: miter; stroke-linecap: square"/>
   </g>
   <g id="patch_148">
    <path d="M 193.095 80.12 
L 193.095 10.8 
" style="fill: none; stroke: #000000; stroke-width: 0.8; stroke-linejoin: miter; stroke-linecap: square"/>
   </g>
   <g id="patch_149">
    <path d="M 24.66 80.12 
L 193.095 80.12 
" style="fill: none; stroke: #000000; stroke-width: 0.8; stroke-linejoin: miter; stroke-linecap: square"/>
   </g>
   <g id="patch_150">
    <path d="M 24.66 10.8 
L 193.095 10.8 
" style="fill: none; stroke: #000000; stroke-width: 0.8; stroke-linejoin: miter; stroke-linecap: square"/>
   </g>
  </g>
 </g>
 <defs>
  <clipPath id="p5703b8d229">
   <rect x="24.66" y="10.8" width="168.435" height="69.32"/>
  </clipPath>
 </defs>
</svg>
