<?xml version="1.0" encoding="utf-8" standalone="no"?>
<!DOCTYPE svg PUBLIC "-//W3C//DTD SVG 1.1//EN"
  "http://www.w3.org/Graphics/SVG/1.1/DTD/svg11.dtd">
<svg xmlns:xlink="http://www.w3.org/1999/xlink" width="216pt" height="432pt" viewBox="0 0 216 432" xmlns="http://www.w3.org/2000/svg" version="1.1">
 <metadata>
  <rdf:RDF xmlns:dc="http://purl.org/dc/elements/1.1/" xmlns:cc="http://creativecommons.org/ns#" xmlns:rdf="http://www.w3.org/1999/02/22-rdf-syntax-ns#">
   <cc:Work>
    <dc:type rdf:resource="http://purl.org/dc/dcmitype/StillImage"/>
    <dc:date>2024-09-11T23:46:01.277613</dc:date>
    <dc:format>image/svg+xml</dc:format>
    <dc:creator>
     <cc:Agent>
      <dc:title>Matplotlib v3.9.2, https://matplotlib.org/</dc:title>
     </cc:Agent>
    </dc:creator>
   </cc:Work>
  </rdf:RDF>
 </metadata>
 <defs>
  <style type="text/css">*{stroke-linejoin: round; stroke-linecap: butt}</style>
 </defs>
 <g id="figure_1">
  <g id="patch_1">
   <path d="M 0 432 
L 216 432 
L 216 0 
L 0 0 
z
" style="fill: #ffffff"/>
  </g>
  <g id="axes_1">
   <g id="patch_2">
    <path d="M 18.99 193.52 
L 197.01 193.52 
L 197.01 25.44 
L 18.99 25.44 
z
" style="fill: #ffffff"/>
   </g>
   <g id="patch_3">
    <path d="M 18.99 193.52 
L 24.924 193.52 
L 24.924 193.52 
L 18.99 193.52 
z
" clip-path="url(#pd081cf563e)" style="fill: #dc706b; opacity: 0.6"/>
   </g>
   <g id="patch_4">
    <path d="M 24.924 193.52 
L 30.858 193.52 
L 30.858 193.52 
L 24.924 193.52 
z
" clip-path="url(#pd081cf563e)" style="fill: #dc706b; opacity: 0.6"/>
   </g>
   <g id="patch_5">
    <path d="M 30.858 193.52 
L 36.792 193.52 
L 36.792 193.52 
L 30.858 193.52 
z
" clip-path="url(#pd081cf563e)" style="fill: #dc706b; opacity: 0.6"/>
   </g>
   <g id="patch_6">
    <path d="M 36.792 193.52 
L 42.726 193.52 
L 42.726 193.52 
L 36.792 193.52 
z
" clip-path="url(#pd081cf563e)" style="fill: #dc706b; opacity: 0.6"/>
   </g>
   <g id="patch_7">
    <path d="M 42.726 193.52 
L 48.66 193.52 
L 48.66 193.52 
L 42.726 193.52 
z
" clip-path="url(#pd081cf563e)" style="fill: #dc706b; opacity: 0.6"/>
   </g>
   <g id="patch_8">
    <path d="M 48.66 193.52 
L 54.594 193.52 
L 54.594 193.52 
L 48.66 193.52 
z
" clip-path="url(#pd081cf563e)" style="fill: #dc706b; opacity: 0.6"/>
   </g>
   <g id="patch_9">
    <path d="M 54.594 193.52 
L 60.528 193.52 
L 60.528 193.52 
L 54.594 193.52 
z
" clip-path="url(#pd081cf563e)" style="fill: #dc706b; opacity: 0.6"/>
   </g>
   <g id="patch_10">
    <path d="M 60.528 193.52 
L 66.462 193.52 
L 66.462 193.52 
L 60.528 193.52 
z
" clip-path="url(#pd081cf563e)" style="fill: #dc706b; opacity: 0.6"/>
   </g>
   <g id="patch_11">
    <path d="M 66.462 193.52 
L 72.396 193.52 
L 72.396 193.52 
L 66.462 193.52 
z
" clip-path="url(#pd081cf563e)" style="fill: #dc706b; opacity: 0.6"/>
   </g>
   <g id="patch_12">
    <path d="M 72.396 193.52 
L 78.33 193.52 
L 78.33 193.52 
L 72.396 193.52 
z
" clip-path="url(#pd081cf563e)" style="fill: #dc706b; opacity: 0.6"/>
   </g>
   <g id="patch_13">
    <path d="M 78.33 193.52 
L 84.264 193.52 
L 84.264 193.52 
L 78.33 193.52 
z
" clip-path="url(#pd081cf563e)" style="fill: #dc706b; opacity: 0.6"/>
   </g>
   <g id="patch_14">
    <path d="M 84.264 193.52 
L 90.198 193.52 
L 90.198 193.52 
L 84.264 193.52 
z
" clip-path="url(#pd081cf563e)" style="fill: #dc706b; opacity: 0.6"/>
   </g>
   <g id="patch_15">
    <path d="M 90.198 193.52 
L 96.132 193.52 
L 96.132 193.52 
L 90.198 193.52 
z
" clip-path="url(#pd081cf563e)" style="fill: #dc706b; opacity: 0.6"/>
   </g>
   <g id="patch_16">
    <path d="M 96.132 193.52 
L 102.066 193.52 
L 102.066 193.52 
L 96.132 193.52 
z
" clip-path="url(#pd081cf563e)" style="fill: #dc706b; opacity: 0.6"/>
   </g>
   <g id="patch_17">
    <path d="M 102.066 193.52 
L 108 193.52 
L 108 193.52 
L 102.066 193.52 
z
" clip-path="url(#pd081cf563e)" style="fill: #dc706b; opacity: 0.6"/>
   </g>
   <g id="patch_18">
    <path d="M 108 193.52 
L 113.934 193.52 
L 113.934 193.52 
L 108 193.52 
z
" clip-path="url(#pd081cf563e)" style="fill: #dc706b; opacity: 0.6"/>
   </g>
   <g id="patch_19">
    <path d="M 113.934 193.52 
L 119.868 193.52 
L 119.868 193.52 
L 113.934 193.52 
z
" clip-path="url(#pd081cf563e)" style="fill: #dc706b; opacity: 0.6"/>
   </g>
   <g id="patch_20">
    <path d="M 119.868 193.52 
L 125.802 193.52 
L 125.802 193.52 
L 119.868 193.52 
z
" clip-path="url(#pd081cf563e)" style="fill: #dc706b; opacity: 0.6"/>
   </g>
   <g id="patch_21">
    <path d="M 125.802 193.52 
L 131.736 193.52 
L 131.736 193.52 
L 125.802 193.52 
z
" clip-path="url(#pd081cf563e)" style="fill: #dc706b; opacity: 0.6"/>
   </g>
   <g id="patch_22">
    <path d="M 131.736 193.52 
L 137.67 193.52 
L 137.67 192.606161 
L 131.736 192.606161 
z
" clip-path="url(#pd081cf563e)" style="fill: #dc706b; opacity: 0.6"/>
   </g>
   <g id="patch_23">
    <path d="M 137.67 193.52 
L 143.604 193.52 
L 143.604 151.840029 
L 137.67 151.840029 
z
" clip-path="url(#pd081cf563e)" style="fill: #dc706b; opacity: 0.6"/>
   </g>
   <g id="patch_24">
    <path d="M 143.604 193.52 
L 149.538 193.52 
L 149.538 64.579554 
L 143.604 64.579554 
z
" clip-path="url(#pd081cf563e)" style="fill: #dc706b; opacity: 0.6"/>
   </g>
   <g id="patch_25">
    <path d="M 149.538 193.52 
L 155.472 193.52 
L 155.472 144.083542 
L 149.538 144.083542 
z
" clip-path="url(#pd081cf563e)" style="fill: #dc706b; opacity: 0.6"/>
   </g>
   <g id="patch_26">
    <path d="M 155.472 193.52 
L 161.406 193.52 
L 161.406 191.580878 
L 155.472 191.580878 
z
" clip-path="url(#pd081cf563e)" style="fill: #dc706b; opacity: 0.6"/>
   </g>
   <g id="patch_27">
    <path d="M 161.406 193.52 
L 167.34 193.52 
L 167.34 193.52 
L 161.406 193.52 
z
" clip-path="url(#pd081cf563e)" style="fill: #dc706b; opacity: 0.6"/>
   </g>
   <g id="patch_28">
    <path d="M 167.34 193.52 
L 173.274 193.52 
L 173.274 193.52 
L 167.34 193.52 
z
" clip-path="url(#pd081cf563e)" style="fill: #dc706b; opacity: 0.6"/>
   </g>
   <g id="patch_29">
    <path d="M 173.274 193.52 
L 179.208 193.52 
L 179.208 193.52 
L 173.274 193.52 
z
" clip-path="url(#pd081cf563e)" style="fill: #dc706b; opacity: 0.6"/>
   </g>
   <g id="patch_30">
    <path d="M 179.208 193.52 
L 185.142 193.52 
L 185.142 193.52 
L 179.208 193.52 
z
" clip-path="url(#pd081cf563e)" style="fill: #dc706b; opacity: 0.6"/>
   </g>
   <g id="patch_31">
    <path d="M 185.142 193.52 
L 191.076 193.52 
L 191.076 193.52 
L 185.142 193.52 
z
" clip-path="url(#pd081cf563e)" style="fill: #dc706b; opacity: 0.6"/>
   </g>
   <g id="patch_32">
    <path d="M 191.076 193.52 
L 197.01 193.52 
L 197.01 193.52 
L 191.076 193.52 
z
" clip-path="url(#pd081cf563e)" style="fill: #dc706b; opacity: 0.6"/>
   </g>
   <g id="patch_33">
    <path d="M 18.99 193.52 
L 24.924 193.52 
L 24.924 193.52 
L 18.99 193.52 
z
" clip-path="url(#pd081cf563e)" style="fill: #85c3c4; opacity: 0.6"/>
   </g>
   <g id="patch_34">
    <path d="M 24.924 193.52 
L 30.858 193.52 
L 30.858 193.52 
L 24.924 193.52 
z
" clip-path="url(#pd081cf563e)" style="fill: #85c3c4; opacity: 0.6"/>
   </g>
   <g id="patch_35">
    <path d="M 30.858 193.52 
L 36.792 193.52 
L 36.792 193.52 
L 30.858 193.52 
z
" clip-path="url(#pd081cf563e)" style="fill: #85c3c4; opacity: 0.6"/>
   </g>
   <g id="patch_36">
    <path d="M 36.792 193.52 
L 42.726 193.52 
L 42.726 193.52 
L 36.792 193.52 
z
" clip-path="url(#pd081cf563e)" style="fill: #85c3c4; opacity: 0.6"/>
   </g>
   <g id="patch_37">
    <path d="M 42.726 193.52 
L 48.66 193.52 
L 48.66 193.52 
L 42.726 193.52 
z
" clip-path="url(#pd081cf563e)" style="fill: #85c3c4; opacity: 0.6"/>
   </g>
   <g id="patch_38">
    <path d="M 48.66 193.52 
L 54.594 193.52 
L 54.594 193.52 
L 48.66 193.52 
z
" clip-path="url(#pd081cf563e)" style="fill: #85c3c4; opacity: 0.6"/>
   </g>
   <g id="patch_39">
    <path d="M 54.594 193.52 
L 60.528 193.52 
L 60.528 193.52 
L 54.594 193.52 
z
" clip-path="url(#pd081cf563e)" style="fill: #85c3c4; opacity: 0.6"/>
   </g>
   <g id="patch_40">
    <path d="M 60.528 193.52 
L 66.462 193.52 
L 66.462 193.52 
L 60.528 193.52 
z
" clip-path="url(#pd081cf563e)" style="fill: #85c3c4; opacity: 0.6"/>
   </g>
   <g id="patch_41">
    <path d="M 66.462 193.52 
L 72.396 193.52 
L 72.396 193.52 
L 66.462 193.52 
z
" clip-path="url(#pd081cf563e)" style="fill: #85c3c4; opacity: 0.6"/>
   </g>
   <g id="patch_42">
    <path d="M 72.396 193.52 
L 78.33 193.52 
L 78.33 193.52 
L 72.396 193.52 
z
" clip-path="url(#pd081cf563e)" style="fill: #85c3c4; opacity: 0.6"/>
   </g>
   <g id="patch_43">
    <path d="M 78.33 193.52 
L 84.264 193.52 
L 84.264 193.52 
L 78.33 193.52 
z
" clip-path="url(#pd081cf563e)" style="fill: #85c3c4; opacity: 0.6"/>
   </g>
   <g id="patch_44">
    <path d="M 84.264 193.52 
L 90.198 193.52 
L 90.198 193.52 
L 84.264 193.52 
z
" clip-path="url(#pd081cf563e)" style="fill: #85c3c4; opacity: 0.6"/>
   </g>
   <g id="patch_45">
    <path d="M 90.198 193.52 
L 96.132 193.52 
L 96.132 193.52 
L 90.198 193.52 
z
" clip-path="url(#pd081cf563e)" style="fill: #85c3c4; opacity: 0.6"/>
   </g>
   <g id="patch_46">
    <path d="M 96.132 193.52 
L 102.066 193.52 
L 102.066 193.52 
L 96.132 193.52 
z
" clip-path="url(#pd081cf563e)" style="fill: #85c3c4; opacity: 0.6"/>
   </g>
   <g id="patch_47">
    <path d="M 102.066 193.52 
L 108 193.52 
L 108 193.52 
L 102.066 193.52 
z
" clip-path="url(#pd081cf563e)" style="fill: #85c3c4; opacity: 0.6"/>
   </g>
   <g id="patch_48">
    <path d="M 108 193.52 
L 113.934 193.52 
L 113.934 193.52 
L 108 193.52 
z
" clip-path="url(#pd081cf563e)" style="fill: #85c3c4; opacity: 0.6"/>
   </g>
   <g id="patch_49">
    <path d="M 113.934 193.52 
L 119.868 193.52 
L 119.868 193.52 
L 113.934 193.52 
z
" clip-path="url(#pd081cf563e)" style="fill: #85c3c4; opacity: 0.6"/>
   </g>
   <g id="patch_50">
    <path d="M 119.868 193.52 
L 125.802 193.52 
L 125.802 193.52 
L 119.868 193.52 
z
" clip-path="url(#pd081cf563e)" style="fill: #85c3c4; opacity: 0.6"/>
   </g>
   <g id="patch_51">
    <path d="M 125.802 193.52 
L 131.736 193.52 
L 131.736 193.52 
L 125.802 193.52 
z
" clip-path="url(#pd081cf563e)" style="fill: #85c3c4; opacity: 0.6"/>
   </g>
   <g id="patch_52">
    <path d="M 131.736 193.52 
L 137.67 193.52 
L 137.67 157.61506 
L 131.736 157.61506 
z
" clip-path="url(#pd081cf563e)" style="fill: #85c3c4; opacity: 0.6"/>
   </g>
   <g id="patch_53">
    <path d="M 137.67 193.52 
L 143.604 193.52 
L 143.604 33.44381 
L 137.67 33.44381 
z
" clip-path="url(#pd081cf563e)" style="fill: #85c3c4; opacity: 0.6"/>
   </g>
   <g id="patch_54">
    <path d="M 143.604 193.52 
L 149.538 193.52 
L 149.538 166.591295 
L 143.604 166.591295 
z
" clip-path="url(#pd081cf563e)" style="fill: #85c3c4; opacity: 0.6"/>
   </g>
   <g id="patch_55">
    <path d="M 149.538 193.52 
L 155.472 193.52 
L 155.472 193.52 
L 149.538 193.52 
z
" clip-path="url(#pd081cf563e)" style="fill: #85c3c4; opacity: 0.6"/>
   </g>
   <g id="patch_56">
    <path d="M 155.472 193.52 
L 161.406 193.52 
L 161.406 193.52 
L 155.472 193.52 
z
" clip-path="url(#pd081cf563e)" style="fill: #85c3c4; opacity: 0.6"/>
   </g>
   <g id="patch_57">
    <path d="M 161.406 193.52 
L 167.34 193.52 
L 167.34 193.52 
L 161.406 193.52 
z
" clip-path="url(#pd081cf563e)" style="fill: #85c3c4; opacity: 0.6"/>
   </g>
   <g id="patch_58">
    <path d="M 167.34 193.52 
L 173.274 193.52 
L 173.274 193.52 
L 167.34 193.52 
z
" clip-path="url(#pd081cf563e)" style="fill: #85c3c4; opacity: 0.6"/>
   </g>
   <g id="patch_59">
    <path d="M 173.274 193.52 
L 179.208 193.52 
L 179.208 193.52 
L 173.274 193.52 
z
" clip-path="url(#pd081cf563e)" style="fill: #85c3c4; opacity: 0.6"/>
   </g>
   <g id="patch_60">
    <path d="M 179.208 193.52 
L 185.142 193.52 
L 185.142 193.52 
L 179.208 193.52 
z
" clip-path="url(#pd081cf563e)" style="fill: #85c3c4; opacity: 0.6"/>
   </g>
   <g id="patch_61">
    <path d="M 185.142 193.52 
L 191.076 193.52 
L 191.076 193.52 
L 185.142 193.52 
z
" clip-path="url(#pd081cf563e)" style="fill: #85c3c4; opacity: 0.6"/>
   </g>
   <g id="patch_62">
    <path d="M 191.076 193.52 
L 197.01 193.52 
L 197.01 193.52 
L 191.076 193.52 
z
" clip-path="url(#pd081cf563e)" style="fill: #85c3c4; opacity: 0.6"/>
   </g>
   <g id="matplotlib.axis_1">
    <g id="xtick_1">
     <g id="line2d_1">
      <defs>
       <path id="m8ce41c7209" d="M 0 0 
L 0 3.5 
" style="stroke: #000000; stroke-width: 0.8"/>
      </defs>
      <g>
       <use xlink:href="#m8ce41c7209" x="18.99" y="193.52" style="stroke: #000000; stroke-width: 0.8"/>
      </g>
     </g>
     <g id="text_1">
      <!-- 0 Å -->
      <g transform="translate(10.799375 208.118437) scale(0.1 -0.1)">
       <defs>
        <path id="DejaVuSans-30" d="M 2034 4250 
Q 1547 4250 1301 3770 
Q 1056 3291 1056 2328 
Q 1056 1369 1301 889 
Q 1547 409 2034 409 
Q 2525 409 2770 889 
Q 3016 1369 3016 2328 
Q 3016 3291 2770 3770 
Q 2525 4250 2034 4250 
z
M 2034 4750 
Q 2819 4750 3233 4129 
Q 3647 3509 3647 2328 
Q 3647 1150 3233 529 
Q 2819 -91 2034 -91 
Q 1250 -91 836 529 
Q 422 1150 422 2328 
Q 422 3509 836 4129 
Q 1250 4750 2034 4750 
z
" transform="scale(0.015625)"/>
        <path id="DejaVuSans-20" transform="scale(0.015625)"/>
        <path id="DejaVuSans-c5" d="M 2663 5081 
Q 2663 5278 2523 5417 
Q 2384 5556 2188 5556 
Q 1988 5556 1852 5420 
Q 1716 5284 1716 5081 
Q 1716 4884 1853 4746 
Q 1991 4609 2188 4609 
Q 2384 4609 2523 4746 
Q 2663 4884 2663 5081 
z
M 2188 4044 
L 1338 1722 
L 3041 1722 
L 2188 4044 
z
M 1716 4366 
Q 1525 4494 1428 4673 
Q 1331 4853 1331 5081 
Q 1331 5441 1579 5691 
Q 1828 5941 2188 5941 
Q 2544 5941 2795 5689 
Q 3047 5438 3047 5081 
Q 3047 4863 2948 4678 
Q 2850 4494 2663 4366 
L 4325 0 
L 3669 0 
L 3244 1197 
L 1141 1197 
L 716 0 
L 50 0 
L 1716 4366 
z
" transform="scale(0.015625)"/>
       </defs>
       <use xlink:href="#DejaVuSans-30"/>
       <use xlink:href="#DejaVuSans-20" x="63.623047"/>
       <use xlink:href="#DejaVuSans-c5" x="95.410156"/>
      </g>
     </g>
    </g>
    <g id="xtick_2">
     <g id="line2d_2">
      <g>
       <use xlink:href="#m8ce41c7209" x="78.33" y="193.52" style="stroke: #000000; stroke-width: 0.8"/>
      </g>
     </g>
     <g id="text_2">
      <!-- 1 Å -->
      <g transform="translate(70.139375 208.118437) scale(0.1 -0.1)">
       <defs>
        <path id="DejaVuSans-31" d="M 794 531 
L 1825 531 
L 1825 4091 
L 703 3866 
L 703 4441 
L 1819 4666 
L 2450 4666 
L 2450 531 
L 3481 531 
L 3481 0 
L 794 0 
L 794 531 
z
" transform="scale(0.015625)"/>
       </defs>
       <use xlink:href="#DejaVuSans-31"/>
       <use xlink:href="#DejaVuSans-20" x="63.623047"/>
       <use xlink:href="#DejaVuSans-c5" x="95.410156"/>
      </g>
     </g>
    </g>
    <g id="xtick_3">
     <g id="line2d_3">
      <g>
       <use xlink:href="#m8ce41c7209" x="137.67" y="193.52" style="stroke: #000000; stroke-width: 0.8"/>
      </g>
     </g>
     <g id="text_3">
      <!-- 2 Å -->
      <g transform="translate(129.479375 208.118437) scale(0.1 -0.1)">
       <defs>
        <path id="DejaVuSans-32" d="M 1228 531 
L 3431 531 
L 3431 0 
L 469 0 
L 469 531 
Q 828 903 1448 1529 
Q 2069 2156 2228 2338 
Q 2531 2678 2651 2914 
Q 2772 3150 2772 3378 
Q 2772 3750 2511 3984 
Q 2250 4219 1831 4219 
Q 1534 4219 1204 4116 
Q 875 4013 500 3803 
L 500 4441 
Q 881 4594 1212 4672 
Q 1544 4750 1819 4750 
Q 2544 4750 2975 4387 
Q 3406 4025 3406 3419 
Q 3406 3131 3298 2873 
Q 3191 2616 2906 2266 
Q 2828 2175 2409 1742 
Q 1991 1309 1228 531 
z
" transform="scale(0.015625)"/>
       </defs>
       <use xlink:href="#DejaVuSans-32"/>
       <use xlink:href="#DejaVuSans-20" x="63.623047"/>
       <use xlink:href="#DejaVuSans-c5" x="95.410156"/>
      </g>
     </g>
    </g>
    <g id="xtick_4">
     <g id="line2d_4">
      <g>
       <use xlink:href="#m8ce41c7209" x="197.01" y="193.52" style="stroke: #000000; stroke-width: 0.8"/>
      </g>
     </g>
     <g id="text_4">
      <!-- 3 Å -->
      <g transform="translate(188.819375 208.118437) scale(0.1 -0.1)">
       <defs>
        <path id="DejaVuSans-33" d="M 2597 2516 
Q 3050 2419 3304 2112 
Q 3559 1806 3559 1356 
Q 3559 666 3084 287 
Q 2609 -91 1734 -91 
Q 1441 -91 1130 -33 
Q 819 25 488 141 
L 488 750 
Q 750 597 1062 519 
Q 1375 441 1716 441 
Q 2309 441 2620 675 
Q 2931 909 2931 1356 
Q 2931 1769 2642 2001 
Q 2353 2234 1838 2234 
L 1294 2234 
L 1294 2753 
L 1863 2753 
Q 2328 2753 2575 2939 
Q 2822 3125 2822 3475 
Q 2822 3834 2567 4026 
Q 2313 4219 1838 4219 
Q 1578 4219 1281 4162 
Q 984 4106 628 3988 
L 628 4550 
Q 988 4650 1302 4700 
Q 1616 4750 1894 4750 
Q 2613 4750 3031 4423 
Q 3450 4097 3450 3541 
Q 3450 3153 3228 2886 
Q 3006 2619 2597 2516 
z
" transform="scale(0.015625)"/>
       </defs>
       <use xlink:href="#DejaVuSans-33"/>
       <use xlink:href="#DejaVuSans-20" x="63.623047"/>
       <use xlink:href="#DejaVuSans-c5" x="95.410156"/>
      </g>
     </g>
    </g>
   </g>
   <g id="patch_63">
    <path d="M 18.99 193.52 
L 18.99 25.44 
" style="fill: none; stroke: #000000; stroke-width: 0.8; stroke-linejoin: miter; stroke-linecap: square"/>
   </g>
   <g id="patch_64">
    <path d="M 197.01 193.52 
L 197.01 25.44 
" style="fill: none; stroke: #000000; stroke-width: 0.8; stroke-linejoin: miter; stroke-linecap: square"/>
   </g>
   <g id="patch_65">
    <path d="M 18.99 193.52 
L 197.01 193.52 
" style="fill: none; stroke: #000000; stroke-width: 0.8; stroke-linejoin: miter; stroke-linecap: square"/>
   </g>
   <g id="patch_66">
    <path d="M 18.99 25.44 
L 197.01 25.44 
" style="fill: none; stroke: #000000; stroke-width: 0.8; stroke-linejoin: miter; stroke-linecap: square"/>
   </g>
   <g id="text_5">
    <!-- NKP-N8 and NKP-RU1 -->
    <g transform="translate(44.071875 19.44) scale(0.12 -0.12)">
     <defs>
      <path id="DejaVuSans-4e" d="M 628 4666 
L 1478 4666 
L 3547 763 
L 3547 4666 
L 4159 4666 
L 4159 0 
L 3309 0 
L 1241 3903 
L 1241 0 
L 628 0 
L 628 4666 
z
" transform="scale(0.015625)"/>
      <path id="DejaVuSans-4b" d="M 628 4666 
L 1259 4666 
L 1259 2694 
L 3353 4666 
L 4166 4666 
L 1850 2491 
L 4331 0 
L 3500 0 
L 1259 2247 
L 1259 0 
L 628 0 
L 628 4666 
z
" transform="scale(0.015625)"/>
      <path id="DejaVuSans-50" d="M 1259 4147 
L 1259 2394 
L 2053 2394 
Q 2494 2394 2734 2622 
Q 2975 2850 2975 3272 
Q 2975 3691 2734 3919 
Q 2494 4147 2053 4147 
L 1259 4147 
z
M 628 4666 
L 2053 4666 
Q 2838 4666 3239 4311 
Q 3641 3956 3641 3272 
Q 3641 2581 3239 2228 
Q 2838 1875 2053 1875 
L 1259 1875 
L 1259 0 
L 628 0 
L 628 4666 
z
" transform="scale(0.015625)"/>
      <path id="DejaVuSans-2d" d="M 313 2009 
L 1997 2009 
L 1997 1497 
L 313 1497 
L 313 2009 
z
" transform="scale(0.015625)"/>
      <path id="DejaVuSans-38" d="M 2034 2216 
Q 1584 2216 1326 1975 
Q 1069 1734 1069 1313 
Q 1069 891 1326 650 
Q 1584 409 2034 409 
Q 2484 409 2743 651 
Q 3003 894 3003 1313 
Q 3003 1734 2745 1975 
Q 2488 2216 2034 2216 
z
M 1403 2484 
Q 997 2584 770 2862 
Q 544 3141 544 3541 
Q 544 4100 942 4425 
Q 1341 4750 2034 4750 
Q 2731 4750 3128 4425 
Q 3525 4100 3525 3541 
Q 3525 3141 3298 2862 
Q 3072 2584 2669 2484 
Q 3125 2378 3379 2068 
Q 3634 1759 3634 1313 
Q 3634 634 3220 271 
Q 2806 -91 2034 -91 
Q 1263 -91 848 271 
Q 434 634 434 1313 
Q 434 1759 690 2068 
Q 947 2378 1403 2484 
z
M 1172 3481 
Q 1172 3119 1398 2916 
Q 1625 2713 2034 2713 
Q 2441 2713 2670 2916 
Q 2900 3119 2900 3481 
Q 2900 3844 2670 4047 
Q 2441 4250 2034 4250 
Q 1625 4250 1398 4047 
Q 1172 3844 1172 3481 
z
" transform="scale(0.015625)"/>
      <path id="DejaVuSans-61" d="M 2194 1759 
Q 1497 1759 1228 1600 
Q 959 1441 959 1056 
Q 959 750 1161 570 
Q 1363 391 1709 391 
Q 2188 391 2477 730 
Q 2766 1069 2766 1631 
L 2766 1759 
L 2194 1759 
z
M 3341 1997 
L 3341 0 
L 2766 0 
L 2766 531 
Q 2569 213 2275 61 
Q 1981 -91 1556 -91 
Q 1019 -91 701 211 
Q 384 513 384 1019 
Q 384 1609 779 1909 
Q 1175 2209 1959 2209 
L 2766 2209 
L 2766 2266 
Q 2766 2663 2505 2880 
Q 2244 3097 1772 3097 
Q 1472 3097 1187 3025 
Q 903 2953 641 2809 
L 641 3341 
Q 956 3463 1253 3523 
Q 1550 3584 1831 3584 
Q 2591 3584 2966 3190 
Q 3341 2797 3341 1997 
z
" transform="scale(0.015625)"/>
      <path id="DejaVuSans-6e" d="M 3513 2113 
L 3513 0 
L 2938 0 
L 2938 2094 
Q 2938 2591 2744 2837 
Q 2550 3084 2163 3084 
Q 1697 3084 1428 2787 
Q 1159 2491 1159 1978 
L 1159 0 
L 581 0 
L 581 3500 
L 1159 3500 
L 1159 2956 
Q 1366 3272 1645 3428 
Q 1925 3584 2291 3584 
Q 2894 3584 3203 3211 
Q 3513 2838 3513 2113 
z
" transform="scale(0.015625)"/>
      <path id="DejaVuSans-64" d="M 2906 2969 
L 2906 4863 
L 3481 4863 
L 3481 0 
L 2906 0 
L 2906 525 
Q 2725 213 2448 61 
Q 2172 -91 1784 -91 
Q 1150 -91 751 415 
Q 353 922 353 1747 
Q 353 2572 751 3078 
Q 1150 3584 1784 3584 
Q 2172 3584 2448 3432 
Q 2725 3281 2906 2969 
z
M 947 1747 
Q 947 1113 1208 752 
Q 1469 391 1925 391 
Q 2381 391 2643 752 
Q 2906 1113 2906 1747 
Q 2906 2381 2643 2742 
Q 2381 3103 1925 3103 
Q 1469 3103 1208 2742 
Q 947 2381 947 1747 
z
" transform="scale(0.015625)"/>
      <path id="DejaVuSans-52" d="M 2841 2188 
Q 3044 2119 3236 1894 
Q 3428 1669 3622 1275 
L 4263 0 
L 3584 0 
L 2988 1197 
Q 2756 1666 2539 1819 
Q 2322 1972 1947 1972 
L 1259 1972 
L 1259 0 
L 628 0 
L 628 4666 
L 2053 4666 
Q 2853 4666 3247 4331 
Q 3641 3997 3641 3322 
Q 3641 2881 3436 2590 
Q 3231 2300 2841 2188 
z
M 1259 4147 
L 1259 2491 
L 2053 2491 
Q 2509 2491 2742 2702 
Q 2975 2913 2975 3322 
Q 2975 3731 2742 3939 
Q 2509 4147 2053 4147 
L 1259 4147 
z
" transform="scale(0.015625)"/>
      <path id="DejaVuSans-55" d="M 556 4666 
L 1191 4666 
L 1191 1831 
Q 1191 1081 1462 751 
Q 1734 422 2344 422 
Q 2950 422 3222 751 
Q 3494 1081 3494 1831 
L 3494 4666 
L 4128 4666 
L 4128 1753 
Q 4128 841 3676 375 
Q 3225 -91 2344 -91 
Q 1459 -91 1007 375 
Q 556 841 556 1753 
L 556 4666 
z
" transform="scale(0.015625)"/>
     </defs>
     <use xlink:href="#DejaVuSans-4e"/>
     <use xlink:href="#DejaVuSans-4b" x="74.804688"/>
     <use xlink:href="#DejaVuSans-50" x="140.380859"/>
     <use xlink:href="#DejaVuSans-2d" x="198.433594"/>
     <use xlink:href="#DejaVuSans-4e" x="234.517578"/>
     <use xlink:href="#DejaVuSans-38" x="309.322266"/>
     <use xlink:href="#DejaVuSans-20" x="372.945312"/>
     <use xlink:href="#DejaVuSans-61" x="404.732422"/>
     <use xlink:href="#DejaVuSans-6e" x="466.011719"/>
     <use xlink:href="#DejaVuSans-64" x="529.390625"/>
     <use xlink:href="#DejaVuSans-20" x="592.867188"/>
     <use xlink:href="#DejaVuSans-4e" x="624.654297"/>
     <use xlink:href="#DejaVuSans-4b" x="699.458984"/>
     <use xlink:href="#DejaVuSans-50" x="765.035156"/>
     <use xlink:href="#DejaVuSans-2d" x="823.087891"/>
     <use xlink:href="#DejaVuSans-52" x="859.171875"/>
     <use xlink:href="#DejaVuSans-55" x="928.654297"/>
     <use xlink:href="#DejaVuSans-31" x="1001.847656"/>
    </g>
   </g>
  </g>
  <g id="axes_2">
   <g id="patch_67">
    <path d="M 18.99 404.12 
L 197.01 404.12 
L 197.01 236.04 
L 18.99 236.04 
z
" style="fill: #ffffff"/>
   </g>
   <g id="patch_68">
    <path d="M 18.99 404.12 
L 24.924 404.12 
L 24.924 404.12 
L 18.99 404.12 
z
" clip-path="url(#p7cd99eb59f)" style="fill: #dc706b; opacity: 0.6"/>
   </g>
   <g id="patch_69">
    <path d="M 24.924 404.12 
L 30.858 404.12 
L 30.858 404.12 
L 24.924 404.12 
z
" clip-path="url(#p7cd99eb59f)" style="fill: #dc706b; opacity: 0.6"/>
   </g>
   <g id="patch_70">
    <path d="M 30.858 404.12 
L 36.792 404.12 
L 36.792 404.12 
L 30.858 404.12 
z
" clip-path="url(#p7cd99eb59f)" style="fill: #dc706b; opacity: 0.6"/>
   </g>
   <g id="patch_71">
    <path d="M 36.792 404.12 
L 42.726 404.12 
L 42.726 404.12 
L 36.792 404.12 
z
" clip-path="url(#p7cd99eb59f)" style="fill: #dc706b; opacity: 0.6"/>
   </g>
   <g id="patch_72">
    <path d="M 42.726 404.12 
L 48.66 404.12 
L 48.66 404.12 
L 42.726 404.12 
z
" clip-path="url(#p7cd99eb59f)" style="fill: #dc706b; opacity: 0.6"/>
   </g>
   <g id="patch_73">
    <path d="M 48.66 404.12 
L 54.594 404.12 
L 54.594 404.12 
L 48.66 404.12 
z
" clip-path="url(#p7cd99eb59f)" style="fill: #dc706b; opacity: 0.6"/>
   </g>
   <g id="patch_74">
    <path d="M 54.594 404.12 
L 60.528 404.12 
L 60.528 404.12 
L 54.594 404.12 
z
" clip-path="url(#p7cd99eb59f)" style="fill: #dc706b; opacity: 0.6"/>
   </g>
   <g id="patch_75">
    <path d="M 60.528 404.12 
L 66.462 404.12 
L 66.462 404.12 
L 60.528 404.12 
z
" clip-path="url(#p7cd99eb59f)" style="fill: #dc706b; opacity: 0.6"/>
   </g>
   <g id="patch_76">
    <path d="M 66.462 404.12 
L 72.396 404.12 
L 72.396 404.12 
L 66.462 404.12 
z
" clip-path="url(#p7cd99eb59f)" style="fill: #dc706b; opacity: 0.6"/>
   </g>
   <g id="patch_77">
    <path d="M 72.396 404.12 
L 78.33 404.12 
L 78.33 404.12 
L 72.396 404.12 
z
" clip-path="url(#p7cd99eb59f)" style="fill: #dc706b; opacity: 0.6"/>
   </g>
   <g id="patch_78">
    <path d="M 78.33 404.12 
L 84.264 404.12 
L 84.264 404.12 
L 78.33 404.12 
z
" clip-path="url(#p7cd99eb59f)" style="fill: #dc706b; opacity: 0.6"/>
   </g>
   <g id="patch_79">
    <path d="M 84.264 404.12 
L 90.198 404.12 
L 90.198 404.12 
L 84.264 404.12 
z
" clip-path="url(#p7cd99eb59f)" style="fill: #dc706b; opacity: 0.6"/>
   </g>
   <g id="patch_80">
    <path d="M 90.198 404.12 
L 96.132 404.12 
L 96.132 404.12 
L 90.198 404.12 
z
" clip-path="url(#p7cd99eb59f)" style="fill: #dc706b; opacity: 0.6"/>
   </g>
   <g id="patch_81">
    <path d="M 96.132 404.12 
L 102.066 404.12 
L 102.066 404.12 
L 96.132 404.12 
z
" clip-path="url(#p7cd99eb59f)" style="fill: #dc706b; opacity: 0.6"/>
   </g>
   <g id="patch_82">
    <path d="M 102.066 404.12 
L 108 404.12 
L 108 404.12 
L 102.066 404.12 
z
" clip-path="url(#p7cd99eb59f)" style="fill: #dc706b; opacity: 0.6"/>
   </g>
   <g id="patch_83">
    <path d="M 108 404.12 
L 113.934 404.12 
L 113.934 404.12 
L 108 404.12 
z
" clip-path="url(#p7cd99eb59f)" style="fill: #dc706b; opacity: 0.6"/>
   </g>
   <g id="patch_84">
    <path d="M 113.934 404.12 
L 119.868 404.12 
L 119.868 404.12 
L 113.934 404.12 
z
" clip-path="url(#p7cd99eb59f)" style="fill: #dc706b; opacity: 0.6"/>
   </g>
   <g id="patch_85">
    <path d="M 119.868 404.12 
L 125.802 404.12 
L 125.802 404.12 
L 119.868 404.12 
z
" clip-path="url(#p7cd99eb59f)" style="fill: #dc706b; opacity: 0.6"/>
   </g>
   <g id="patch_86">
    <path d="M 125.802 404.12 
L 131.736 404.12 
L 131.736 404.12 
L 125.802 404.12 
z
" clip-path="url(#p7cd99eb59f)" style="fill: #dc706b; opacity: 0.6"/>
   </g>
   <g id="patch_87">
    <path d="M 131.736 404.12 
L 137.67 404.12 
L 137.67 403.003665 
L 131.736 403.003665 
z
" clip-path="url(#p7cd99eb59f)" style="fill: #dc706b; opacity: 0.6"/>
   </g>
   <g id="patch_88">
    <path d="M 137.67 404.12 
L 143.604 404.12 
L 143.604 362.714133 
L 137.67 362.714133 
z
" clip-path="url(#p7cd99eb59f)" style="fill: #dc706b; opacity: 0.6"/>
   </g>
   <g id="patch_89">
    <path d="M 143.604 404.12 
L 149.538 404.12 
L 149.538 253.820762 
L 143.604 253.820762 
z
" clip-path="url(#p7cd99eb59f)" style="fill: #dc706b; opacity: 0.6"/>
   </g>
   <g id="patch_90">
    <path d="M 149.538 404.12 
L 155.472 404.12 
L 155.472 345.715401 
L 149.538 345.715401 
z
" clip-path="url(#p7cd99eb59f)" style="fill: #dc706b; opacity: 0.6"/>
   </g>
   <g id="patch_91">
    <path d="M 155.472 404.12 
L 161.406 404.12 
L 161.406 401.608247 
L 155.472 401.608247 
z
" clip-path="url(#p7cd99eb59f)" style="fill: #dc706b; opacity: 0.6"/>
   </g>
   <g id="patch_92">
    <path d="M 161.406 404.12 
L 167.34 404.12 
L 167.34 404.12 
L 161.406 404.12 
z
" clip-path="url(#p7cd99eb59f)" style="fill: #dc706b; opacity: 0.6"/>
   </g>
   <g id="patch_93">
    <path d="M 167.34 404.12 
L 173.274 404.12 
L 173.274 404.12 
L 167.34 404.12 
z
" clip-path="url(#p7cd99eb59f)" style="fill: #dc706b; opacity: 0.6"/>
   </g>
   <g id="patch_94">
    <path d="M 173.274 404.12 
L 179.208 404.12 
L 179.208 404.12 
L 173.274 404.12 
z
" clip-path="url(#p7cd99eb59f)" style="fill: #dc706b; opacity: 0.6"/>
   </g>
   <g id="patch_95">
    <path d="M 179.208 404.12 
L 185.142 404.12 
L 185.142 404.12 
L 179.208 404.12 
z
" clip-path="url(#p7cd99eb59f)" style="fill: #dc706b; opacity: 0.6"/>
   </g>
   <g id="patch_96">
    <path d="M 185.142 404.12 
L 191.076 404.12 
L 191.076 404.12 
L 185.142 404.12 
z
" clip-path="url(#p7cd99eb59f)" style="fill: #dc706b; opacity: 0.6"/>
   </g>
   <g id="patch_97">
    <path d="M 191.076 404.12 
L 197.01 404.12 
L 197.01 404.12 
L 191.076 404.12 
z
" clip-path="url(#p7cd99eb59f)" style="fill: #dc706b; opacity: 0.6"/>
   </g>
   <g id="patch_98">
    <path d="M 18.99 404.12 
L 24.924 404.12 
L 24.924 404.12 
L 18.99 404.12 
z
" clip-path="url(#p7cd99eb59f)" style="fill: #85c3c4; opacity: 0.6"/>
   </g>
   <g id="patch_99">
    <path d="M 24.924 404.12 
L 30.858 404.12 
L 30.858 404.12 
L 24.924 404.12 
z
" clip-path="url(#p7cd99eb59f)" style="fill: #85c3c4; opacity: 0.6"/>
   </g>
   <g id="patch_100">
    <path d="M 30.858 404.12 
L 36.792 404.12 
L 36.792 404.12 
L 30.858 404.12 
z
" clip-path="url(#p7cd99eb59f)" style="fill: #85c3c4; opacity: 0.6"/>
   </g>
   <g id="patch_101">
    <path d="M 36.792 404.12 
L 42.726 404.12 
L 42.726 404.12 
L 36.792 404.12 
z
" clip-path="url(#p7cd99eb59f)" style="fill: #85c3c4; opacity: 0.6"/>
   </g>
   <g id="patch_102">
    <path d="M 42.726 404.12 
L 48.66 404.12 
L 48.66 404.12 
L 42.726 404.12 
z
" clip-path="url(#p7cd99eb59f)" style="fill: #85c3c4; opacity: 0.6"/>
   </g>
   <g id="patch_103">
    <path d="M 48.66 404.12 
L 54.594 404.12 
L 54.594 404.12 
L 48.66 404.12 
z
" clip-path="url(#p7cd99eb59f)" style="fill: #85c3c4; opacity: 0.6"/>
   </g>
   <g id="patch_104">
    <path d="M 54.594 404.12 
L 60.528 404.12 
L 60.528 404.12 
L 54.594 404.12 
z
" clip-path="url(#p7cd99eb59f)" style="fill: #85c3c4; opacity: 0.6"/>
   </g>
   <g id="patch_105">
    <path d="M 60.528 404.12 
L 66.462 404.12 
L 66.462 404.12 
L 60.528 404.12 
z
" clip-path="url(#p7cd99eb59f)" style="fill: #85c3c4; opacity: 0.6"/>
   </g>
   <g id="patch_106">
    <path d="M 66.462 404.12 
L 72.396 404.12 
L 72.396 404.12 
L 66.462 404.12 
z
" clip-path="url(#p7cd99eb59f)" style="fill: #85c3c4; opacity: 0.6"/>
   </g>
   <g id="patch_107">
    <path d="M 72.396 404.12 
L 78.33 404.12 
L 78.33 404.12 
L 72.396 404.12 
z
" clip-path="url(#p7cd99eb59f)" style="fill: #85c3c4; opacity: 0.6"/>
   </g>
   <g id="patch_108">
    <path d="M 78.33 404.12 
L 84.264 404.12 
L 84.264 404.12 
L 78.33 404.12 
z
" clip-path="url(#p7cd99eb59f)" style="fill: #85c3c4; opacity: 0.6"/>
   </g>
   <g id="patch_109">
    <path d="M 84.264 404.12 
L 90.198 404.12 
L 90.198 404.12 
L 84.264 404.12 
z
" clip-path="url(#p7cd99eb59f)" style="fill: #85c3c4; opacity: 0.6"/>
   </g>
   <g id="patch_110">
    <path d="M 90.198 404.12 
L 96.132 404.12 
L 96.132 404.12 
L 90.198 404.12 
z
" clip-path="url(#p7cd99eb59f)" style="fill: #85c3c4; opacity: 0.6"/>
   </g>
   <g id="patch_111">
    <path d="M 96.132 404.12 
L 102.066 404.12 
L 102.066 404.12 
L 96.132 404.12 
z
" clip-path="url(#p7cd99eb59f)" style="fill: #85c3c4; opacity: 0.6"/>
   </g>
   <g id="patch_112">
    <path d="M 102.066 404.12 
L 108 404.12 
L 108 404.12 
L 102.066 404.12 
z
" clip-path="url(#p7cd99eb59f)" style="fill: #85c3c4; opacity: 0.6"/>
   </g>
   <g id="patch_113">
    <path d="M 108 404.12 
L 113.934 404.12 
L 113.934 404.12 
L 108 404.12 
z
" clip-path="url(#p7cd99eb59f)" style="fill: #85c3c4; opacity: 0.6"/>
   </g>
   <g id="patch_114">
    <path d="M 113.934 404.12 
L 119.868 404.12 
L 119.868 404.12 
L 113.934 404.12 
z
" clip-path="url(#p7cd99eb59f)" style="fill: #85c3c4; opacity: 0.6"/>
   </g>
   <g id="patch_115">
    <path d="M 119.868 404.12 
L 125.802 404.12 
L 125.802 404.12 
L 119.868 404.12 
z
" clip-path="url(#p7cd99eb59f)" style="fill: #85c3c4; opacity: 0.6"/>
   </g>
   <g id="patch_116">
    <path d="M 125.802 404.12 
L 131.736 404.12 
L 131.736 404.12 
L 125.802 404.12 
z
" clip-path="url(#p7cd99eb59f)" style="fill: #85c3c4; opacity: 0.6"/>
   </g>
   <g id="patch_117">
    <path d="M 131.736 404.12 
L 137.67 404.12 
L 137.67 339.408349 
L 131.736 339.408349 
z
" clip-path="url(#p7cd99eb59f)" style="fill: #85c3c4; opacity: 0.6"/>
   </g>
   <g id="patch_118">
    <path d="M 137.67 404.12 
L 143.604 404.12 
L 143.604 244.04381 
L 137.67 244.04381 
z
" clip-path="url(#p7cd99eb59f)" style="fill: #85c3c4; opacity: 0.6"/>
   </g>
   <g id="patch_119">
    <path d="M 143.604 404.12 
L 149.538 404.12 
L 149.538 376.872989 
L 143.604 376.872989 
z
" clip-path="url(#p7cd99eb59f)" style="fill: #85c3c4; opacity: 0.6"/>
   </g>
   <g id="patch_120">
    <path d="M 149.538 404.12 
L 155.472 404.12 
L 155.472 402.417062 
L 149.538 402.417062 
z
" clip-path="url(#p7cd99eb59f)" style="fill: #85c3c4; opacity: 0.6"/>
   </g>
   <g id="patch_121">
    <path d="M 155.472 404.12 
L 161.406 404.12 
L 161.406 404.12 
L 155.472 404.12 
z
" clip-path="url(#p7cd99eb59f)" style="fill: #85c3c4; opacity: 0.6"/>
   </g>
   <g id="patch_122">
    <path d="M 161.406 404.12 
L 167.34 404.12 
L 167.34 404.12 
L 161.406 404.12 
z
" clip-path="url(#p7cd99eb59f)" style="fill: #85c3c4; opacity: 0.6"/>
   </g>
   <g id="patch_123">
    <path d="M 167.34 404.12 
L 173.274 404.12 
L 173.274 404.12 
L 167.34 404.12 
z
" clip-path="url(#p7cd99eb59f)" style="fill: #85c3c4; opacity: 0.6"/>
   </g>
   <g id="patch_124">
    <path d="M 173.274 404.12 
L 179.208 404.12 
L 179.208 404.12 
L 173.274 404.12 
z
" clip-path="url(#p7cd99eb59f)" style="fill: #85c3c4; opacity: 0.6"/>
   </g>
   <g id="patch_125">
    <path d="M 179.208 404.12 
L 185.142 404.12 
L 185.142 404.12 
L 179.208 404.12 
z
" clip-path="url(#p7cd99eb59f)" style="fill: #85c3c4; opacity: 0.6"/>
   </g>
   <g id="patch_126">
    <path d="M 185.142 404.12 
L 191.076 404.12 
L 191.076 404.12 
L 185.142 404.12 
z
" clip-path="url(#p7cd99eb59f)" style="fill: #85c3c4; opacity: 0.6"/>
   </g>
   <g id="patch_127">
    <path d="M 191.076 404.12 
L 197.01 404.12 
L 197.01 404.12 
L 191.076 404.12 
z
" clip-path="url(#p7cd99eb59f)" style="fill: #85c3c4; opacity: 0.6"/>
   </g>
   <g id="matplotlib.axis_2">
    <g id="xtick_5">
     <g id="line2d_5">
      <g>
       <use xlink:href="#m8ce41c7209" x="18.99" y="404.12" style="stroke: #000000; stroke-width: 0.8"/>
      </g>
     </g>
     <g id="text_6">
      <!-- 0 Å -->
      <g transform="translate(10.799375 418.718437) scale(0.1 -0.1)">
       <use xlink:href="#DejaVuSans-30"/>
       <use xlink:href="#DejaVuSans-20" x="63.623047"/>
       <use xlink:href="#DejaVuSans-c5" x="95.410156"/>
      </g>
     </g>
    </g>
    <g id="xtick_6">
     <g id="line2d_6">
      <g>
       <use xlink:href="#m8ce41c7209" x="78.33" y="404.12" style="stroke: #000000; stroke-width: 0.8"/>
      </g>
     </g>
     <g id="text_7">
      <!-- 1 Å -->
      <g transform="translate(70.139375 418.718437) scale(0.1 -0.1)">
       <use xlink:href="#DejaVuSans-31"/>
       <use xlink:href="#DejaVuSans-20" x="63.623047"/>
       <use xlink:href="#DejaVuSans-c5" x="95.410156"/>
      </g>
     </g>
    </g>
    <g id="xtick_7">
     <g id="line2d_7">
      <g>
       <use xlink:href="#m8ce41c7209" x="137.67" y="404.12" style="stroke: #000000; stroke-width: 0.8"/>
      </g>
     </g>
     <g id="text_8">
      <!-- 2 Å -->
      <g transform="translate(129.479375 418.718437) scale(0.1 -0.1)">
       <use xlink:href="#DejaVuSans-32"/>
       <use xlink:href="#DejaVuSans-20" x="63.623047"/>
       <use xlink:href="#DejaVuSans-c5" x="95.410156"/>
      </g>
     </g>
    </g>
    <g id="xtick_8">
     <g id="line2d_8">
      <g>
       <use xlink:href="#m8ce41c7209" x="197.01" y="404.12" style="stroke: #000000; stroke-width: 0.8"/>
      </g>
     </g>
     <g id="text_9">
      <!-- 3 Å -->
      <g transform="translate(188.819375 418.718437) scale(0.1 -0.1)">
       <use xlink:href="#DejaVuSans-33"/>
       <use xlink:href="#DejaVuSans-20" x="63.623047"/>
       <use xlink:href="#DejaVuSans-c5" x="95.410156"/>
      </g>
     </g>
    </g>
   </g>
   <g id="patch_128">
    <path d="M 18.99 404.12 
L 18.99 236.04 
" style="fill: none; stroke: #000000; stroke-width: 0.8; stroke-linejoin: miter; stroke-linecap: square"/>
   </g>
   <g id="patch_129">
    <path d="M 197.01 404.12 
L 197.01 236.04 
" style="fill: none; stroke: #000000; stroke-width: 0.8; stroke-linejoin: miter; stroke-linecap: square"/>
   </g>
   <g id="patch_130">
    <path d="M 18.99 404.12 
L 197.01 404.12 
" style="fill: none; stroke: #000000; stroke-width: 0.8; stroke-linejoin: miter; stroke-linecap: square"/>
   </g>
   <g id="patch_131">
    <path d="M 18.99 236.04 
L 197.01 236.04 
" style="fill: none; stroke: #000000; stroke-width: 0.8; stroke-linejoin: miter; stroke-linecap: square"/>
   </g>
   <g id="text_10">
    <!-- NKP-N23 and NKP-RU1 -->
    <g transform="translate(40.254375 230.04) scale(0.12 -0.12)">
     <use xlink:href="#DejaVuSans-4e"/>
     <use xlink:href="#DejaVuSans-4b" x="74.804688"/>
     <use xlink:href="#DejaVuSans-50" x="140.380859"/>
     <use xlink:href="#DejaVuSans-2d" x="198.433594"/>
     <use xlink:href="#DejaVuSans-4e" x="234.517578"/>
     <use xlink:href="#DejaVuSans-32" x="309.322266"/>
     <use xlink:href="#DejaVuSans-33" x="372.945312"/>
     <use xlink:href="#DejaVuSans-20" x="436.568359"/>
     <use xlink:href="#DejaVuSans-61" x="468.355469"/>
     <use xlink:href="#DejaVuSans-6e" x="529.634766"/>
     <use xlink:href="#DejaVuSans-64" x="593.013672"/>
     <use xlink:href="#DejaVuSans-20" x="656.490234"/>
     <use xlink:href="#DejaVuSans-4e" x="688.277344"/>
     <use xlink:href="#DejaVuSans-4b" x="763.082031"/>
     <use xlink:href="#DejaVuSans-50" x="828.658203"/>
     <use xlink:href="#DejaVuSans-2d" x="886.710938"/>
     <use xlink:href="#DejaVuSans-52" x="922.794922"/>
     <use xlink:href="#DejaVuSans-55" x="992.277344"/>
     <use xlink:href="#DejaVuSans-31" x="1065.470703"/>
    </g>
   </g>
  </g>
 </g>
 <defs>
  <clipPath id="pd081cf563e">
   <rect x="18.99" y="25.44" width="178.02" height="168.08"/>
  </clipPath>
  <clipPath id="p7cd99eb59f">
   <rect x="18.99" y="236.04" width="178.02" height="168.08"/>
  </clipPath>
 </defs>
</svg>
