<?xml version="1.0" encoding="utf-8" standalone="no"?>
<!DOCTYPE svg PUBLIC "-//W3C//DTD SVG 1.1//EN"
  "http://www.w3.org/Graphics/SVG/1.1/DTD/svg11.dtd">
<svg xmlns:xlink="http://www.w3.org/1999/xlink" width="216pt" height="108pt" viewBox="0 0 216 108" xmlns="http://www.w3.org/2000/svg" version="1.1">
 <metadata>
  <rdf:RDF xmlns:dc="http://purl.org/dc/elements/1.1/" xmlns:cc="http://creativecommons.org/ns#" xmlns:rdf="http://www.w3.org/1999/02/22-rdf-syntax-ns#">
   <cc:Work>
    <dc:type rdf:resource="http://purl.org/dc/dcmitype/StillImage"/>
    <dc:date>2024-09-23T15:17:06.580650</dc:date>
    <dc:format>image/svg+xml</dc:format>
    <dc:creator>
     <cc:Agent>
      <dc:title>Matplotlib v3.9.2, https://matplotlib.org/</dc:title>
     </cc:Agent>
    </dc:creator>
   </cc:Work>
  </rdf:RDF>
 </metadata>
 <defs>
  <style type="text/css">*{stroke-linejoin: round; stroke-linecap: butt}</style>
 </defs>
 <g id="figure_1">
  <g id="patch_1">
   <path d="M 0 108 
L 216 108 
L 216 0 
L 0 0 
z
" style="fill: #ffffff"/>
  </g>
  <g id="axes_1">
   <g id="patch_2">
    <path d="M 10.8 80.12 
L 193.815 80.12 
L 193.815 10.8 
L 10.8 10.8 
z
" style="fill: #ffffff"/>
   </g>
   <g id="patch_3">
    <path d="M -172.215 80.12 
L -164.8944 80.12 
L -164.8944 80.12 
L -172.215 80.12 
z
" clip-path="url(#p1eb976aed3)" style="fill: #dc706b; opacity: 0.6"/>
   </g>
   <g id="patch_4">
    <path d="M -164.8944 80.12 
L -157.5738 80.12 
L -157.5738 80.12 
L -164.8944 80.12 
z
" clip-path="url(#p1eb976aed3)" style="fill: #dc706b; opacity: 0.6"/>
   </g>
   <g id="patch_5">
    <path d="M -157.5738 80.12 
L -150.2532 80.12 
L -150.2532 80.12 
L -157.5738 80.12 
z
" clip-path="url(#p1eb976aed3)" style="fill: #dc706b; opacity: 0.6"/>
   </g>
   <g id="patch_6">
    <path d="M -150.2532 80.12 
L -142.9326 80.12 
L -142.9326 80.12 
L -150.2532 80.12 
z
" clip-path="url(#p1eb976aed3)" style="fill: #dc706b; opacity: 0.6"/>
   </g>
   <g id="patch_7">
    <path d="M -142.9326 80.12 
L -135.612 80.12 
L -135.612 80.12 
L -142.9326 80.12 
z
" clip-path="url(#p1eb976aed3)" style="fill: #dc706b; opacity: 0.6"/>
   </g>
   <g id="patch_8">
    <path d="M -135.612 80.12 
L -128.2914 80.12 
L -128.2914 80.12 
L -135.612 80.12 
z
" clip-path="url(#p1eb976aed3)" style="fill: #dc706b; opacity: 0.6"/>
   </g>
   <g id="patch_9">
    <path d="M -128.2914 80.12 
L -120.9708 80.12 
L -120.9708 80.12 
L -128.2914 80.12 
z
" clip-path="url(#p1eb976aed3)" style="fill: #dc706b; opacity: 0.6"/>
   </g>
   <g id="patch_10">
    <path d="M -120.9708 80.12 
L -113.6502 80.12 
L -113.6502 80.12 
L -120.9708 80.12 
z
" clip-path="url(#p1eb976aed3)" style="fill: #dc706b; opacity: 0.6"/>
   </g>
   <g id="patch_11">
    <path d="M -113.6502 80.12 
L -106.3296 80.12 
L -106.3296 80.12 
L -113.6502 80.12 
z
" clip-path="url(#p1eb976aed3)" style="fill: #dc706b; opacity: 0.6"/>
   </g>
   <g id="patch_12">
    <path d="M -106.3296 80.12 
L -99.009 80.12 
L -99.009 80.12 
L -106.3296 80.12 
z
" clip-path="url(#p1eb976aed3)" style="fill: #dc706b; opacity: 0.6"/>
   </g>
   <g id="patch_13">
    <path d="M -99.009 80.12 
L -91.6884 80.12 
L -91.6884 80.12 
L -99.009 80.12 
z
" clip-path="url(#p1eb976aed3)" style="fill: #dc706b; opacity: 0.6"/>
   </g>
   <g id="patch_14">
    <path d="M -91.6884 80.12 
L -84.3678 80.12 
L -84.3678 80.12 
L -91.6884 80.12 
z
" clip-path="url(#p1eb976aed3)" style="fill: #dc706b; opacity: 0.6"/>
   </g>
   <g id="patch_15">
    <path d="M -84.3678 80.12 
L -77.0472 80.12 
L -77.0472 80.12 
L -84.3678 80.12 
z
" clip-path="url(#p1eb976aed3)" style="fill: #dc706b; opacity: 0.6"/>
   </g>
   <g id="patch_16">
    <path d="M -77.0472 80.12 
L -69.7266 80.12 
L -69.7266 80.12 
L -77.0472 80.12 
z
" clip-path="url(#p1eb976aed3)" style="fill: #dc706b; opacity: 0.6"/>
   </g>
   <g id="patch_17">
    <path d="M -69.7266 80.12 
L -62.406 80.12 
L -62.406 80.12 
L -69.7266 80.12 
z
" clip-path="url(#p1eb976aed3)" style="fill: #dc706b; opacity: 0.6"/>
   </g>
   <g id="patch_18">
    <path d="M -62.406 80.12 
L -55.0854 80.12 
L -55.0854 80.12 
L -62.406 80.12 
z
" clip-path="url(#p1eb976aed3)" style="fill: #dc706b; opacity: 0.6"/>
   </g>
   <g id="patch_19">
    <path d="M -55.0854 80.12 
L -47.7648 80.12 
L -47.7648 80.12 
L -55.0854 80.12 
z
" clip-path="url(#p1eb976aed3)" style="fill: #dc706b; opacity: 0.6"/>
   </g>
   <g id="patch_20">
    <path d="M -47.7648 80.12 
L -40.4442 80.12 
L -40.4442 80.12 
L -47.7648 80.12 
z
" clip-path="url(#p1eb976aed3)" style="fill: #dc706b; opacity: 0.6"/>
   </g>
   <g id="patch_21">
    <path d="M -40.4442 80.12 
L -33.1236 80.12 
L -33.1236 80.12 
L -40.4442 80.12 
z
" clip-path="url(#p1eb976aed3)" style="fill: #dc706b; opacity: 0.6"/>
   </g>
   <g id="patch_22">
    <path d="M -33.1236 80.12 
L -25.803 80.12 
L -25.803 80.12 
L -33.1236 80.12 
z
" clip-path="url(#p1eb976aed3)" style="fill: #dc706b; opacity: 0.6"/>
   </g>
   <g id="patch_23">
    <path d="M -25.803 80.12 
L -18.4824 80.12 
L -18.4824 80.12 
L -25.803 80.12 
z
" clip-path="url(#p1eb976aed3)" style="fill: #dc706b; opacity: 0.6"/>
   </g>
   <g id="patch_24">
    <path d="M -18.4824 80.12 
L -11.1618 80.12 
L -11.1618 80.12 
L -18.4824 80.12 
z
" clip-path="url(#p1eb976aed3)" style="fill: #dc706b; opacity: 0.6"/>
   </g>
   <g id="patch_25">
    <path d="M -11.1618 80.12 
L -3.8412 80.12 
L -3.8412 80.12 
L -11.1618 80.12 
z
" clip-path="url(#p1eb976aed3)" style="fill: #dc706b; opacity: 0.6"/>
   </g>
   <g id="patch_26">
    <path d="M -3.8412 80.12 
L 3.4794 80.12 
L 3.4794 80.12 
L -3.8412 80.12 
z
" clip-path="url(#p1eb976aed3)" style="fill: #dc706b; opacity: 0.6"/>
   </g>
   <g id="patch_27">
    <path d="M 3.4794 80.12 
L 10.8 80.12 
L 10.8 80.12 
L 3.4794 80.12 
z
" clip-path="url(#p1eb976aed3)" style="fill: #dc706b; opacity: 0.6"/>
   </g>
   <g id="patch_28">
    <path d="M 10.8 80.12 
L 18.1206 80.12 
L 18.1206 80.09541 
L 10.8 80.09541 
z
" clip-path="url(#p1eb976aed3)" style="fill: #dc706b; opacity: 0.6"/>
   </g>
   <g id="patch_29">
    <path d="M 18.1206 80.12 
L 25.4412 80.12 
L 25.4412 78.177419 
L 18.1206 78.177419 
z
" clip-path="url(#p1eb976aed3)" style="fill: #dc706b; opacity: 0.6"/>
   </g>
   <g id="patch_30">
    <path d="M 25.4412 80.12 
L 32.7618 80.12 
L 32.7618 68.538281 
L 25.4412 68.538281 
z
" clip-path="url(#p1eb976aed3)" style="fill: #dc706b; opacity: 0.6"/>
   </g>
   <g id="patch_31">
    <path d="M 32.7618 80.12 
L 40.0824 80.12 
L 40.0824 52.456659 
L 32.7618 52.456659 
z
" clip-path="url(#p1eb976aed3)" style="fill: #dc706b; opacity: 0.6"/>
   </g>
   <g id="patch_32">
    <path d="M 40.0824 80.12 
L 47.403 80.12 
L 47.403 42.596215 
L 40.0824 42.596215 
z
" clip-path="url(#p1eb976aed3)" style="fill: #dc706b; opacity: 0.6"/>
   </g>
   <g id="patch_33">
    <path d="M 47.403 80.12 
L 54.7236 80.12 
L 54.7236 37.801236 
L 47.403 37.801236 
z
" clip-path="url(#p1eb976aed3)" style="fill: #dc706b; opacity: 0.6"/>
   </g>
   <g id="patch_34">
    <path d="M 54.7236 80.12 
L 62.0442 80.12 
L 62.0442 38.563515 
L 54.7236 38.563515 
z
" clip-path="url(#p1eb976aed3)" style="fill: #dc706b; opacity: 0.6"/>
   </g>
   <g id="patch_35">
    <path d="M 62.0442 80.12 
L 69.3648 80.12 
L 69.3648 49.0387 
L 62.0442 49.0387 
z
" clip-path="url(#p1eb976aed3)" style="fill: #dc706b; opacity: 0.6"/>
   </g>
   <g id="patch_36">
    <path d="M 69.3648 80.12 
L 76.6854 80.12 
L 76.6854 60.645008 
L 69.3648 60.645008 
z
" clip-path="url(#p1eb976aed3)" style="fill: #dc706b; opacity: 0.6"/>
   </g>
   <g id="patch_37">
    <path d="M 76.6854 80.12 
L 84.006 80.12 
L 84.006 68.980895 
L 76.6854 68.980895 
z
" clip-path="url(#p1eb976aed3)" style="fill: #dc706b; opacity: 0.6"/>
   </g>
   <g id="patch_38">
    <path d="M 84.006 80.12 
L 91.3266 80.12 
L 91.3266 73.087364 
L 84.006 73.087364 
z
" clip-path="url(#p1eb976aed3)" style="fill: #dc706b; opacity: 0.6"/>
   </g>
   <g id="patch_39">
    <path d="M 91.3266 80.12 
L 98.6472 80.12 
L 98.6472 76.234837 
L 91.3266 76.234837 
z
" clip-path="url(#p1eb976aed3)" style="fill: #dc706b; opacity: 0.6"/>
   </g>
   <g id="patch_40">
    <path d="M 98.6472 80.12 
L 105.9678 80.12 
L 105.9678 77.906933 
L 98.6472 77.906933 
z
" clip-path="url(#p1eb976aed3)" style="fill: #dc706b; opacity: 0.6"/>
   </g>
   <g id="patch_41">
    <path d="M 105.9678 80.12 
L 113.2884 80.12 
L 113.2884 79.013466 
L 105.9678 79.013466 
z
" clip-path="url(#p1eb976aed3)" style="fill: #dc706b; opacity: 0.6"/>
   </g>
   <g id="patch_42">
    <path d="M 113.2884 80.12 
L 120.609 80.12 
L 120.609 79.43149 
L 113.2884 79.43149 
z
" clip-path="url(#p1eb976aed3)" style="fill: #dc706b; opacity: 0.6"/>
   </g>
   <g id="patch_43">
    <path d="M 120.609 80.12 
L 127.9296 80.12 
L 127.9296 79.652797 
L 120.609 79.652797 
z
" clip-path="url(#p1eb976aed3)" style="fill: #dc706b; opacity: 0.6"/>
   </g>
   <g id="patch_44">
    <path d="M 127.9296 80.12 
L 135.2502 80.12 
L 135.2502 79.554438 
L 127.9296 79.554438 
z
" clip-path="url(#p1eb976aed3)" style="fill: #dc706b; opacity: 0.6"/>
   </g>
   <g id="patch_45">
    <path d="M 135.2502 80.12 
L 142.5708 80.12 
L 142.5708 79.333132 
L 135.2502 79.333132 
z
" clip-path="url(#p1eb976aed3)" style="fill: #dc706b; opacity: 0.6"/>
   </g>
   <g id="patch_46">
    <path d="M 142.5708 80.12 
L 149.8914 80.12 
L 149.8914 79.062646 
L 142.5708 79.062646 
z
" clip-path="url(#p1eb976aed3)" style="fill: #dc706b; opacity: 0.6"/>
   </g>
   <g id="patch_47">
    <path d="M 149.8914 80.12 
L 157.212 80.12 
L 157.212 79.357721 
L 149.8914 79.357721 
z
" clip-path="url(#p1eb976aed3)" style="fill: #dc706b; opacity: 0.6"/>
   </g>
   <g id="patch_48">
    <path d="M 157.212 80.12 
L 164.5326 80.12 
L 164.5326 79.111825 
L 157.212 79.111825 
z
" clip-path="url(#p1eb976aed3)" style="fill: #dc706b; opacity: 0.6"/>
   </g>
   <g id="patch_49">
    <path d="M 164.5326 80.12 
L 171.8532 80.12 
L 171.8532 79.529849 
L 164.5326 79.529849 
z
" clip-path="url(#p1eb976aed3)" style="fill: #dc706b; opacity: 0.6"/>
   </g>
   <g id="patch_50">
    <path d="M 171.8532 80.12 
L 179.1738 80.12 
L 179.1738 79.357721 
L 171.8532 79.357721 
z
" clip-path="url(#p1eb976aed3)" style="fill: #dc706b; opacity: 0.6"/>
   </g>
   <g id="patch_51">
    <path d="M 179.1738 80.12 
L 186.4944 80.12 
L 186.4944 79.677387 
L 179.1738 79.677387 
z
" clip-path="url(#p1eb976aed3)" style="fill: #dc706b; opacity: 0.6"/>
   </g>
   <g id="patch_52">
    <path d="M 186.4944 80.12 
L 193.815 80.12 
L 193.815 79.947873 
L 186.4944 79.947873 
z
" clip-path="url(#p1eb976aed3)" style="fill: #dc706b; opacity: 0.6"/>
   </g>
   <g id="patch_53">
    <path d="M 193.815 80.12 
L 201.1356 80.12 
L 201.1356 80.046231 
L 193.815 80.046231 
z
" clip-path="url(#p1eb976aed3)" style="fill: #dc706b; opacity: 0.6"/>
   </g>
   <g id="patch_54">
    <path d="M 201.1356 80.12 
L 208.4562 80.12 
L 208.4562 80.12 
L 201.1356 80.12 
z
" clip-path="url(#p1eb976aed3)" style="fill: #dc706b; opacity: 0.6"/>
   </g>
   <g id="patch_55">
    <path d="M 208.4562 80.12 
L 215.7768 80.12 
L 215.7768 80.12 
L 208.4562 80.12 
z
" clip-path="url(#p1eb976aed3)" style="fill: #dc706b; opacity: 0.6"/>
   </g>
   <g id="patch_56">
    <path d="M 215.7768 80.12 
L 223.0974 80.12 
L 223.0974 80.12 
L 215.7768 80.12 
z
" clip-path="url(#p1eb976aed3)" style="fill: #dc706b; opacity: 0.6"/>
   </g>
   <g id="patch_57">
    <path d="M 223.0974 80.12 
L 230.418 80.12 
L 230.418 80.12 
L 223.0974 80.12 
z
" clip-path="url(#p1eb976aed3)" style="fill: #dc706b; opacity: 0.6"/>
   </g>
   <g id="patch_58">
    <path d="M -172.215 80.12 
L -164.8944 80.12 
L -164.8944 80.12 
L -172.215 80.12 
z
" clip-path="url(#p1eb976aed3)" style="fill: #85c3c4; opacity: 0.6"/>
   </g>
   <g id="patch_59">
    <path d="M -164.8944 80.12 
L -157.5738 80.12 
L -157.5738 80.12 
L -164.8944 80.12 
z
" clip-path="url(#p1eb976aed3)" style="fill: #85c3c4; opacity: 0.6"/>
   </g>
   <g id="patch_60">
    <path d="M -157.5738 80.12 
L -150.2532 80.12 
L -150.2532 80.12 
L -157.5738 80.12 
z
" clip-path="url(#p1eb976aed3)" style="fill: #85c3c4; opacity: 0.6"/>
   </g>
   <g id="patch_61">
    <path d="M -150.2532 80.12 
L -142.9326 80.12 
L -142.9326 80.12 
L -150.2532 80.12 
z
" clip-path="url(#p1eb976aed3)" style="fill: #85c3c4; opacity: 0.6"/>
   </g>
   <g id="patch_62">
    <path d="M -142.9326 80.12 
L -135.612 80.12 
L -135.612 80.12 
L -142.9326 80.12 
z
" clip-path="url(#p1eb976aed3)" style="fill: #85c3c4; opacity: 0.6"/>
   </g>
   <g id="patch_63">
    <path d="M -135.612 80.12 
L -128.2914 80.12 
L -128.2914 80.12 
L -135.612 80.12 
z
" clip-path="url(#p1eb976aed3)" style="fill: #85c3c4; opacity: 0.6"/>
   </g>
   <g id="patch_64">
    <path d="M -128.2914 80.12 
L -120.9708 80.12 
L -120.9708 80.12 
L -128.2914 80.12 
z
" clip-path="url(#p1eb976aed3)" style="fill: #85c3c4; opacity: 0.6"/>
   </g>
   <g id="patch_65">
    <path d="M -120.9708 80.12 
L -113.6502 80.12 
L -113.6502 80.12 
L -120.9708 80.12 
z
" clip-path="url(#p1eb976aed3)" style="fill: #85c3c4; opacity: 0.6"/>
   </g>
   <g id="patch_66">
    <path d="M -113.6502 80.12 
L -106.3296 80.12 
L -106.3296 80.12 
L -113.6502 80.12 
z
" clip-path="url(#p1eb976aed3)" style="fill: #85c3c4; opacity: 0.6"/>
   </g>
   <g id="patch_67">
    <path d="M -106.3296 80.12 
L -99.009 80.12 
L -99.009 80.12 
L -106.3296 80.12 
z
" clip-path="url(#p1eb976aed3)" style="fill: #85c3c4; opacity: 0.6"/>
   </g>
   <g id="patch_68">
    <path d="M -99.009 80.12 
L -91.6884 80.12 
L -91.6884 80.12 
L -99.009 80.12 
z
" clip-path="url(#p1eb976aed3)" style="fill: #85c3c4; opacity: 0.6"/>
   </g>
   <g id="patch_69">
    <path d="M -91.6884 80.12 
L -84.3678 80.12 
L -84.3678 80.12 
L -91.6884 80.12 
z
" clip-path="url(#p1eb976aed3)" style="fill: #85c3c4; opacity: 0.6"/>
   </g>
   <g id="patch_70">
    <path d="M -84.3678 80.12 
L -77.0472 80.12 
L -77.0472 80.12 
L -84.3678 80.12 
z
" clip-path="url(#p1eb976aed3)" style="fill: #85c3c4; opacity: 0.6"/>
   </g>
   <g id="patch_71">
    <path d="M -77.0472 80.12 
L -69.7266 80.12 
L -69.7266 80.12 
L -77.0472 80.12 
z
" clip-path="url(#p1eb976aed3)" style="fill: #85c3c4; opacity: 0.6"/>
   </g>
   <g id="patch_72">
    <path d="M -69.7266 80.12 
L -62.406 80.12 
L -62.406 80.12 
L -69.7266 80.12 
z
" clip-path="url(#p1eb976aed3)" style="fill: #85c3c4; opacity: 0.6"/>
   </g>
   <g id="patch_73">
    <path d="M -62.406 80.12 
L -55.0854 80.12 
L -55.0854 80.12 
L -62.406 80.12 
z
" clip-path="url(#p1eb976aed3)" style="fill: #85c3c4; opacity: 0.6"/>
   </g>
   <g id="patch_74">
    <path d="M -55.0854 80.12 
L -47.7648 80.12 
L -47.7648 80.12 
L -55.0854 80.12 
z
" clip-path="url(#p1eb976aed3)" style="fill: #85c3c4; opacity: 0.6"/>
   </g>
   <g id="patch_75">
    <path d="M -47.7648 80.12 
L -40.4442 80.12 
L -40.4442 80.12 
L -47.7648 80.12 
z
" clip-path="url(#p1eb976aed3)" style="fill: #85c3c4; opacity: 0.6"/>
   </g>
   <g id="patch_76">
    <path d="M -40.4442 80.12 
L -33.1236 80.12 
L -33.1236 80.12 
L -40.4442 80.12 
z
" clip-path="url(#p1eb976aed3)" style="fill: #85c3c4; opacity: 0.6"/>
   </g>
   <g id="patch_77">
    <path d="M -33.1236 80.12 
L -25.803 80.12 
L -25.803 80.12 
L -33.1236 80.12 
z
" clip-path="url(#p1eb976aed3)" style="fill: #85c3c4; opacity: 0.6"/>
   </g>
   <g id="patch_78">
    <path d="M -25.803 80.12 
L -18.4824 80.12 
L -18.4824 80.12 
L -25.803 80.12 
z
" clip-path="url(#p1eb976aed3)" style="fill: #85c3c4; opacity: 0.6"/>
   </g>
   <g id="patch_79">
    <path d="M -18.4824 80.12 
L -11.1618 80.12 
L -11.1618 80.12 
L -18.4824 80.12 
z
" clip-path="url(#p1eb976aed3)" style="fill: #85c3c4; opacity: 0.6"/>
   </g>
   <g id="patch_80">
    <path d="M -11.1618 80.12 
L -3.8412 80.12 
L -3.8412 80.12 
L -11.1618 80.12 
z
" clip-path="url(#p1eb976aed3)" style="fill: #85c3c4; opacity: 0.6"/>
   </g>
   <g id="patch_81">
    <path d="M -3.8412 80.12 
L 3.4794 80.12 
L 3.4794 80.12 
L -3.8412 80.12 
z
" clip-path="url(#p1eb976aed3)" style="fill: #85c3c4; opacity: 0.6"/>
   </g>
   <g id="patch_82">
    <path d="M 3.4794 80.12 
L 10.8 80.12 
L 10.8 80.12 
L 3.4794 80.12 
z
" clip-path="url(#p1eb976aed3)" style="fill: #85c3c4; opacity: 0.6"/>
   </g>
   <g id="patch_83">
    <path d="M 10.8 80.12 
L 18.1206 80.12 
L 18.1206 80.12 
L 10.8 80.12 
z
" clip-path="url(#p1eb976aed3)" style="fill: #85c3c4; opacity: 0.6"/>
   </g>
   <g id="patch_84">
    <path d="M 18.1206 80.12 
L 25.4412 80.12 
L 25.4412 80.12 
L 18.1206 80.12 
z
" clip-path="url(#p1eb976aed3)" style="fill: #85c3c4; opacity: 0.6"/>
   </g>
   <g id="patch_85">
    <path d="M 25.4412 80.12 
L 32.7618 80.12 
L 32.7618 80.12 
L 25.4412 80.12 
z
" clip-path="url(#p1eb976aed3)" style="fill: #85c3c4; opacity: 0.6"/>
   </g>
   <g id="patch_86">
    <path d="M 32.7618 80.12 
L 40.0824 80.12 
L 40.0824 80.12 
L 32.7618 80.12 
z
" clip-path="url(#p1eb976aed3)" style="fill: #85c3c4; opacity: 0.6"/>
   </g>
   <g id="patch_87">
    <path d="M 40.0824 80.12 
L 47.403 80.12 
L 47.403 78.469524 
L 40.0824 78.469524 
z
" clip-path="url(#p1eb976aed3)" style="fill: #85c3c4; opacity: 0.6"/>
   </g>
   <g id="patch_88">
    <path d="M 47.403 80.12 
L 54.7236 80.12 
L 54.7236 58.66381 
L 47.403 58.66381 
z
" clip-path="url(#p1eb976aed3)" style="fill: #85c3c4; opacity: 0.6"/>
   </g>
   <g id="patch_89">
    <path d="M 54.7236 80.12 
L 62.0442 80.12 
L 62.0442 43.809524 
L 54.7236 43.809524 
z
" clip-path="url(#p1eb976aed3)" style="fill: #85c3c4; opacity: 0.6"/>
   </g>
   <g id="patch_90">
    <path d="M 62.0442 80.12 
L 69.3648 80.12 
L 69.3648 27.304762 
L 62.0442 27.304762 
z
" clip-path="url(#p1eb976aed3)" style="fill: #85c3c4; opacity: 0.6"/>
   </g>
   <g id="patch_91">
    <path d="M 69.3648 80.12 
L 76.6854 80.12 
L 76.6854 14.100952 
L 69.3648 14.100952 
z
" clip-path="url(#p1eb976aed3)" style="fill: #85c3c4; opacity: 0.6"/>
   </g>
   <g id="patch_92">
    <path d="M 76.6854 80.12 
L 84.006 80.12 
L 84.006 48.760952 
L 76.6854 48.760952 
z
" clip-path="url(#p1eb976aed3)" style="fill: #85c3c4; opacity: 0.6"/>
   </g>
   <g id="patch_93">
    <path d="M 84.006 80.12 
L 91.3266 80.12 
L 91.3266 57.013333 
L 84.006 57.013333 
z
" clip-path="url(#p1eb976aed3)" style="fill: #85c3c4; opacity: 0.6"/>
   </g>
   <g id="patch_94">
    <path d="M 91.3266 80.12 
L 98.6472 80.12 
L 98.6472 71.867619 
L 91.3266 71.867619 
z
" clip-path="url(#p1eb976aed3)" style="fill: #85c3c4; opacity: 0.6"/>
   </g>
   <g id="patch_95">
    <path d="M 98.6472 80.12 
L 105.9678 80.12 
L 105.9678 76.819048 
L 98.6472 76.819048 
z
" clip-path="url(#p1eb976aed3)" style="fill: #85c3c4; opacity: 0.6"/>
   </g>
   <g id="patch_96">
    <path d="M 105.9678 80.12 
L 113.2884 80.12 
L 113.2884 78.469524 
L 105.9678 78.469524 
z
" clip-path="url(#p1eb976aed3)" style="fill: #85c3c4; opacity: 0.6"/>
   </g>
   <g id="patch_97">
    <path d="M 113.2884 80.12 
L 120.609 80.12 
L 120.609 80.12 
L 113.2884 80.12 
z
" clip-path="url(#p1eb976aed3)" style="fill: #85c3c4; opacity: 0.6"/>
   </g>
   <g id="patch_98">
    <path d="M 120.609 80.12 
L 127.9296 80.12 
L 127.9296 80.12 
L 120.609 80.12 
z
" clip-path="url(#p1eb976aed3)" style="fill: #85c3c4; opacity: 0.6"/>
   </g>
   <g id="patch_99">
    <path d="M 127.9296 80.12 
L 135.2502 80.12 
L 135.2502 80.12 
L 127.9296 80.12 
z
" clip-path="url(#p1eb976aed3)" style="fill: #85c3c4; opacity: 0.6"/>
   </g>
   <g id="patch_100">
    <path d="M 135.2502 80.12 
L 142.5708 80.12 
L 142.5708 80.12 
L 135.2502 80.12 
z
" clip-path="url(#p1eb976aed3)" style="fill: #85c3c4; opacity: 0.6"/>
   </g>
   <g id="patch_101">
    <path d="M 142.5708 80.12 
L 149.8914 80.12 
L 149.8914 80.12 
L 142.5708 80.12 
z
" clip-path="url(#p1eb976aed3)" style="fill: #85c3c4; opacity: 0.6"/>
   </g>
   <g id="patch_102">
    <path d="M 149.8914 80.12 
L 157.212 80.12 
L 157.212 80.12 
L 149.8914 80.12 
z
" clip-path="url(#p1eb976aed3)" style="fill: #85c3c4; opacity: 0.6"/>
   </g>
   <g id="patch_103">
    <path d="M 157.212 80.12 
L 164.5326 80.12 
L 164.5326 80.12 
L 157.212 80.12 
z
" clip-path="url(#p1eb976aed3)" style="fill: #85c3c4; opacity: 0.6"/>
   </g>
   <g id="patch_104">
    <path d="M 164.5326 80.12 
L 171.8532 80.12 
L 171.8532 80.12 
L 164.5326 80.12 
z
" clip-path="url(#p1eb976aed3)" style="fill: #85c3c4; opacity: 0.6"/>
   </g>
   <g id="patch_105">
    <path d="M 171.8532 80.12 
L 179.1738 80.12 
L 179.1738 80.12 
L 171.8532 80.12 
z
" clip-path="url(#p1eb976aed3)" style="fill: #85c3c4; opacity: 0.6"/>
   </g>
   <g id="patch_106">
    <path d="M 179.1738 80.12 
L 186.4944 80.12 
L 186.4944 80.12 
L 179.1738 80.12 
z
" clip-path="url(#p1eb976aed3)" style="fill: #85c3c4; opacity: 0.6"/>
   </g>
   <g id="patch_107">
    <path d="M 186.4944 80.12 
L 193.815 80.12 
L 193.815 80.12 
L 186.4944 80.12 
z
" clip-path="url(#p1eb976aed3)" style="fill: #85c3c4; opacity: 0.6"/>
   </g>
   <g id="patch_108">
    <path d="M 193.815 80.12 
L 201.1356 80.12 
L 201.1356 80.12 
L 193.815 80.12 
z
" clip-path="url(#p1eb976aed3)" style="fill: #85c3c4; opacity: 0.6"/>
   </g>
   <g id="patch_109">
    <path d="M 201.1356 80.12 
L 208.4562 80.12 
L 208.4562 80.12 
L 201.1356 80.12 
z
" clip-path="url(#p1eb976aed3)" style="fill: #85c3c4; opacity: 0.6"/>
   </g>
   <g id="patch_110">
    <path d="M 208.4562 80.12 
L 215.7768 80.12 
L 215.7768 80.12 
L 208.4562 80.12 
z
" clip-path="url(#p1eb976aed3)" style="fill: #85c3c4; opacity: 0.6"/>
   </g>
   <g id="patch_111">
    <path d="M 215.7768 80.12 
L 223.0974 80.12 
L 223.0974 80.12 
L 215.7768 80.12 
z
" clip-path="url(#p1eb976aed3)" style="fill: #85c3c4; opacity: 0.6"/>
   </g>
   <g id="patch_112">
    <path d="M 223.0974 80.12 
L 230.418 80.12 
L 230.418 80.12 
L 223.0974 80.12 
z
" clip-path="url(#p1eb976aed3)" style="fill: #85c3c4; opacity: 0.6"/>
   </g>
   <g id="matplotlib.axis_1">
    <g id="xtick_1">
     <g id="line2d_1">
      <defs>
       <path id="m35d544480d" d="M 0 0 
L 0 3.5 
" style="stroke: #000000; stroke-width: 0.8"/>
      </defs>
      <g>
       <use xlink:href="#m35d544480d" x="47.403" y="80.12" style="stroke: #000000; stroke-width: 0.8"/>
      </g>
     </g>
     <g id="text_1">
      <!-- 6 Å -->
      <g transform="translate(39.212375 94.718438) scale(0.1 -0.1)">
       <defs>
        <path id="DejaVuSans-36" d="M 2113 2584 
Q 1688 2584 1439 2293 
Q 1191 2003 1191 1497 
Q 1191 994 1439 701 
Q 1688 409 2113 409 
Q 2538 409 2786 701 
Q 3034 994 3034 1497 
Q 3034 2003 2786 2293 
Q 2538 2584 2113 2584 
z
M 3366 4563 
L 3366 3988 
Q 3128 4100 2886 4159 
Q 2644 4219 2406 4219 
Q 1781 4219 1451 3797 
Q 1122 3375 1075 2522 
Q 1259 2794 1537 2939 
Q 1816 3084 2150 3084 
Q 2853 3084 3261 2657 
Q 3669 2231 3669 1497 
Q 3669 778 3244 343 
Q 2819 -91 2113 -91 
Q 1303 -91 875 529 
Q 447 1150 447 2328 
Q 447 3434 972 4092 
Q 1497 4750 2381 4750 
Q 2619 4750 2861 4703 
Q 3103 4656 3366 4563 
z
" transform="scale(0.015625)"/>
        <path id="DejaVuSans-20" transform="scale(0.015625)"/>
        <path id="DejaVuSans-c5" d="M 2663 5081 
Q 2663 5278 2523 5417 
Q 2384 5556 2188 5556 
Q 1988 5556 1852 5420 
Q 1716 5284 1716 5081 
Q 1716 4884 1853 4746 
Q 1991 4609 2188 4609 
Q 2384 4609 2523 4746 
Q 2663 4884 2663 5081 
z
M 2188 4044 
L 1338 1722 
L 3041 1722 
L 2188 4044 
z
M 1716 4366 
Q 1525 4494 1428 4673 
Q 1331 4853 1331 5081 
Q 1331 5441 1579 5691 
Q 1828 5941 2188 5941 
Q 2544 5941 2795 5689 
Q 3047 5438 3047 5081 
Q 3047 4863 2948 4678 
Q 2850 4494 2663 4366 
L 4325 0 
L 3669 0 
L 3244 1197 
L 1141 1197 
L 716 0 
L 50 0 
L 1716 4366 
z
" transform="scale(0.015625)"/>
       </defs>
       <use xlink:href="#DejaVuSans-36"/>
       <use xlink:href="#DejaVuSans-20" x="63.623047"/>
       <use xlink:href="#DejaVuSans-c5" x="95.410156"/>
      </g>
     </g>
    </g>
    <g id="xtick_2">
     <g id="line2d_2">
      <g>
       <use xlink:href="#m35d544480d" x="120.609" y="80.12" style="stroke: #000000; stroke-width: 0.8"/>
      </g>
     </g>
     <g id="text_2">
      <!-- 8 Å -->
      <g transform="translate(112.418375 94.718438) scale(0.1 -0.1)">
       <defs>
        <path id="DejaVuSans-38" d="M 2034 2216 
Q 1584 2216 1326 1975 
Q 1069 1734 1069 1313 
Q 1069 891 1326 650 
Q 1584 409 2034 409 
Q 2484 409 2743 651 
Q 3003 894 3003 1313 
Q 3003 1734 2745 1975 
Q 2488 2216 2034 2216 
z
M 1403 2484 
Q 997 2584 770 2862 
Q 544 3141 544 3541 
Q 544 4100 942 4425 
Q 1341 4750 2034 4750 
Q 2731 4750 3128 4425 
Q 3525 4100 3525 3541 
Q 3525 3141 3298 2862 
Q 3072 2584 2669 2484 
Q 3125 2378 3379 2068 
Q 3634 1759 3634 1313 
Q 3634 634 3220 271 
Q 2806 -91 2034 -91 
Q 1263 -91 848 271 
Q 434 634 434 1313 
Q 434 1759 690 2068 
Q 947 2378 1403 2484 
z
M 1172 3481 
Q 1172 3119 1398 2916 
Q 1625 2713 2034 2713 
Q 2441 2713 2670 2916 
Q 2900 3119 2900 3481 
Q 2900 3844 2670 4047 
Q 2441 4250 2034 4250 
Q 1625 4250 1398 4047 
Q 1172 3844 1172 3481 
z
" transform="scale(0.015625)"/>
       </defs>
       <use xlink:href="#DejaVuSans-38"/>
       <use xlink:href="#DejaVuSans-20" x="63.623047"/>
       <use xlink:href="#DejaVuSans-c5" x="95.410156"/>
      </g>
     </g>
    </g>
    <g id="xtick_3">
     <g id="line2d_3">
      <g>
       <use xlink:href="#m35d544480d" x="193.815" y="80.12" style="stroke: #000000; stroke-width: 0.8"/>
      </g>
     </g>
     <g id="text_3">
      <!-- 10 Å -->
      <g transform="translate(182.443125 94.718438) scale(0.1 -0.1)">
       <defs>
        <path id="DejaVuSans-31" d="M 794 531 
L 1825 531 
L 1825 4091 
L 703 3866 
L 703 4441 
L 1819 4666 
L 2450 4666 
L 2450 531 
L 3481 531 
L 3481 0 
L 794 0 
L 794 531 
z
" transform="scale(0.015625)"/>
        <path id="DejaVuSans-30" d="M 2034 4250 
Q 1547 4250 1301 3770 
Q 1056 3291 1056 2328 
Q 1056 1369 1301 889 
Q 1547 409 2034 409 
Q 2525 409 2770 889 
Q 3016 1369 3016 2328 
Q 3016 3291 2770 3770 
Q 2525 4250 2034 4250 
z
M 2034 4750 
Q 2819 4750 3233 4129 
Q 3647 3509 3647 2328 
Q 3647 1150 3233 529 
Q 2819 -91 2034 -91 
Q 1250 -91 836 529 
Q 422 1150 422 2328 
Q 422 3509 836 4129 
Q 1250 4750 2034 4750 
z
" transform="scale(0.015625)"/>
       </defs>
       <use xlink:href="#DejaVuSans-31"/>
       <use xlink:href="#DejaVuSans-30" x="63.623047"/>
       <use xlink:href="#DejaVuSans-20" x="127.246094"/>
       <use xlink:href="#DejaVuSans-c5" x="159.033203"/>
      </g>
     </g>
    </g>
   </g>
   <g id="patch_113">
    <path d="M 10.8 80.12 
L 10.8 10.8 
" style="fill: none; stroke: #000000; stroke-width: 0.8; stroke-linejoin: miter; stroke-linecap: square"/>
   </g>
   <g id="patch_114">
    <path d="M 193.815 80.12 
L 193.815 10.8 
" style="fill: none; stroke: #000000; stroke-width: 0.8; stroke-linejoin: miter; stroke-linecap: square"/>
   </g>
   <g id="patch_115">
    <path d="M 10.8 80.12 
L 193.815 80.12 
" style="fill: none; stroke: #000000; stroke-width: 0.8; stroke-linejoin: miter; stroke-linecap: square"/>
   </g>
   <g id="patch_116">
    <path d="M 10.8 10.8 
L 193.815 10.8 
" style="fill: none; stroke: #000000; stroke-width: 0.8; stroke-linejoin: miter; stroke-linecap: square"/>
   </g>
  </g>
 </g>
 <defs>
  <clipPath id="p1eb976aed3">
   <rect x="10.8" y="10.8" width="183.015" height="69.32"/>
  </clipPath>
 </defs>
</svg>
