<?xml version="1.0" encoding="utf-8" standalone="no"?>
<!DOCTYPE svg PUBLIC "-//W3C//DTD SVG 1.1//EN"
  "http://www.w3.org/Graphics/SVG/1.1/DTD/svg11.dtd">
<svg xmlns:xlink="http://www.w3.org/1999/xlink" width="216pt" height="108pt" viewBox="0 0 216 108" xmlns="http://www.w3.org/2000/svg" version="1.1">
 <metadata>
  <rdf:RDF xmlns:dc="http://purl.org/dc/elements/1.1/" xmlns:cc="http://creativecommons.org/ns#" xmlns:rdf="http://www.w3.org/1999/02/22-rdf-syntax-ns#">
   <cc:Work>
    <dc:type rdf:resource="http://purl.org/dc/dcmitype/StillImage"/>
    <dc:date>2024-09-12T11:38:17.611233</dc:date>
    <dc:format>image/svg+xml</dc:format>
    <dc:creator>
     <cc:Agent>
      <dc:title>Matplotlib v3.9.2, https://matplotlib.org/</dc:title>
     </cc:Agent>
    </dc:creator>
   </cc:Work>
  </rdf:RDF>
 </metadata>
 <defs>
  <style type="text/css">*{stroke-linejoin: round; stroke-linecap: butt}</style>
 </defs>
 <g id="figure_1">
  <g id="patch_1">
   <path d="M 0 108 
L 216 108 
L 216 0 
L 0 0 
z
" style="fill: #ffffff"/>
  </g>
  <g id="axes_1">
   <g id="patch_2">
    <path d="M 10.8 80.12 
L 205.2 80.12 
L 205.2 10.8 
L 10.8 10.8 
z
" style="fill: #ffffff"/>
   </g>
   <g id="patch_3">
    <path d="M -125.28 80.12 
L -117.504 80.12 
L -117.504 80.12 
L -125.28 80.12 
z
" clip-path="url(#p1603fac139)" style="fill: #dc706b; opacity: 0.6"/>
   </g>
   <g id="patch_4">
    <path d="M -117.504 80.12 
L -109.728 80.12 
L -109.728 80.12 
L -117.504 80.12 
z
" clip-path="url(#p1603fac139)" style="fill: #dc706b; opacity: 0.6"/>
   </g>
   <g id="patch_5">
    <path d="M -109.728 80.12 
L -101.952 80.12 
L -101.952 80.12 
L -109.728 80.12 
z
" clip-path="url(#p1603fac139)" style="fill: #dc706b; opacity: 0.6"/>
   </g>
   <g id="patch_6">
    <path d="M -101.952 80.12 
L -94.176 80.12 
L -94.176 80.12 
L -101.952 80.12 
z
" clip-path="url(#p1603fac139)" style="fill: #dc706b; opacity: 0.6"/>
   </g>
   <g id="patch_7">
    <path d="M -94.176 80.12 
L -86.4 80.12 
L -86.4 80.12 
L -94.176 80.12 
z
" clip-path="url(#p1603fac139)" style="fill: #dc706b; opacity: 0.6"/>
   </g>
   <g id="patch_8">
    <path d="M -86.4 80.12 
L -78.624 80.12 
L -78.624 80.12 
L -86.4 80.12 
z
" clip-path="url(#p1603fac139)" style="fill: #dc706b; opacity: 0.6"/>
   </g>
   <g id="patch_9">
    <path d="M -78.624 80.12 
L -70.848 80.12 
L -70.848 80.12 
L -78.624 80.12 
z
" clip-path="url(#p1603fac139)" style="fill: #dc706b; opacity: 0.6"/>
   </g>
   <g id="patch_10">
    <path d="M -70.848 80.12 
L -63.072 80.12 
L -63.072 80.12 
L -70.848 80.12 
z
" clip-path="url(#p1603fac139)" style="fill: #dc706b; opacity: 0.6"/>
   </g>
   <g id="patch_11">
    <path d="M -63.072 80.12 
L -55.296 80.12 
L -55.296 80.12 
L -63.072 80.12 
z
" clip-path="url(#p1603fac139)" style="fill: #dc706b; opacity: 0.6"/>
   </g>
   <g id="patch_12">
    <path d="M -55.296 80.12 
L -47.52 80.12 
L -47.52 80.12 
L -55.296 80.12 
z
" clip-path="url(#p1603fac139)" style="fill: #dc706b; opacity: 0.6"/>
   </g>
   <g id="patch_13">
    <path d="M -47.52 80.12 
L -39.744 80.12 
L -39.744 80.12 
L -47.52 80.12 
z
" clip-path="url(#p1603fac139)" style="fill: #dc706b; opacity: 0.6"/>
   </g>
   <g id="patch_14">
    <path d="M -39.744 80.12 
L -31.968 80.12 
L -31.968 80.12 
L -39.744 80.12 
z
" clip-path="url(#p1603fac139)" style="fill: #dc706b; opacity: 0.6"/>
   </g>
   <g id="patch_15">
    <path d="M -31.968 80.12 
L -24.192 80.12 
L -24.192 80.12 
L -31.968 80.12 
z
" clip-path="url(#p1603fac139)" style="fill: #dc706b; opacity: 0.6"/>
   </g>
   <g id="patch_16">
    <path d="M -24.192 80.12 
L -16.416 80.12 
L -16.416 80.12 
L -24.192 80.12 
z
" clip-path="url(#p1603fac139)" style="fill: #dc706b; opacity: 0.6"/>
   </g>
   <g id="patch_17">
    <path d="M -16.416 80.12 
L -8.64 80.12 
L -8.64 80.12 
L -16.416 80.12 
z
" clip-path="url(#p1603fac139)" style="fill: #dc706b; opacity: 0.6"/>
   </g>
   <g id="patch_18">
    <path d="M -8.64 80.12 
L -0.864 80.12 
L -0.864 80.12 
L -8.64 80.12 
z
" clip-path="url(#p1603fac139)" style="fill: #dc706b; opacity: 0.6"/>
   </g>
   <g id="patch_19">
    <path d="M -0.864 80.12 
L 6.912 80.12 
L 6.912 79.993053 
L -0.864 79.993053 
z
" clip-path="url(#p1603fac139)" style="fill: #dc706b; opacity: 0.6"/>
   </g>
   <g id="patch_20">
    <path d="M 6.912 80.12 
L 14.688 80.12 
L 14.688 79.332929 
L 6.912 79.332929 
z
" clip-path="url(#p1603fac139)" style="fill: #dc706b; opacity: 0.6"/>
   </g>
   <g id="patch_21">
    <path d="M 14.688 80.12 
L 22.464 80.12 
L 22.464 75.270624 
L 14.688 75.270624 
z
" clip-path="url(#p1603fac139)" style="fill: #dc706b; opacity: 0.6"/>
   </g>
   <g id="patch_22">
    <path d="M 22.464 80.12 
L 30.24 80.12 
L 30.24 66.257386 
L 22.464 66.257386 
z
" clip-path="url(#p1603fac139)" style="fill: #dc706b; opacity: 0.6"/>
   </g>
   <g id="patch_23">
    <path d="M 30.24 80.12 
L 38.016 80.12 
L 38.016 59.427637 
L 30.24 59.427637 
z
" clip-path="url(#p1603fac139)" style="fill: #dc706b; opacity: 0.6"/>
   </g>
   <g id="patch_24">
    <path d="M 38.016 80.12 
L 45.792 80.12 
L 45.792 58.285114 
L 38.016 58.285114 
z
" clip-path="url(#p1603fac139)" style="fill: #dc706b; opacity: 0.6"/>
   </g>
   <g id="patch_25">
    <path d="M 45.792 80.12 
L 53.568 80.12 
L 53.568 62.804428 
L 45.792 62.804428 
z
" clip-path="url(#p1603fac139)" style="fill: #dc706b; opacity: 0.6"/>
   </g>
   <g id="patch_26">
    <path d="M 53.568 80.12 
L 61.344 80.12 
L 61.344 66.257386 
L 53.568 66.257386 
z
" clip-path="url(#p1603fac139)" style="fill: #dc706b; opacity: 0.6"/>
   </g>
   <g id="patch_27">
    <path d="M 61.344 80.12 
L 69.12 80.12 
L 69.12 63.820004 
L 61.344 63.820004 
z
" clip-path="url(#p1603fac139)" style="fill: #dc706b; opacity: 0.6"/>
   </g>
   <g id="patch_28">
    <path d="M 69.12 80.12 
L 76.896 80.12 
L 76.896 59.326079 
L 69.12 59.326079 
z
" clip-path="url(#p1603fac139)" style="fill: #dc706b; opacity: 0.6"/>
   </g>
   <g id="patch_29">
    <path d="M 76.896 80.12 
L 84.672 80.12 
L 84.672 53.562685 
L 76.896 53.562685 
z
" clip-path="url(#p1603fac139)" style="fill: #dc706b; opacity: 0.6"/>
   </g>
   <g id="patch_30">
    <path d="M 84.672 80.12 
L 92.448 80.12 
L 92.448 52.953339 
L 84.672 52.953339 
z
" clip-path="url(#p1603fac139)" style="fill: #dc706b; opacity: 0.6"/>
   </g>
   <g id="patch_31">
    <path d="M 92.448 80.12 
L 100.224 80.12 
L 100.224 57.955052 
L 92.448 57.955052 
z
" clip-path="url(#p1603fac139)" style="fill: #dc706b; opacity: 0.6"/>
   </g>
   <g id="patch_32">
    <path d="M 100.224 80.12 
L 108 80.12 
L 108 62.347418 
L 100.224 62.347418 
z
" clip-path="url(#p1603fac139)" style="fill: #dc706b; opacity: 0.6"/>
   </g>
   <g id="patch_33">
    <path d="M 108 80.12 
L 115.776 80.12 
L 115.776 69.100999 
L 108 69.100999 
z
" clip-path="url(#p1603fac139)" style="fill: #dc706b; opacity: 0.6"/>
   </g>
   <g id="patch_34">
    <path d="M 115.776 80.12 
L 123.552 80.12 
L 123.552 73.010967 
L 115.776 73.010967 
z
" clip-path="url(#p1603fac139)" style="fill: #dc706b; opacity: 0.6"/>
   </g>
   <g id="patch_35">
    <path d="M 123.552 80.12 
L 131.328 80.12 
L 131.328 75.87997 
L 123.552 75.87997 
z
" clip-path="url(#p1603fac139)" style="fill: #dc706b; opacity: 0.6"/>
   </g>
   <g id="patch_36">
    <path d="M 131.328 80.12 
L 139.104 80.12 
L 139.104 77.352555 
L 131.328 77.352555 
z
" clip-path="url(#p1603fac139)" style="fill: #dc706b; opacity: 0.6"/>
   </g>
   <g id="patch_37">
    <path d="M 139.104 80.12 
L 146.88 80.12 
L 146.88 78.139627 
L 139.104 78.139627 
z
" clip-path="url(#p1603fac139)" style="fill: #dc706b; opacity: 0.6"/>
   </g>
   <g id="patch_38">
    <path d="M 146.88 80.12 
L 154.656 80.12 
L 154.656 79.28215 
L 146.88 79.28215 
z
" clip-path="url(#p1603fac139)" style="fill: #dc706b; opacity: 0.6"/>
   </g>
   <g id="patch_39">
    <path d="M 154.656 80.12 
L 162.432 80.12 
L 162.432 79.536044 
L 154.656 79.536044 
z
" clip-path="url(#p1603fac139)" style="fill: #dc706b; opacity: 0.6"/>
   </g>
   <g id="patch_40">
    <path d="M 162.432 80.12 
L 170.208 80.12 
L 170.208 79.612212 
L 162.432 79.612212 
z
" clip-path="url(#p1603fac139)" style="fill: #dc706b; opacity: 0.6"/>
   </g>
   <g id="patch_41">
    <path d="M 170.208 80.12 
L 177.984 80.12 
L 177.984 79.840717 
L 170.208 79.840717 
z
" clip-path="url(#p1603fac139)" style="fill: #dc706b; opacity: 0.6"/>
   </g>
   <g id="patch_42">
    <path d="M 177.984 80.12 
L 185.76 80.12 
L 185.76 79.942274 
L 177.984 79.942274 
z
" clip-path="url(#p1603fac139)" style="fill: #dc706b; opacity: 0.6"/>
   </g>
   <g id="patch_43">
    <path d="M 185.76 80.12 
L 193.536 80.12 
L 193.536 79.891495 
L 185.76 79.891495 
z
" clip-path="url(#p1603fac139)" style="fill: #dc706b; opacity: 0.6"/>
   </g>
   <g id="patch_44">
    <path d="M 193.536 80.12 
L 201.312 80.12 
L 201.312 80.069221 
L 193.536 80.069221 
z
" clip-path="url(#p1603fac139)" style="fill: #dc706b; opacity: 0.6"/>
   </g>
   <g id="patch_45">
    <path d="M 201.312 80.12 
L 209.088 80.12 
L 209.088 80.069221 
L 201.312 80.069221 
z
" clip-path="url(#p1603fac139)" style="fill: #dc706b; opacity: 0.6"/>
   </g>
   <g id="patch_46">
    <path d="M 209.088 80.12 
L 216.864 80.12 
L 216.864 80.12 
L 209.088 80.12 
z
" clip-path="url(#p1603fac139)" style="fill: #dc706b; opacity: 0.6"/>
   </g>
   <g id="patch_47">
    <path d="M 216.864 80.12 
L 224.64 80.12 
L 224.64 80.12 
L 216.864 80.12 
z
" clip-path="url(#p1603fac139)" style="fill: #dc706b; opacity: 0.6"/>
   </g>
   <g id="patch_48">
    <path d="M -125.28 80.12 
L -117.504 80.12 
L -117.504 80.12 
L -125.28 80.12 
z
" clip-path="url(#p1603fac139)" style="fill: #85c3c4; opacity: 0.6"/>
   </g>
   <g id="patch_49">
    <path d="M -117.504 80.12 
L -109.728 80.12 
L -109.728 80.12 
L -117.504 80.12 
z
" clip-path="url(#p1603fac139)" style="fill: #85c3c4; opacity: 0.6"/>
   </g>
   <g id="patch_50">
    <path d="M -109.728 80.12 
L -101.952 80.12 
L -101.952 80.12 
L -109.728 80.12 
z
" clip-path="url(#p1603fac139)" style="fill: #85c3c4; opacity: 0.6"/>
   </g>
   <g id="patch_51">
    <path d="M -101.952 80.12 
L -94.176 80.12 
L -94.176 80.12 
L -101.952 80.12 
z
" clip-path="url(#p1603fac139)" style="fill: #85c3c4; opacity: 0.6"/>
   </g>
   <g id="patch_52">
    <path d="M -94.176 80.12 
L -86.4 80.12 
L -86.4 80.12 
L -94.176 80.12 
z
" clip-path="url(#p1603fac139)" style="fill: #85c3c4; opacity: 0.6"/>
   </g>
   <g id="patch_53">
    <path d="M -86.4 80.12 
L -78.624 80.12 
L -78.624 80.12 
L -86.4 80.12 
z
" clip-path="url(#p1603fac139)" style="fill: #85c3c4; opacity: 0.6"/>
   </g>
   <g id="patch_54">
    <path d="M -78.624 80.12 
L -70.848 80.12 
L -70.848 80.12 
L -78.624 80.12 
z
" clip-path="url(#p1603fac139)" style="fill: #85c3c4; opacity: 0.6"/>
   </g>
   <g id="patch_55">
    <path d="M -70.848 80.12 
L -63.072 80.12 
L -63.072 80.12 
L -70.848 80.12 
z
" clip-path="url(#p1603fac139)" style="fill: #85c3c4; opacity: 0.6"/>
   </g>
   <g id="patch_56">
    <path d="M -63.072 80.12 
L -55.296 80.12 
L -55.296 80.12 
L -63.072 80.12 
z
" clip-path="url(#p1603fac139)" style="fill: #85c3c4; opacity: 0.6"/>
   </g>
   <g id="patch_57">
    <path d="M -55.296 80.12 
L -47.52 80.12 
L -47.52 80.12 
L -55.296 80.12 
z
" clip-path="url(#p1603fac139)" style="fill: #85c3c4; opacity: 0.6"/>
   </g>
   <g id="patch_58">
    <path d="M -47.52 80.12 
L -39.744 80.12 
L -39.744 80.12 
L -47.52 80.12 
z
" clip-path="url(#p1603fac139)" style="fill: #85c3c4; opacity: 0.6"/>
   </g>
   <g id="patch_59">
    <path d="M -39.744 80.12 
L -31.968 80.12 
L -31.968 80.12 
L -39.744 80.12 
z
" clip-path="url(#p1603fac139)" style="fill: #85c3c4; opacity: 0.6"/>
   </g>
   <g id="patch_60">
    <path d="M -31.968 80.12 
L -24.192 80.12 
L -24.192 80.12 
L -31.968 80.12 
z
" clip-path="url(#p1603fac139)" style="fill: #85c3c4; opacity: 0.6"/>
   </g>
   <g id="patch_61">
    <path d="M -24.192 80.12 
L -16.416 80.12 
L -16.416 80.12 
L -24.192 80.12 
z
" clip-path="url(#p1603fac139)" style="fill: #85c3c4; opacity: 0.6"/>
   </g>
   <g id="patch_62">
    <path d="M -16.416 80.12 
L -8.64 80.12 
L -8.64 80.12 
L -16.416 80.12 
z
" clip-path="url(#p1603fac139)" style="fill: #85c3c4; opacity: 0.6"/>
   </g>
   <g id="patch_63">
    <path d="M -8.64 80.12 
L -0.864 80.12 
L -0.864 80.12 
L -8.64 80.12 
z
" clip-path="url(#p1603fac139)" style="fill: #85c3c4; opacity: 0.6"/>
   </g>
   <g id="patch_64">
    <path d="M -0.864 80.12 
L 6.912 80.12 
L 6.912 80.12 
L -0.864 80.12 
z
" clip-path="url(#p1603fac139)" style="fill: #85c3c4; opacity: 0.6"/>
   </g>
   <g id="patch_65">
    <path d="M 6.912 80.12 
L 14.688 80.12 
L 14.688 77.580806 
L 6.912 77.580806 
z
" clip-path="url(#p1603fac139)" style="fill: #85c3c4; opacity: 0.6"/>
   </g>
   <g id="patch_66">
    <path d="M 14.688 80.12 
L 22.464 80.12 
L 22.464 64.884835 
L 14.688 64.884835 
z
" clip-path="url(#p1603fac139)" style="fill: #85c3c4; opacity: 0.6"/>
   </g>
   <g id="patch_67">
    <path d="M 22.464 80.12 
L 30.24 80.12 
L 30.24 67.424029 
L 22.464 67.424029 
z
" clip-path="url(#p1603fac139)" style="fill: #85c3c4; opacity: 0.6"/>
   </g>
   <g id="patch_68">
    <path d="M 30.24 80.12 
L 38.016 80.12 
L 38.016 14.100952 
L 30.24 14.100952 
z
" clip-path="url(#p1603fac139)" style="fill: #85c3c4; opacity: 0.6"/>
   </g>
   <g id="patch_69">
    <path d="M 38.016 80.12 
L 45.792 80.12 
L 45.792 47.110476 
L 38.016 47.110476 
z
" clip-path="url(#p1603fac139)" style="fill: #85c3c4; opacity: 0.6"/>
   </g>
   <g id="patch_70">
    <path d="M 45.792 80.12 
L 53.568 80.12 
L 53.568 64.884835 
L 45.792 64.884835 
z
" clip-path="url(#p1603fac139)" style="fill: #85c3c4; opacity: 0.6"/>
   </g>
   <g id="patch_71">
    <path d="M 53.568 80.12 
L 61.344 80.12 
L 61.344 59.806447 
L 53.568 59.806447 
z
" clip-path="url(#p1603fac139)" style="fill: #85c3c4; opacity: 0.6"/>
   </g>
   <g id="patch_72">
    <path d="M 61.344 80.12 
L 69.12 80.12 
L 69.12 64.884835 
L 61.344 64.884835 
z
" clip-path="url(#p1603fac139)" style="fill: #85c3c4; opacity: 0.6"/>
   </g>
   <g id="patch_73">
    <path d="M 69.12 80.12 
L 76.896 80.12 
L 76.896 67.424029 
L 69.12 67.424029 
z
" clip-path="url(#p1603fac139)" style="fill: #85c3c4; opacity: 0.6"/>
   </g>
   <g id="patch_74">
    <path d="M 76.896 80.12 
L 84.672 80.12 
L 84.672 67.424029 
L 76.896 67.424029 
z
" clip-path="url(#p1603fac139)" style="fill: #85c3c4; opacity: 0.6"/>
   </g>
   <g id="patch_75">
    <path d="M 84.672 80.12 
L 92.448 80.12 
L 92.448 69.963223 
L 84.672 69.963223 
z
" clip-path="url(#p1603fac139)" style="fill: #85c3c4; opacity: 0.6"/>
   </g>
   <g id="patch_76">
    <path d="M 92.448 80.12 
L 100.224 80.12 
L 100.224 62.345641 
L 92.448 62.345641 
z
" clip-path="url(#p1603fac139)" style="fill: #85c3c4; opacity: 0.6"/>
   </g>
   <g id="patch_77">
    <path d="M 100.224 80.12 
L 108 80.12 
L 108 72.502418 
L 100.224 72.502418 
z
" clip-path="url(#p1603fac139)" style="fill: #85c3c4; opacity: 0.6"/>
   </g>
   <g id="patch_78">
    <path d="M 108 80.12 
L 115.776 80.12 
L 115.776 69.963223 
L 108 69.963223 
z
" clip-path="url(#p1603fac139)" style="fill: #85c3c4; opacity: 0.6"/>
   </g>
   <g id="patch_79">
    <path d="M 115.776 80.12 
L 123.552 80.12 
L 123.552 77.580806 
L 115.776 77.580806 
z
" clip-path="url(#p1603fac139)" style="fill: #85c3c4; opacity: 0.6"/>
   </g>
   <g id="patch_80">
    <path d="M 123.552 80.12 
L 131.328 80.12 
L 131.328 80.12 
L 123.552 80.12 
z
" clip-path="url(#p1603fac139)" style="fill: #85c3c4; opacity: 0.6"/>
   </g>
   <g id="patch_81">
    <path d="M 131.328 80.12 
L 139.104 80.12 
L 139.104 80.12 
L 131.328 80.12 
z
" clip-path="url(#p1603fac139)" style="fill: #85c3c4; opacity: 0.6"/>
   </g>
   <g id="patch_82">
    <path d="M 139.104 80.12 
L 146.88 80.12 
L 146.88 80.12 
L 139.104 80.12 
z
" clip-path="url(#p1603fac139)" style="fill: #85c3c4; opacity: 0.6"/>
   </g>
   <g id="patch_83">
    <path d="M 146.88 80.12 
L 154.656 80.12 
L 154.656 80.12 
L 146.88 80.12 
z
" clip-path="url(#p1603fac139)" style="fill: #85c3c4; opacity: 0.6"/>
   </g>
   <g id="patch_84">
    <path d="M 154.656 80.12 
L 162.432 80.12 
L 162.432 80.12 
L 154.656 80.12 
z
" clip-path="url(#p1603fac139)" style="fill: #85c3c4; opacity: 0.6"/>
   </g>
   <g id="patch_85">
    <path d="M 162.432 80.12 
L 170.208 80.12 
L 170.208 80.12 
L 162.432 80.12 
z
" clip-path="url(#p1603fac139)" style="fill: #85c3c4; opacity: 0.6"/>
   </g>
   <g id="patch_86">
    <path d="M 170.208 80.12 
L 177.984 80.12 
L 177.984 80.12 
L 170.208 80.12 
z
" clip-path="url(#p1603fac139)" style="fill: #85c3c4; opacity: 0.6"/>
   </g>
   <g id="patch_87">
    <path d="M 177.984 80.12 
L 185.76 80.12 
L 185.76 80.12 
L 177.984 80.12 
z
" clip-path="url(#p1603fac139)" style="fill: #85c3c4; opacity: 0.6"/>
   </g>
   <g id="patch_88">
    <path d="M 185.76 80.12 
L 193.536 80.12 
L 193.536 80.12 
L 185.76 80.12 
z
" clip-path="url(#p1603fac139)" style="fill: #85c3c4; opacity: 0.6"/>
   </g>
   <g id="patch_89">
    <path d="M 193.536 80.12 
L 201.312 80.12 
L 201.312 80.12 
L 193.536 80.12 
z
" clip-path="url(#p1603fac139)" style="fill: #85c3c4; opacity: 0.6"/>
   </g>
   <g id="patch_90">
    <path d="M 201.312 80.12 
L 209.088 80.12 
L 209.088 80.12 
L 201.312 80.12 
z
" clip-path="url(#p1603fac139)" style="fill: #85c3c4; opacity: 0.6"/>
   </g>
   <g id="patch_91">
    <path d="M 209.088 80.12 
L 216.864 80.12 
L 216.864 80.12 
L 209.088 80.12 
z
" clip-path="url(#p1603fac139)" style="fill: #85c3c4; opacity: 0.6"/>
   </g>
   <g id="patch_92">
    <path d="M 216.864 80.12 
L 224.64 80.12 
L 224.64 80.12 
L 216.864 80.12 
z
" clip-path="url(#p1603fac139)" style="fill: #85c3c4; opacity: 0.6"/>
   </g>
   <g id="matplotlib.axis_1">
    <g id="xtick_1">
     <g id="line2d_1">
      <defs>
       <path id="mb685ec8887" d="M 0 0 
L 0 3.5 
" style="stroke: #000000; stroke-width: 0.8"/>
      </defs>
      <g>
       <use xlink:href="#mb685ec8887" x="30.24" y="80.12" style="stroke: #000000; stroke-width: 0.8"/>
      </g>
     </g>
     <g id="text_1">
      <!-- 4 Å -->
      <g transform="translate(22.049375 94.718438) scale(0.1 -0.1)">
       <defs>
        <path id="DejaVuSans-34" d="M 2419 4116 
L 825 1625 
L 2419 1625 
L 2419 4116 
z
M 2253 4666 
L 3047 4666 
L 3047 1625 
L 3713 1625 
L 3713 1100 
L 3047 1100 
L 3047 0 
L 2419 0 
L 2419 1100 
L 313 1100 
L 313 1709 
L 2253 4666 
z
" transform="scale(0.015625)"/>
        <path id="DejaVuSans-20" transform="scale(0.015625)"/>
        <path id="DejaVuSans-c5" d="M 2663 5081 
Q 2663 5278 2523 5417 
Q 2384 5556 2188 5556 
Q 1988 5556 1852 5420 
Q 1716 5284 1716 5081 
Q 1716 4884 1853 4746 
Q 1991 4609 2188 4609 
Q 2384 4609 2523 4746 
Q 2663 4884 2663 5081 
z
M 2188 4044 
L 1338 1722 
L 3041 1722 
L 2188 4044 
z
M 1716 4366 
Q 1525 4494 1428 4673 
Q 1331 4853 1331 5081 
Q 1331 5441 1579 5691 
Q 1828 5941 2188 5941 
Q 2544 5941 2795 5689 
Q 3047 5438 3047 5081 
Q 3047 4863 2948 4678 
Q 2850 4494 2663 4366 
L 4325 0 
L 3669 0 
L 3244 1197 
L 1141 1197 
L 716 0 
L 50 0 
L 1716 4366 
z
" transform="scale(0.015625)"/>
       </defs>
       <use xlink:href="#DejaVuSans-34"/>
       <use xlink:href="#DejaVuSans-20" x="63.623047"/>
       <use xlink:href="#DejaVuSans-c5" x="95.410156"/>
      </g>
     </g>
    </g>
    <g id="xtick_2">
     <g id="line2d_2">
      <g>
       <use xlink:href="#mb685ec8887" x="108" y="80.12" style="stroke: #000000; stroke-width: 0.8"/>
      </g>
     </g>
     <g id="text_2">
      <!-- 6 Å -->
      <g transform="translate(99.809375 94.718438) scale(0.1 -0.1)">
       <defs>
        <path id="DejaVuSans-36" d="M 2113 2584 
Q 1688 2584 1439 2293 
Q 1191 2003 1191 1497 
Q 1191 994 1439 701 
Q 1688 409 2113 409 
Q 2538 409 2786 701 
Q 3034 994 3034 1497 
Q 3034 2003 2786 2293 
Q 2538 2584 2113 2584 
z
M 3366 4563 
L 3366 3988 
Q 3128 4100 2886 4159 
Q 2644 4219 2406 4219 
Q 1781 4219 1451 3797 
Q 1122 3375 1075 2522 
Q 1259 2794 1537 2939 
Q 1816 3084 2150 3084 
Q 2853 3084 3261 2657 
Q 3669 2231 3669 1497 
Q 3669 778 3244 343 
Q 2819 -91 2113 -91 
Q 1303 -91 875 529 
Q 447 1150 447 2328 
Q 447 3434 972 4092 
Q 1497 4750 2381 4750 
Q 2619 4750 2861 4703 
Q 3103 4656 3366 4563 
z
" transform="scale(0.015625)"/>
       </defs>
       <use xlink:href="#DejaVuSans-36"/>
       <use xlink:href="#DejaVuSans-20" x="63.623047"/>
       <use xlink:href="#DejaVuSans-c5" x="95.410156"/>
      </g>
     </g>
    </g>
    <g id="xtick_3">
     <g id="line2d_3">
      <g>
       <use xlink:href="#mb685ec8887" x="185.76" y="80.12" style="stroke: #000000; stroke-width: 0.8"/>
      </g>
     </g>
     <g id="text_3">
      <!-- 8 Å -->
      <g transform="translate(177.569375 94.718438) scale(0.1 -0.1)">
       <defs>
        <path id="DejaVuSans-38" d="M 2034 2216 
Q 1584 2216 1326 1975 
Q 1069 1734 1069 1313 
Q 1069 891 1326 650 
Q 1584 409 2034 409 
Q 2484 409 2743 651 
Q 3003 894 3003 1313 
Q 3003 1734 2745 1975 
Q 2488 2216 2034 2216 
z
M 1403 2484 
Q 997 2584 770 2862 
Q 544 3141 544 3541 
Q 544 4100 942 4425 
Q 1341 4750 2034 4750 
Q 2731 4750 3128 4425 
Q 3525 4100 3525 3541 
Q 3525 3141 3298 2862 
Q 3072 2584 2669 2484 
Q 3125 2378 3379 2068 
Q 3634 1759 3634 1313 
Q 3634 634 3220 271 
Q 2806 -91 2034 -91 
Q 1263 -91 848 271 
Q 434 634 434 1313 
Q 434 1759 690 2068 
Q 947 2378 1403 2484 
z
M 1172 3481 
Q 1172 3119 1398 2916 
Q 1625 2713 2034 2713 
Q 2441 2713 2670 2916 
Q 2900 3119 2900 3481 
Q 2900 3844 2670 4047 
Q 2441 4250 2034 4250 
Q 1625 4250 1398 4047 
Q 1172 3844 1172 3481 
z
" transform="scale(0.015625)"/>
       </defs>
       <use xlink:href="#DejaVuSans-38"/>
       <use xlink:href="#DejaVuSans-20" x="63.623047"/>
       <use xlink:href="#DejaVuSans-c5" x="95.410156"/>
      </g>
     </g>
    </g>
   </g>
   <g id="patch_93">
    <path d="M 10.8 80.12 
L 10.8 10.8 
" style="fill: none; stroke: #000000; stroke-width: 0.8; stroke-linejoin: miter; stroke-linecap: square"/>
   </g>
   <g id="patch_94">
    <path d="M 205.2 80.12 
L 205.2 10.8 
" style="fill: none; stroke: #000000; stroke-width: 0.8; stroke-linejoin: miter; stroke-linecap: square"/>
   </g>
   <g id="patch_95">
    <path d="M 10.8 80.12 
L 205.2 80.12 
" style="fill: none; stroke: #000000; stroke-width: 0.8; stroke-linejoin: miter; stroke-linecap: square"/>
   </g>
   <g id="patch_96">
    <path d="M 10.8 10.8 
L 205.2 10.8 
" style="fill: none; stroke: #000000; stroke-width: 0.8; stroke-linejoin: miter; stroke-linecap: square"/>
   </g>
  </g>
 </g>
 <defs>
  <clipPath id="p1603fac139">
   <rect x="10.8" y="10.8" width="194.4" height="69.32"/>
  </clipPath>
 </defs>
</svg>
